<?xml version="1.0" encoding="UTF-8"?>
<svg id="Warstwa_1" xmlns="http://www.w3.org/2000/svg" version="1.1" viewBox="0 0 478.34 499.72">
  <!-- Generator: Adobe Illustrator 30.5.1, SVG Export Plug-In . SVG Version: 2.1.4 Build 3)  -->
  <defs>
    <style>
      .st0 {
        fill: #fff;
      }
    </style>
  </defs>
  <path class="st0" d="M279.54,257.49c0,2.13-1.68,3.88-3.79,4-.07.01-.15.01-.23.01-2.21,0-4.01-1.8-4.01-4.01s1.8-4.02,4.01-4.02c.59,0,1.15.13,1.65.36,1.4.62,2.37,2.03,2.37,3.66ZM370.19,376.45c-36.3,43.64-96.1,65.63-152.44,58.37-44.1-5.33-86-27.52-114.38-61.8-13.09-15.58-23.28-33.55-29.92-52.62-1.15-.48-2.23-.96-3.23-1.41.54-1.16,1.07-2.33,1.61-3.49-3.44-10.98-5.7-22.29-6.67-33.69,1.93,10.26,4.75,20.3,8.37,29.99,4.18-9.08,8.37-18.15,12.54-27.23,8.16,5.05,23.13,12.48,42.35,12.06,10.75-.24,26.77-.6,35.68-12.69,4.8-6.52,7.92-16.96,4.44-25.85-6.79-17.33-35.28-20.11-50.27-21.57-7.59-.74-14-.6-18.56-.32,10.89-34.04,21.78-68.09,32.67-102.13h102.24c-2.68,11.42-5.36,22.84-8.04,34.26h-68.83c-4.07,12.84-8.14,25.69-12.21,38.53,3.75-.09,29.21-.36,47.36,17.64,17.07-28.82,48.48-48.18,84.33-48.18,42.09,0,78.05,26.69,91.88,64.02l13.52-16.67-18.4,39.33-124.81,137.18,23.54-29.01c-33.4-4.9-61.35-26.71-74.9-56.43-29.68,24.97-81.07,14.94-89.62,13.28-8.05-1.57-15-3.75-20.67-5.9,7.64,17.12,17.87,32.97,30.31,46.81,68.09,76.48,189.31,79.6,262.1,7.52ZM229.44,354.59c1.49-.86,2.95-1.76,4.38-2.7,9.64-6.32,17.9-14.43,24.47-23.84-.54-3.6-1.21-6.32-2.31-8.93-2.33-5.61-6.02-10.7-10.26-15.03-1.63-1.66-3.36-3.23-5.19-4.69-9.74,3.25-19.87,4.95-30.01,5.03-5.86.05-11.72-.46-17.52-1.53-1.7-.31-3.38-.67-5.07-1.08h-.01c.22.7.44,1.39.67,2.08.23.69.47,1.38.71,2.06.73,2.05,1.54,4.07,2.42,6.04.3.66.59,1.31.9,1.97.91,1.95,1.88,3.87,2.94,5.74.35.63.71,1.25,1.07,1.87.37.62.74,1.23,1.11,1.84.38.6.76,1.21,1.15,1.8.39.6.79,1.2,1.19,1.78.4.59.81,1.18,1.23,1.76.82,1.16,1.68,2.3,2.57,3.41.44.56.89,1.11,1.34,1.66.93,1.12,1.87,2.21,2.84,3.28.94,1.03,1.91,2.05,2.89,3.04.99,1,2.01,1.97,3.04,2.92.55.51,1.11,1.01,1.67,1.5.52.46,1.05.91,1.58,1.35.54.46,1.09.91,1.65,1.36.56.44,1.12.88,1.68,1.31.57.44,1.14.86,1.72,1.28.57.42,1.16.83,1.74,1.24.59.41,1.18.81,1.78,1.2.59.39,1.19.78,1.8,1.16.6.38,1.21.75,1.83,1.12ZM259.58,339.62c-.2-2.07-.38-3.93-.56-5.63-5.94,7.72-13.03,14.51-21.09,20.07-1.42.99-2.88,1.93-4.36,2.84.84.44,1.68.87,2.53,1.29.06.03.13.06.19.1.59.29,1.2.57,1.8.85.24.11.49.22.73.33.04.02.08.04.13.06.71.32,1.43.64,2.16.93.06.04.13.07.2.09.29.12.58.24.87.36.68.29,1.37.56,2.06.82.52.2,1.05.39,1.58.58,1.06.38,2.13.74,3.2,1.08.54.17,1.08.33,1.62.49.55.17,1.09.32,1.64.47,1.64.47,3.29.87,4.96,1.23.56.12,1.12.24,1.68.35.31-1.49.56-2.97.74-4.44.97-7.26.64-14.27-.08-21.87ZM281.96,256.67c-.22-.71-.5-1.34-.8-1.91-.94-1.8-2.12-2.94-2.73-3.48-.2.01-.42.03-.67.06-1.77.17-4.58.71-7.55,2.41-1.86,1.06-3.29,2.28-4.35,3.4-.83.86-1.44,1.66-1.85,2.26.48.51,2.88,2.94,6.39,4.38,1.46.6,3.12,1.03,4.91,1.07.71.01,1.44-.03,2.19-.15.72-.12,1.39-.29,2.01-.5,1.04-.35,1.94-.81,2.7-1.27.24-1.04.64-3.44-.25-6.27ZM318.47,265.06c-.29,5.05-1.31,10.11-3.2,14.79-.5,1.28-1.08,2.52-1.73,3.73-.51.99-1.08,1.96-1.7,2.9-3.35,5.84-8.72,9.53-13.94,13.43-1.13.83-2.24,1.68-3.33,2.56-2.79,2.24-5.39,4.7-7.44,7.76-5.98,9.1-3.24,19.57,3.35,27.04l2.22-2.74c-5.43-6.34-7.78-15.02-2.97-22.66,1.65-2.6,3.74-4.77,6.02-6.75,1.06-.93,2.17-1.83,3.28-2.71,2.38-1.89,4.82-3.74,7.05-5.83,2.88-2.66,5.36-5.81,7.24-9.21.57-1.05,1.1-2.11,1.58-3.2.55-1.26,1.04-2.54,1.46-3.84,1.64-4.94,2.34-10.14,2.11-15.27ZM361.42,249.83c-9.03-1.73-18.23-2.05-27.31-.99,5.75,5.28,9.98,12.04,11.58,20.38l15.73-19.39ZM325.02,193.96c-1.49.86-2.94,1.75-4.37,2.7-13.87,9.08-24.88,21.88-32.13,36.92.58-.02,1.18-.01,1.81-.01,12.89-.04,28.09,3.62,39.42,11.74,10.5-1.67,21.21-1.58,31.72.34.96.17,1.91.37,2.87.58l1.47-1.81c-.18-.53-.36-1.06-.55-1.59-.04-.1-.07-.2-.1-.3-.49-1.34-1-2.67-1.55-3.98-.25-.61-.51-1.21-.77-1.81-.06-.13-.11-.25-.16-.37-.22-.48-.44-.95-.66-1.43-.08-.17-.16-.35-.24-.52-.28-.59-.57-1.18-.86-1.77-.32-.64-.65-1.28-.98-1.91-.66-1.27-1.36-2.53-2.1-3.76-.36-.62-.73-1.23-1.11-1.84-1.12-1.82-2.31-3.61-3.56-5.34-.42-.58-.84-1.15-1.27-1.72-.85-1.14-1.73-2.26-2.65-3.35-.9-1.1-1.83-2.18-2.8-3.23-.02,0-.03-.03-.04-.05-1.9-2.1-3.89-4.1-5.98-6-1.57-1.46-3.19-2.85-4.86-4.17-.56-.45-1.12-.88-1.69-1.32-.85-.65-1.71-1.28-2.58-1.9-.87-.62-1.76-1.23-2.65-1.81-.59-.39-1.2-.78-1.8-1.16-.61-.38-1.22-.75-1.83-1.12ZM258.68,243.34c5.34-1.81,8.49-5.1,14.35-7.19,4.1-1.39,6.88-2.11,10.88-2.41,7.23-15.86,18.42-29.44,32.63-39.25,1.42-.99,2.88-1.93,4.36-2.84-1.48-.79-2.99-1.53-4.52-2.23-.29-.14-.58-.27-.88-.41-.56-.26-1.12-.5-1.69-.74-.33-.14-.66-.28-.99-.41-.67-.29-1.34-.56-2.02-.82-1.63-.64-3.28-1.22-4.95-1.75-.56-.17-1.12-.35-1.68-.52-.9-.27-1.8-.53-2.71-.77-.46-.13-.91-.24-1.37-.36-.87-.22-1.74-.42-2.62-.62-.13-.03-.27-.06-.41-.09-.37-.08-.74-.16-1.12-.23-.18-.04-.37-.08-.56-.11-.47-.1-.94-.19-1.41-.27-.12-.02-.25-.05-.38-.07-.62-.11-1.24-.22-1.87-.31-.17-.03-.34-.05-.51-.08-.54-.08-1.09-.16-1.64-.23-.8-.11-1.6-.2-2.41-.29-.38-.04-.77-.08-1.16-.11-.55-.05-1.11-.1-1.66-.14-.69-.06-1.38-.1-2.07-.14-.7-.03-1.41-.06-2.11-.08-.3-.01-.59-.02-.88-.02-.68-.02-1.36-.03-2.05-.03s-1.38.01-2.07.03c-.3,0-.6,0-.89.02-.61.02-1.22.04-1.83.07h-.05c-.59.03-1.18.07-1.77.11-.25.02-.5.04-.75.06-.59.04-1.18.09-1.76.15-.33.03-.66.07-.99.1-.77.08-1.54.18-2.31.28-.61.08-1.21.16-1.81.26-.59.09-1.18.18-1.77.29-.32.05-.63.11-.95.17-.45.08-.9.16-1.34.26-1.58.3-3.15.66-4.7,1.05-.45,1.66-.85,3.32-1.19,4.99-3.81,18.26-1.74,37.28,5.63,54.68ZM183.78,274.27c0,.7.01,1.39.03,2.08,0,.29.01.59.02.89.01.58.04,1.16.07,1.73.02.4.04.81.07,1.21.03.49.06.97.1,1.46.04.49.08.97.13,1.46.13,1.45.3,2.9.51,4.33.07.47.14.95.21,1.43.12.74.24,1.48.37,2.21.1.56.21,1.11.32,1.67.1.48.21.97.31,1.45.11.49.22.97.33,1.45.13.55.26,1.1.4,1.64h.01c1.65.44,3.29.84,4.96,1.18,14.85,3.1,30.21,2.31,44.79-2.07-2.28-1.52-4.67-2.89-7.13-4.05-3.2-1.51-6.57-2.73-9.59-4.58-2.96-1.81-5.44-4.32-7.75-6.87-1.63-1.79-3.1-3.69-4.42-5.7,1.32,1.06,2.72,2.09,4.21,3.1,3.52,2.37,10.33,6.88,20.25,8.88,9.6,1.93,17.92.32,18.2.23-9.42,1.02-16.38-.69-20.48-2.09-9.16-3.14-17.89-9.63-22.57-14.35-.61-.63-1.89-1.95-3.78-3.68-.09-.21-.17-.42-.25-.64-.67-1.69-1.23-3.44-1.67-5.21-.57-2.35-1.29-5.94-1.39-9.51,1.38.74,3.11,1.39,5.15,1.65,1.23.15,3.76.44,6.63-.72.4-.16.78-.34,1.13-.53,1.38-.72,2.47-1.65,3.31-2.58,1.36-1.49,2.07-2.96,2.34-3.54.58-1.24.92-2.45,1.11-3.53,3.1.59,6.42,1.12,9.51,1.34,9.33.64,17.71.9,25.33.07-7.12-17.22-9.26-35.93-5.95-54.03.31-1.71.67-3.41,1.08-5.1-.7.21-1.39.44-2.08.67-.45.15-.9.3-1.34.46-1,.35-2,.72-2.99,1.1-.59.23-1.19.47-1.78.72-.51.21-1.02.42-1.52.65-.53.23-1.06.46-1.58.71-.43.18-.86.38-1.28.6-.53.24-1.07.5-1.6.77-.61.3-1.23.62-1.83.94-.64.33-1.27.68-1.89,1.03-.52.29-1.04.58-1.55.88-.37.21-.74.43-1.11.66-.18.11-.37.22-.55.33-.38.23-.75.46-1.12.7-.36.22-.71.45-1.06.67-.14.09-.27.18-.4.27-.47.31-.94.62-1.41.94-1.21.83-2.4,1.68-3.57,2.56-.57.43-1.13.87-1.69,1.31-.6.47-1.19.96-1.78,1.44-1.05.87-2.09,1.77-3.1,2.7-.02.02-.04.03-.05.04-2.1,1.9-4.1,3.9-6,5.98-.48.53-.96,1.06-1.43,1.59-.47.53-.93,1.08-1.39,1.62-.39.46-.77.93-1.14,1.39-.38.46-.74.94-1.11,1.41-1.6,2.06-3.11,4.19-4.53,6.38-.31.47-.61.94-.9,1.42-.33.53-.66,1.06-.98,1.6,0,0,0,.01.01.01.85,1.49,1.74,2.93,2.69,4.36,2.16,3.31,4.55,6.46,7.13,9.44-1.54.02-2.91.42-4.03,1.58-1.87-2.21-3.63-4.51-5.27-6.9-.99-1.43-1.94-2.88-2.85-4.37-.03.05-.05.1-.07.15-.63,1.17-1.22,2.36-1.79,3.56-.2.42-.39.84-.59,1.26-.24.53-.47,1.06-.71,1.59-.46,1.06-.9,2.14-1.32,3.22-.21.54-.42,1.09-.62,1.63-.16.44-.32.88-.47,1.32-.31.88-.61,1.76-.89,2.66-.14.44-.28.89-.41,1.34-.27.9-.53,1.8-.77,2.71-.13.46-.24.91-.36,1.37-.23.91-.45,1.83-.65,2.76-.15.68-.29,1.37-.42,2.06-.09.41-.17.82-.24,1.24-.17.93-.33,1.87-.47,2.81-.08.52-.15,1.04-.22,1.56-.11.83-.21,1.66-.3,2.49-.04.39-.08.77-.11,1.16-.06.58-.11,1.16-.15,1.75-.05.66-.09,1.32-.13,1.98-.03.7-.06,1.41-.08,2.11,0,.3-.02.59-.02.88-.02.68-.03,1.36-.03,2.05ZM360.5,141.82c26.82,25.25,45.38,58.71,52.8,95.35-1.59-16.54-6.03-32.87-12.71-48.25-26.5-61.21-88.6-101.63-154.94-103.71-3.65-.03-9.1-.3-12.7.02,0,0-6.34.32-6.34.32-3.73.13-8.83,1-12.62,1.33-3.62.5-8.81,1.57-12.48,2.22-1.95.49-7.34,1.9-9.21,2.36-33.24,9.15-64,28.73-85.7,55.51,68.96-70.16,182.53-72.77,253.9-5.14ZM398.28,321.79l-11.32,1.75-7.15,30.22c-.58,2.48-.92,4.84-1.02,7.08-.1,2.24.24,4.22,1.02,5.95.78,1.73,2.09,3.09,3.94,4.09,1.85,1,4.45,1.5,7.81,1.5,2.34,0,4.35-.2,6.06-.58,1.7-.39,3.29-.85,4.75-1.39l-.8-8.32c-1.12.39-2.23.69-3.32.91-1.09.22-2.23.33-3.39.33-1.36,0-2.43-.19-3.21-.58s-1.33-.94-1.64-1.64c-.32-.71-.44-1.54-.36-2.52.07-.97.25-2.02.55-3.14l3.21-13.43h12.04l2.19-8.91h-12.12l2.77-11.31ZM370.1,354.94c-.68,2.77-.88,5.56-.58,8.36.29,2.8.85,5.29,1.68,7.48l-9.71,1.39c-.29-.58-.56-1.14-.8-1.68-.24-.53-.49-1.14-.73-1.82-1.36,1.12-2.87,2.04-4.53,2.77-1.66.73-3.5,1.1-5.55,1.1-2.43,0-4.51-.43-6.24-1.28-1.73-.85-3.14-1.99-4.23-3.43-1.09-1.43-1.89-3.11-2.37-5.04-.49-1.92-.73-3.98-.73-6.17,0-3.36.6-6.52,1.79-9.49,1.19-2.97,2.85-5.56,4.96-7.77,2.12-2.21,4.61-3.95,7.48-5.22,2.87-1.26,5.99-1.9,9.34-1.9.44,0,1.21.03,2.3.07,1.09.05,2.35.16,3.76.33,1.41.17,2.89.45,4.45.84,1.56.39,3.04.92,4.45,1.61l-4.75,19.86ZM362.51,341.5c-.63-.1-1.2-.17-1.72-.22-.51-.05-1.13-.07-1.86-.07-1.65,0-3.2.41-4.63,1.24-1.44.83-2.69,1.91-3.76,3.25-1.07,1.34-1.91,2.88-2.52,4.64-.61,1.75-.91,3.58-.91,5.47,0,2.34.39,4.19,1.17,5.55.78,1.36,2.21,2.04,4.31,2.04,1.12,0,2.13-.22,3.03-.66.9-.44,1.86-1.17,2.88-2.19.1-1.22.25-2.49.47-3.83.22-1.34.45-2.57.69-3.69l2.85-11.53ZM336.3,314.86l-11.32,1.75-9.27,38.76c-.54,2.29-.82,4.44-.84,6.46-.03,2.02.39,3.81,1.24,5.37.85,1.56,2.26,2.79,4.23,3.69,1.97.9,4.68,1.35,8.14,1.35l2.19-8.98c-1.27-.1-2.25-.32-2.96-.66-.71-.34-1.2-.79-1.5-1.35-.29-.56-.43-1.2-.4-1.93.02-.73.13-1.53.33-2.41l10.15-42.05Z"/>
  <path class="st0" d="M14.6,184.41c-.81-2.57-.45-5.85,1.06-9.84.51-1.34,1.05-2.52,1.62-3.54.57-1.02,1.13-1.9,1.68-2.64.55-.74,1.07-1.36,1.55-1.86.49-.5.93-.91,1.31-1.23l4.69,3.97c-.84.72-1.7,1.66-2.6,2.84-.9,1.18-1.71,2.73-2.44,4.65-.36.96-.59,1.78-.66,2.47-.08.69-.05,1.27.08,1.75.13.48.36.87.68,1.16.32.29.72.52,1.18.7.99.37,1.99.22,3-.46,1.01-.68,2.32-2.02,3.94-4,.73-.86,1.5-1.7,2.33-2.52.83-.82,1.73-1.49,2.71-2.02.98-.53,2.06-.85,3.22-.98,1.16-.13,2.44.08,3.84.61s2.56,1.27,3.48,2.22c.92.95,1.59,2.05,2.02,3.31.42,1.26.58,2.65.49,4.18-.1,1.53-.47,3.15-1.12,4.87-.77,2.04-1.66,3.72-2.66,5.04-1,1.32-1.94,2.36-2.83,3.12l-4.63-4c.76-.68,1.5-1.47,2.23-2.38.73-.91,1.37-2.09,1.92-3.55.62-1.63.84-2.89.66-3.77-.18-.89-.74-1.5-1.67-1.86-.55-.21-1.07-.25-1.55-.14-.48.12-.96.36-1.45.73-.49.36-.98.81-1.46,1.35-.49.53-1,1.13-1.55,1.79-1.18,1.35-2.27,2.5-3.28,3.45-1.01.95-2.04,1.67-3.09,2.15-1.05.48-2.16.72-3.32.72-1.16,0-2.47-.29-3.93-.84-2.82-1.07-4.64-2.89-5.45-5.46ZM29.74,221.52l6.03,1.51,6.52-26.02-6.03-1.51-2.38,9.47-25.38-6.35-1.77,7.07,25.38,6.35-2.38,9.47ZM3.75,243.83c1.01,1.21,2.27,2.16,3.79,2.87,1.52.7,3.22,1.16,5.11,1.37l20.01,2.23.81-7.24-19.41-2.16c-2.6-.29-4.38-1.04-5.34-2.26-.96-1.22-1.34-2.71-1.14-4.48.1-.87.31-1.65.64-2.35.33-.7.81-1.27,1.44-1.72.63-.45,1.42-.77,2.36-.96.95-.19,2.07-.22,3.37-.07l19.41,2.16.81-7.24-20.01-2.23c-1.89-.21-3.64-.15-5.26.19-1.62.34-3.05.98-4.3,1.92-1.25.94-2.28,2.2-3.1,3.77-.82,1.57-1.35,3.48-1.61,5.74-.26,2.29-.17,4.31.26,6.05.43,1.74,1.15,3.22,2.16,4.43ZM4.7,278.32c-1.44-1.55-2.54-3.46-3.32-5.73-.78-2.28-1.23-4.84-1.34-7.71-.05-1.31-.06-2.83-.02-4.58.04-1.75.19-3.47.47-5.16l31.51-1.29c.38,1.67.66,3.41.84,5.23.18,1.82.3,3.38.35,4.69.11,2.77-.1,5.29-.63,7.58-.53,2.28-1.43,4.26-2.71,5.93-1.27,1.67-2.93,2.99-4.98,3.95-2.05.96-4.54,1.49-7.46,1.61-2.8.12-5.26-.22-7.38-1.01-2.12-.79-3.9-1.95-5.33-3.5ZM6.27,263.39c0,.45.02.99.04,1.61.15,3.64,1.17,6.3,3.08,7.99,1.91,1.68,4.48,2.46,7.72,2.33,3.39-.14,5.93-1.08,7.6-2.84,1.67-1.75,2.44-4.45,2.29-8.09-.02-.5-.05-1.01-.09-1.54-.04-.53-.1-1.02-.18-1.49l-20.45.84c-.02.34-.02.74-.02,1.19ZM9.38,296.6l7.69-1.31,2.17,12.76,5.9-1.01-2.17-12.76,6.26-1.07,2.44,14.37,6.03-1.03-3.67-21.55-31.92,5.45,3.85,22.61,6.03-1.03-2.62-15.43ZM44.51,329.27l-18.21,5.79c1.26-1.58,2.57-3.25,3.92-5.02,1.35-1.77,2.64-3.53,3.87-5.27,1.23-1.75,2.36-3.44,3.41-5.08,1.05-1.64,1.91-3.11,2.58-4.4l-1.79-5.65-30.86,9.81,2.18,6.86,20.22-6.43c-2.23,3.58-4.7,7.08-7.41,10.49-2.71,3.41-5.51,6.67-8.42,9.78l1.85,5.83,30.86-9.81-2.19-6.9ZM35.24,370.98c-.41-.35-.84-.79-1.28-1.3-.44-.51-.9-1.12-1.38-1.82-.48-.7-.95-1.53-1.41-2.48-.73-1.51-1.11-2.92-1.14-4.23-.03-1.3.22-2.49.75-3.55.52-1.07,1.29-2.03,2.32-2.89,1.02-.86,2.2-1.61,3.55-2.27,1.68-.81,3.22-1.28,4.62-1.41,1.4-.12,2.64,0,3.75.39,1.1.38,2.06.98,2.86,1.78.81.8,1.45,1.71,1.94,2.72.73,1.51,1.22,2.95,1.46,4.3.24,1.35.34,2.59.3,3.72l6.21-.68c.03-.29.05-.75.06-1.38,0-.63-.05-1.38-.18-2.25-.13-.87-.35-1.86-.65-2.95-.31-1.1-.76-2.26-1.36-3.5-1.03-2.13-2.32-3.94-3.88-5.44-1.55-1.5-3.3-2.59-5.24-3.27-1.94-.69-4.04-.95-6.3-.79s-4.59.82-7,1.99c-4.85,2.35-7.99,5.4-9.43,9.16-1.43,3.76-1.01,8,1.29,12.74,1.07,2.21,2.24,4.05,3.5,5.52,1.26,1.47,2.4,2.52,3.41,3.18l4.38-4.35c-.35-.28-.72-.6-1.14-.95ZM55.31,383.42c3.41.69,6.73,1.3,9.98,1.82,3.25.52,6.58.97,9.98,1.35l-4.78-7.21c-2.44-.34-5.1-.72-7.96-1.14-2.86-.42-5.63-.87-8.3-1.34l10.14-6.73-4.03-6.07-26.98,17.92,4.03,6.07,11.43-7.59c-.11,1.42-.33,2.91-.65,4.48-.33,1.57-.73,3.12-1.19,4.67-.47,1.55-.96,3.03-1.49,4.45-.53,1.42-1.05,2.69-1.56,3.82l4.79,7.22c1.75-3.83,3.19-7.56,4.33-11.21,1.14-3.64,1.89-7.15,2.26-10.5ZM85.12,407.92c-1.06,2.34-2.21,4.78-3.45,7.31-1.24,2.53-2.6,5.19-4.06,7.99-1.47,2.79-3.09,5.81-4.86,9.06l-5.22-5.8c.59-1.02,1.19-2.08,1.8-3.18.6-1.1,1.2-2.2,1.8-3.29l-8.46-9.39c-1.15.49-2.31.98-3.46,1.46-1.16.49-2.27.98-3.34,1.46l-5.07-5.62c3.41-1.43,6.58-2.73,9.51-3.9,2.93-1.17,5.72-2.24,8.36-3.22,2.64-.98,5.18-1.87,7.61-2.69,2.43-.82,4.84-1.58,7.24-2.27l4.62,5.13c-.95,2.29-1.96,4.61-3.02,6.95ZM80.27,403.2c-.46.19-1.09.45-1.9.75-.81.31-1.74.67-2.8,1.08-1.06.41-2.22.86-3.5,1.35-1.28.49-2.61,1.01-3.99,1.57l6.2,6.88c.71-1.31,1.39-2.56,2.03-3.76s1.21-2.31,1.72-3.33c.51-1.02.96-1.92,1.35-2.69.39-.78.69-1.39.9-1.84ZM117.44,426.99c-.51,2.43-1.06,4.89-1.66,7.39-.6,2.5-1.27,5.11-2.01,7.83-.75,2.72-1.58,5.59-2.49,8.61-.92,3.02-1.94,6.29-3.07,9.81l-6.22-4.71c.39-1.11.78-2.27,1.17-3.46.39-1.2.77-2.39,1.15-3.57l-10.08-7.63c-1.04.69-2.08,1.39-3.12,2.09-1.04.7-2.05,1.39-3,2.06l-6.03-4.57c3.08-2.04,5.95-3.92,8.61-5.62,2.66-1.7,5.2-3.27,7.61-4.73,2.42-1.45,4.74-2.81,6.97-4.07,2.23-1.26,4.46-2.46,6.69-3.58l5.5,4.17ZM110.13,430.66c-.41.28-.99.64-1.73,1.1-.74.46-1.59.99-2.55,1.59-.96.6-2.02,1.27-3.19,1.98-1.16.72-2.37,1.48-3.62,2.29l7.38,5.59c.45-1.42.88-2.78,1.28-4.08.4-1.3.76-2.5,1.07-3.6.31-1.1.58-2.06.82-2.9.24-.84.42-1.49.54-1.98ZM136.53,456.89l-5.5,9.83c-.43-.13-.9-.32-1.42-.58-.52-.25-1.13-.58-1.84-.97-1.3-.73-2.32-1.59-3.05-2.59-.73-1-1.19-2.08-1.39-3.26-.2-1.18-.14-2.43.16-3.74s.84-2.66,1.62-4.05c1.6-2.85,3.51-4.74,5.75-5.64,2.24-.91,4.84-.54,7.8,1.12,1.33.74,2.47,1.6,3.41,2.57.94.97,1.71,1.93,2.32,2.88l4.69-4.07c-.14-.26-.4-.65-.76-1.17-.37-.53-.87-1.12-1.52-1.78-.65-.66-1.46-1.38-2.43-2.16-.98-.78-2.13-1.54-3.46-2.28-1.96-1.09-3.98-1.8-6.07-2.11s-4.13-.19-6.11.36c-1.98.55-3.85,1.53-5.61,2.94-1.75,1.41-3.29,3.3-4.61,5.67-1.31,2.34-2.14,4.6-2.49,6.8-.35,2.19-.27,4.26.26,6.19.52,1.93,1.47,3.71,2.83,5.33,1.36,1.62,3.1,3.02,5.22,4.2,2.47,1.38,4.65,2.37,6.52,2.98,1.88.6,3.28.97,4.21,1.09l7.82-13.99-6.36-3.55ZM158.14,456.82l13.55,5.36,2.25-5.69-20.33-8.04-11.92,30.11,21.33,8.44,2.25-5.69-14.55-5.76,2.87-7.26,12.03,4.76,2.2-5.56-12.03-4.76,2.34-5.91ZM192.38,481.02c-.69-1.9-1.45-3.88-2.26-5.96-.81-2.07-1.65-4.08-2.5-6.04-.86-1.95-1.71-3.8-2.57-5.55-.86-1.75-1.67-3.24-2.42-4.48l-5.77-1.4-7.64,31.47,6.99,1.69,5-20.62c1.91,3.76,3.62,7.69,5.12,11.77,1.51,4.08,2.84,8.17,3.99,12.27l5.95,1.44,7.64-31.47-7.04-1.7-4.51,18.57ZM213.82,476.51c.62-1.26,1.38-2.25,2.28-3,.9-.74,1.9-1.25,3.01-1.52,1.11-.27,2.22-.35,3.33-.25,1.67.16,3.15.49,4.44.98,1.28.5,2.39,1.06,3.34,1.68l2.65-5.66c-.23-.18-.62-.43-1.15-.76-.53-.33-1.2-.67-2.02-1.01-.81-.34-1.77-.67-2.86-.98-1.1-.31-2.33-.52-3.69-.65-2.36-.22-4.58-.06-6.66.49-2.09.55-3.93,1.48-5.52,2.79-1.6,1.3-2.91,2.96-3.95,4.98-1.04,2.01-1.68,4.36-1.94,7.02-.51,5.37.47,9.63,2.93,12.81,2.47,3.18,6.32,5.01,11.56,5.51,2.45.23,4.63.19,6.54-.13,1.91-.32,3.4-.74,4.49-1.27l-1.45-6c-.42.15-.89.31-1.41.48-.52.17-1.11.31-1.78.42s-1.43.19-2.27.23c-.85.05-1.8.02-2.85-.08-1.67-.16-3.08-.56-4.2-1.22-1.13-.65-2.01-1.48-2.65-2.48-.64-1-1.06-2.16-1.26-3.48-.2-1.32-.23-2.72-.09-4.21.18-1.86.58-3.42,1.2-4.67ZM253.54,466.22l-7.28.3.85,21.1c.08,2.05-.25,3.53-.99,4.44-.74.9-2,1.39-3.78,1.46-1.21.05-2.34-.11-3.39-.47s-2.03-.79-2.95-1.28l-2.2,5.75c1.02.64,2.31,1.19,3.85,1.64,1.54.45,3.38.63,5.49.55,2.3-.09,4.2-.48,5.68-1.14,1.49-.67,2.65-1.54,3.5-2.62.84-1.08,1.42-2.33,1.72-3.74.3-1.41.42-2.92.36-4.5l-.87-21.48ZM286.22,484.88c1.52,2.76,3.14,5.78,4.86,9.05l-7.72,1.16c-.52-1.06-1.08-2.14-1.66-3.25-.58-1.11-1.17-2.22-1.75-3.32l-12.51,1.88c-.23,1.23-.46,2.46-.69,3.7-.23,1.23-.44,2.43-.62,3.59l-7.49,1.12c.69-3.63,1.36-6.99,2-10.08.64-3.09,1.29-6,1.94-8.75.65-2.74,1.3-5.35,1.96-7.83.66-2.48,1.36-4.9,2.11-7.29l6.83-1.02c1.38,2.06,2.76,4.18,4.13,6.35,1.37,2.17,2.77,4.47,4.19,6.91,1.42,2.43,2.9,5.03,4.42,7.79ZM277.39,483.04c-.7-1.31-1.37-2.57-2.02-3.77-.65-1.2-1.26-2.29-1.83-3.28-.57-.99-1.07-1.86-1.5-2.61s-.78-1.34-1.04-1.77c-.09.49-.23,1.16-.42,2-.19.85-.4,1.82-.64,2.93-.24,1.11-.51,2.33-.81,3.66-.3,1.33-.6,2.73-.9,4.19l9.16-1.37ZM318.97,464.84l-12.14,4.08-2.16-6.42,13.64-4.58-1.95-5.8-20.55,6.91,10.3,30.69,6.91-2.32-4.25-12.67,12.14-4.08-1.95-5.8ZM354.76,459.55c.2,2.25-.03,4.33-.68,6.24-.65,1.91-1.71,3.62-3.16,5.15-1.45,1.52-3.2,2.79-5.23,3.8-1.98.99-4.01,1.59-6.08,1.83s-4.08.04-6.03-.58c-1.94-.62-3.76-1.68-5.45-3.19-1.69-1.51-3.15-3.5-4.38-5.98-1.23-2.48-1.93-4.86-2.08-7.13-.16-2.27.11-4.38.8-6.32.69-1.94,1.74-3.67,3.17-5.18s3.1-2.74,5.02-3.7c1.98-.99,4.01-1.6,6.08-1.83,2.08-.23,4.09-.03,6.04.6,1.95.63,3.77,1.7,5.46,3.21,1.69,1.51,3.15,3.5,4.38,5.98,1.24,2.48,1.95,4.85,2.15,7.1ZM347.26,459.91c-.22-1.32-.68-2.69-1.39-4.11-.71-1.42-1.52-2.63-2.45-3.61-.92-.98-1.92-1.72-2.98-2.22-1.06-.5-2.19-.73-3.37-.7-1.18.03-2.38.35-3.58.94-1.23.61-2.2,1.38-2.92,2.32-.72.93-1.2,1.97-1.45,3.12-.25,1.15-.26,2.39-.03,3.72.23,1.33.69,2.69,1.38,4.09.71,1.42,1.52,2.62,2.44,3.59.92.97,1.91,1.7,2.97,2.2,1.06.5,2.18.73,3.35.71,1.17-.02,2.37-.34,3.6-.95,1.2-.6,2.17-1.36,2.91-2.28.74-.92,1.23-1.96,1.48-3.11.25-1.15.26-2.38.04-3.7ZM370.02,428.37l-3.5-5.13-22.15,15.13,3.5,5.13,8.07-5.51,14.75,21.6,6.02-4.11-14.75-21.6,8.06-5.51ZM404.51,420.63c.8,2.11,1.14,4.17,1.03,6.19s-.66,3.95-1.64,5.81c-.99,1.86-2.32,3.55-4.01,5.08-1.64,1.49-3.43,2.62-5.36,3.41-1.94.79-3.92,1.15-5.96,1.08-2.04-.07-4.07-.6-6.11-1.59-2.03-.99-3.98-2.52-5.84-4.57-1.86-2.05-3.17-4.15-3.94-6.29-.76-2.14-1.08-4.24-.95-6.3.14-2.05.68-4,1.65-5.84.96-1.84,2.24-3.48,3.83-4.92,1.64-1.49,3.43-2.62,5.36-3.41,1.94-.79,3.93-1.14,5.97-1.06,2.05.08,4.09.61,6.12,1.61,2.04.99,3.98,2.52,5.84,4.57,1.86,2.05,3.19,4.14,3.99,6.25ZM398.36,426.58c-.07-1.17-.4-2.36-.96-3.57s-1.39-2.4-2.45-3.58-2.18-2.11-3.33-2.81c-1.16-.7-2.31-1.14-3.47-1.33-1.16-.19-2.3-.11-3.44.25-1.13.35-2.19.98-3.19,1.88-1.02.92-1.74,1.93-2.18,3.02-.44,1.09-.62,2.22-.55,3.4.08,1.17.4,2.37.98,3.59.58,1.22,1.39,2.41,2.44,3.56,1.07,1.18,2.17,2.11,3.32,2.79,1.15.68,2.3,1.12,3.46,1.31,1.16.19,2.3.11,3.42-.23,1.12-.34,2.19-.97,3.2-1.89.99-.9,1.72-1.9,2.18-2.99.46-1.09.66-2.22.58-3.4ZM414.97,395.45l8.73,7.11c-.2.4-.47.83-.81,1.29-.34.47-.77,1.01-1.28,1.64-.95,1.16-1.97,2.01-3.08,2.56-1.11.54-2.26.81-3.46.8-1.2-.01-2.41-.28-3.65-.81-1.24-.53-2.47-1.29-3.7-2.29-2.54-2.06-4.05-4.28-4.56-6.64-.5-2.36.31-4.86,2.46-7.49.96-1.18,2.01-2.15,3.12-2.91,1.12-.76,2.2-1.35,3.24-1.79l-3.2-5.32c-.28.1-.71.28-1.29.55-.58.27-1.25.67-2.02,1.19-.77.52-1.62,1.2-2.55,2.02-.93.83-1.88,1.83-2.85,3.01-1.42,1.74-2.46,3.61-3.13,5.62-.67,2.01-.91,4.03-.71,6.08.2,2.05.84,4.06,1.93,6.03,1.09,1.97,2.68,3.81,4.78,5.52,2.08,1.69,4.16,2.9,6.26,3.63,2.1.73,4.15,1,6.14.82,2-.18,3.91-.8,5.74-1.87,1.83-1.06,3.51-2.53,5.05-4.42,1.79-2.2,3.15-4.17,4.06-5.91.92-1.74,1.52-3.06,1.81-3.95l-12.42-10.12-4.61,5.65ZM447.03,371.08c1.39.08,2.74.19,4.04.32l-4.23,6.97c-1.21-.04-2.45-.08-3.69-.13-1.25-.04-2.48-.06-3.69-.04-1.21.01-2.37.05-3.48.11-1.11.06-2.15.16-3.11.31l-1.87,3.08,10.1,6.13-3.78,6.23-27.27-16.55c.56-1.52,1.22-3.04,2-4.55.78-1.52,1.51-2.85,2.21-3.99,2.52-4.15,5.19-6.89,8.01-8.2,2.82-1.31,5.79-1.03,8.9.87,1.94,1.18,3.25,2.58,3.92,4.21.67,1.63.84,3.49.51,5.59,1.03-.14,2.18-.24,3.44-.32,1.26-.07,2.56-.11,3.9-.12s2.7.03,4.09.1ZM429.29,371.36c.03-1.37-.66-2.48-2.07-3.34-1.36-.82-2.63-.9-3.83-.22-1.19.68-2.4,2.01-3.61,4.01-.27.45-.51.87-.7,1.24-.19.37-.37.73-.54,1.07l7.51,4.56,1.07-1.76c1.42-2.34,2.15-4.2,2.18-5.57ZM455.55,336.93c3.15.14,6.57.32,10.26.54l-3.03,7.2c-1.18-.1-2.39-.19-3.64-.27-1.25-.08-2.5-.15-3.75-.23l-4.9,11.66c.93.83,1.86,1.67,2.8,2.51.93.84,1.85,1.64,2.74,2.4l-2.93,6.98c-2.74-2.47-5.27-4.79-7.57-6.94-2.3-2.15-4.46-4.22-6.46-6.2s-3.9-3.89-5.67-5.74c-1.77-1.85-3.48-3.71-5.13-5.59l2.68-6.37c2.48-.11,5-.19,7.57-.23,2.57-.04,5.26-.04,8.08,0,2.82.05,5.8.14,8.96.27ZM449.38,343.52c-1.49-.09-2.91-.16-4.27-.23-1.36-.07-2.61-.11-3.75-.14-1.14-.02-2.14-.05-3.01-.07-.87-.02-1.55-.03-2.05-.03.37.33.87.8,1.49,1.4.62.6,1.35,1.29,2.17,2.07.82.78,1.73,1.65,2.71,2.59.98.95,2.02,1.93,3.11,2.94l3.59-8.54ZM459.48,309.52l-5.9-1.61-3.37,12.35-6.54-1.78,3.79-13.88-5.91-1.61-5.71,20.92,31.24,8.5,1.92-7.03-12.89-3.51,3.37-12.35ZM441.73,300.57l31.86,5.72,1.29-7.17-31.86-5.72-1.29,7.17ZM476.6,265.81l-5.99,1.52c.15.42.32.89.49,1.4.18.51.32,1.1.44,1.77.12.66.2,1.42.26,2.27s.04,1.8-.05,2.86c-.14,1.68-.53,3.08-1.17,4.22s-1.46,2.03-2.45,2.68c-.99.65-2.15,1.09-3.46,1.31-1.31.22-2.72.27-4.21.15-1.86-.15-3.42-.53-4.69-1.14-1.26-.6-2.27-1.35-3.03-2.24-.75-.89-1.28-1.89-1.56-2.99-.28-1.1-.38-2.21-.29-3.33.14-1.68.45-3.16.93-4.45.48-1.29,1.03-2.41,1.64-3.36l-5.69-2.58c-.18.24-.43.62-.75,1.16-.33.54-.66,1.21-.99,2.03-.33.82-.65,1.78-.94,2.88-.29,1.1-.5,2.33-.61,3.7-.2,2.36,0,4.58.57,6.66.58,2.08,1.53,3.91,2.85,5.48,1.32,1.58,3,2.87,5.02,3.88,2.03,1.01,4.37,1.63,7.04,1.84,5.37.44,9.63-.59,12.77-3.1,3.15-2.51,4.93-6.38,5.37-11.63.2-2.45.13-4.63-.21-6.53s-.78-3.39-1.32-4.47ZM471.81,252.93c-1.92-1.03-3.94-2.22-6.06-3.55-2.12-1.34-4.18-2.69-6.18-4.06-2-1.37-3.84-2.71-5.54-4-1.7-1.29-3.08-2.41-4.15-3.36l-5.04.24,1.12,24.18,6.11-.29-.67-14.51c1.52,1.14,3.24,2.38,5.15,3.71,1.92,1.33,3.89,2.63,5.93,3.91,2.04,1.28,4.06,2.5,6.06,3.67,2,1.17,3.82,2.15,5.45,2.95l4.34-.2-1.18-25.44-6.11.29.76,16.48ZM440.92,215.58l18.79-3.5c-1.45,1.41-2.95,2.91-4.51,4.5-1.56,1.59-3.05,3.17-4.49,4.76-1.43,1.58-2.77,3.12-4.01,4.62-1.24,1.5-2.28,2.85-3.1,4.05l1.08,5.83,31.83-5.93-1.31-7.07-20.85,3.89c2.65-3.28,5.53-6.45,8.64-9.5,3.11-3.05,6.29-5.94,9.56-8.67l-1.12-6.02-31.83,5.93,1.32,7.12ZM464.03,189.93c1.26,0,2.47-.02,3.64-.05l2.49,7.15c-3.7,0-7.12-.03-10.27-.09-3.15-.06-6.14-.15-8.95-.28-2.81-.13-5.5-.28-8.05-.47-2.55-.19-5.07-.42-7.55-.72l-2.27-6.52c1.77-1.74,3.59-3.49,5.47-5.24,1.88-1.75,3.89-3.55,6.01-5.4,2.13-1.85,4.41-3.78,6.84-5.79,2.44-2.01,5.1-4.16,7.99-6.46l2.57,7.37c-.94.71-1.91,1.46-2.89,2.24-.98.78-1.96,1.56-2.94,2.34l4.16,11.94c1.25,0,2.5,0,3.76,0ZM454.26,190.28l-3.04-8.74c-1.16.93-2.27,1.83-3.33,2.68-1.06.86-2.01,1.66-2.88,2.41-.86.74-1.63,1.4-2.29,1.96-.66.56-1.17,1.01-1.55,1.35.5,0,1.18.01,2.05.04.87.03,1.87.06,3,.09,1.13.03,2.38.07,3.75.11,1.37.05,2.79.08,4.29.1ZM73.59,133.14c.35,2.48-.7,5.17-3.15,8.07-1.68,1.98-3.56,3.54-5.65,4.65-2.08,1.12-4.19,2.05-6.3,2.79l5.91,11.82c2.5-.68,5.23-1.91,8.18-3.69,2.95-1.78,5.89-4.4,8.82-7.86,3.19-3.77,5.33-7.3,6.42-10.62,1.09-3.31,1.4-6.42.91-9.31-.48-2.9-1.63-5.61-3.43-8.14-1.8-2.53-4.01-4.9-6.61-7.1l-35.25-29.83-10.08,11.91,34.64,29.32c3.37,2.85,5.23,5.52,5.59,8ZM92.57,62.12c-.79-5.44-1.44-10.83-1.97-16.16l12.61-7.73c4.46,2.92,8.95,5.95,13.48,9.11,4.53,3.15,9.21,6.54,14.07,10.16,4.85,3.62,9.94,7.53,15.26,11.72,5.32,4.2,11.06,8.81,17.2,13.83l-14.24,8.73c-1.92-1.66-3.93-3.34-6.01-5.05-2.09-1.71-4.17-3.41-6.24-5.1l-23.07,14.15c.58,2.62,1.16,5.25,1.75,7.88.58,2.63,1.18,5.17,1.79,7.62l-13.81,8.47c-1.69-7.75-3.21-14.95-4.53-21.6-1.33-6.64-2.51-12.95-3.54-18.91-1.03-5.96-1.94-11.67-2.73-17.11ZM104.86,55.7c.23,1.04.52,2.48.85,4.31.34,1.83.74,3.95,1.2,6.34.46,2.39.96,5.03,1.49,7.92.53,2.89,1.12,5.9,1.76,9.04l16.89-10.36c-2.48-2.02-4.86-3.94-7.15-5.76-2.28-1.82-4.4-3.47-6.36-4.95-1.95-1.48-3.67-2.78-5.16-3.91-1.48-1.13-2.66-2-3.53-2.63ZM170.4,42.53c.4,6.19.84,12.4,1.32,18.61.47,6.22.95,12.06,1.43,17.54l15.06-2.05c-.71-6.72-1.44-14.05-2.18-21.99-.74-7.94-1.33-15.96-1.76-24.08,1.57,2.62,3.32,5.53,5.23,8.71,1.92,3.18,3.82,6.37,5.7,9.56,1.88,3.19,3.7,6.23,5.44,9.14,1.74,2.9,3.23,5.39,4.46,7.45l10.8-1.47c.63-2.31,1.4-5.1,2.3-8.37.91-3.26,1.84-6.68,2.81-10.26.96-3.58,1.95-7.15,2.94-10.73,1-3.58,1.9-6.84,2.72-9.79,1.75,7.94,3.33,15.83,4.73,23.67,1.4,7.85,2.66,15.11,3.77,21.78l15.06-2.05c-1.01-5.4-2.11-11.16-3.31-17.28-1.2-6.12-2.44-12.21-3.7-18.29-1.26-6.07-2.56-11.91-3.89-17.5-1.33-5.59-2.64-10.63-3.92-15.12l-14.07,1.91c-.9,2.35-1.9,5.24-3.02,8.67-1.12,3.43-2.27,7.13-3.45,11.11-1.18,3.98-2.33,8.03-3.45,12.17-1.12,4.14-2.18,8.03-3.17,11.68-1.93-3.25-3.98-6.72-6.17-10.41-2.19-3.69-4.38-7.29-6.58-10.81-2.2-3.52-4.29-6.78-6.29-9.78-2-3-3.74-5.52-5.23-7.55l-14.76,2.01c-.04,4.67.05,9.87.26,15.62.21,5.75.52,11.72.92,17.91ZM312.32,84.41l12.57,3.68,19.53-66.77-14.88-4.35-11.53,39.41c-1.29-4.14-2.7-8.48-4.22-13-1.53-4.53-3.1-8.93-4.73-13.2-1.63-4.28-3.28-8.33-4.93-12.16-1.66-3.83-3.23-7.12-4.72-9.85l-12.19-3.57-19.53,66.77,14.78,4.32,12.79-43.74c3.69,8.26,6.95,16.85,9.76,25.76,2.81,8.91,5.24,17.82,7.29,26.71ZM355.99,108.33l37.81-58.4-13.09-8.48-37.81,58.4,13.09,8.48ZM384.3,132.16l22.04-19.56c.19,3.05.17,6.28-.07,9.71-.24,3.43-.62,6.85-1.16,10.27-.54,3.42-1.16,6.71-1.86,9.89-.7,3.17-1.43,6.03-2.2,8.59l12.31,13.87c2.59-8.65,4.56-17.02,5.9-25.1s1.92-15.74,1.71-22.96c7.44.45,14.69.73,21.75.84,7.06.12,14.26.07,21.61-.15l-12.29-13.85c-5.29.01-11.04,0-17.24-.03-6.2-.03-12.21-.14-18.04-.34l19.56-17.35-10.35-11.67-52.04,46.17,10.35,11.67Z"/>
</svg>