<?xml version="1.0" encoding="UTF-8"?>
<svg id="Warstwa_1" xmlns="http://www.w3.org/2000/svg" version="1.1" viewBox="0 0 478.34 499.72">
  <!-- Generator: Adobe Illustrator 30.5.1, SVG Export Plug-In . SVG Version: 2.1.4 Build 3)  -->
  <path d="M70.21,318.99c.54-1.16,1.07-2.33,1.61-3.49-3.44-10.98-5.7-22.29-6.67-33.69,1.93,10.26,4.75,20.3,8.37,29.99,4.18-9.08,8.37-18.15,12.54-27.23,8.16,5.05,23.13,12.48,42.35,12.06,10.75-.24,26.77-.6,35.68-12.69,4.8-6.52,7.92-16.96,4.44-25.85-6.79-17.33-35.28-20.11-50.27-21.57-7.59-.74-14-.6-18.56-.32,10.89-34.04,21.78-68.09,32.67-102.13h102.24c-2.68,11.42-5.36,22.84-8.04,34.26h-68.83c-4.07,12.84-8.14,25.69-12.21,38.53,3.75-.09,29.2-.37,47.36,17.63-8.65,14.59-13.62,31.61-13.62,49.78,0,14.44,3.14,28.15,8.77,40.5-29.69,24.95-81.05,14.93-89.61,13.26-8.05-1.57-15-3.75-20.67-5.9,7.64,17.12,17.87,32.97,30.31,46.81,68.09,76.48,189.31,79.6,262.1,7.52-36.3,43.64-96.1,65.63-152.44,58.37-44.1-5.33-86-27.52-114.38-61.8-13.09-15.58-23.28-33.55-29.92-52.62-1.15-.48-2.23-.96-3.23-1.41ZM196.92,226.49c2.84,4.94,6.14,9.55,9.82,13.81-1.54.02-2.9.43-4.02,1.58-2.97-3.54-5.68-7.29-8.11-11.27-6.9,13.03-10.83,27.89-10.83,43.66,0,7.94,1.01,15.64,2.87,23,16.38,4.41,33.54,3.97,49.75-.89-2.28-1.52-4.66-2.89-7.12-4.05-3.2-1.51-6.57-2.73-9.6-4.58-2.95-1.8-5.44-4.31-7.74-6.87-1.63-1.79-3.1-3.69-4.42-5.71,1.31,1.07,2.72,2.1,4.21,3.1,3.51,2.37,10.33,6.88,20.24,8.88,9.61,1.93,17.92.32,18.21.23-9.42,1.02-16.38-.69-20.48-2.1-9.16-3.14-17.89-9.63-22.58-14.35-.61-.62-1.89-1.94-3.77-3.68-.09-.21-.18-.42-.26-.63-.67-1.7-1.23-3.44-1.66-5.21-.57-2.35-1.29-5.94-1.39-9.51,1.38.74,3.12,1.39,5.15,1.65,1.23.15,3.76.45,6.63-.71,4.41-1.77,6.29-5.61,6.77-6.65.59-1.24.93-2.45,1.11-3.53,3.1.59,6.42,1.11,9.51,1.34,9.33.64,17.7.9,25.33.07-7.78-18.85-9.62-39.47-4.86-59.13-22.31,6.87-41.04,21.87-52.77,41.54ZM258.92,365.93c1.83-8.89,1.52-17.17.66-26.31-.2-2.08-.38-3.94-.55-5.64-7,9.09-15.57,16.88-25.46,22.92,7.86,4.16,16.37,7.25,25.35,9.03,0,0,0,0,0,0ZM255.98,319.12c-2.33-5.61-6.02-10.7-10.26-15.03-1.63-1.66-3.37-3.22-5.2-4.68-9.74,3.25-19.86,4.96-30,5.03-7.57.06-15.16-.82-22.6-2.61,6.87,22.3,21.86,41.05,41.52,52.77,11.53-6.64,21.3-15.73,28.85-26.53-.54-3.6-1.22-6.33-2.31-8.94ZM320.9,191.64c-13.03-6.9-27.89-10.83-43.66-10.83-7.94,0-15.64,1-23,2.86-5.33,19.76-3.59,40.67,4.45,59.66,5.33-1.81,8.48-5.1,14.34-7.19,4.11-1.39,6.89-2.11,10.89-2.41,7.96-17.44,20.69-32.14,36.98-42.09ZM281.96,256.67c.9,2.83.49,5.22.26,6.27-1.21.74-2.79,1.46-4.71,1.77-7.16,1.14-12.73-4.5-13.49-5.3.95-1.37,2.9-3.79,6.2-5.67,3.39-1.93,6.55-2.35,8.22-2.46.81.71,2.6,2.47,3.53,5.39ZM279.55,257.48c0-2.22-1.8-4.02-4.02-4.02s-4.02,1.8-4.02,4.02,1.8,4.02,4.02,4.02,4.02-1.8,4.02-4.02ZM365.79,244.43c-7.17-21.29-21.79-39.15-40.77-50.48-15.93,9.17-28.49,23.03-36.49,39.61.58,0,1.17,0,1.81,0,12.88-.04,28.09,3.62,39.41,11.73,11.47-1.81,23.18-1.55,34.6.92l-2.93,3.61c-9.04-1.73-18.24-2.05-27.33-.99,5.76,5.28,9.99,12.03,11.6,20.38l-52.98,65.3c-5.43-6.34-7.77-15.02-2.97-22.66,4.07-6.43,10.83-10.12,16.34-15.29,2.88-2.66,5.36-5.81,7.25-9.21,3.76-6.85,5.5-14.67,5.15-22.31-.44,7.55-2.49,15.09-6.63,21.43-5.91,10.31-18.12,13.93-24.72,23.74-5.97,9.1-3.24,19.57,3.35,27.04l-51.05,62.92,124.81-137.18,18.4-39.33-16.85,20.76ZM400.58,188.91c-26.5-61.21-88.6-101.63-154.94-103.71-3.65-.03-9.1-.3-12.7.02,0,0-6.34.32-6.34.32-3.73.13-8.83,1-12.62,1.33-3.62.5-8.81,1.57-12.48,2.22-1.95.49-7.34,1.9-9.21,2.36-33.24,9.15-64,28.73-85.7,55.51,68.96-70.16,182.53-72.77,253.9-5.14,26.82,25.25,45.38,58.71,52.8,95.35-1.59-16.54-6.03-32.87-12.71-48.25ZM336.3,314.86l-11.32,1.75-9.27,38.76c-.54,2.29-.82,4.44-.84,6.46-.03,2.02.39,3.81,1.24,5.37.85,1.56,2.26,2.79,4.23,3.69,1.97.9,4.68,1.35,8.14,1.35l2.19-8.98c-1.27-.1-2.25-.32-2.96-.66-.71-.34-1.2-.79-1.5-1.35-.29-.56-.43-1.2-.4-1.93.02-.73.13-1.53.33-2.41l10.15-42.05ZM370.1,354.94c-.68,2.77-.88,5.56-.58,8.36.29,2.8.85,5.29,1.68,7.48l-9.71,1.39c-.29-.58-.56-1.14-.8-1.68-.24-.53-.49-1.14-.73-1.82-1.36,1.12-2.87,2.04-4.53,2.77-1.66.73-3.5,1.1-5.55,1.1-2.43,0-4.51-.43-6.24-1.28-1.73-.85-3.14-1.99-4.23-3.43-1.09-1.43-1.89-3.11-2.37-5.04-.49-1.92-.73-3.98-.73-6.17,0-3.36.6-6.52,1.79-9.49,1.19-2.97,2.85-5.56,4.96-7.77,2.12-2.21,4.61-3.95,7.48-5.22,2.87-1.26,5.99-1.9,9.34-1.9.44,0,1.21.03,2.3.07,1.09.05,2.35.16,3.76.33,1.41.17,2.89.45,4.45.84,1.56.39,3.04.92,4.45,1.61l-4.75,19.86ZM362.51,341.5c-.63-.1-1.2-.17-1.72-.22-.51-.05-1.13-.07-1.86-.07-1.65,0-3.2.41-4.63,1.24-1.44.83-2.69,1.91-3.76,3.25-1.07,1.34-1.91,2.88-2.52,4.64-.61,1.75-.91,3.58-.91,5.47,0,2.34.39,4.19,1.17,5.55.78,1.36,2.21,2.04,4.31,2.04,1.12,0,2.13-.22,3.03-.66.9-.44,1.86-1.17,2.88-2.19.1-1.22.25-2.49.47-3.83.22-1.34.45-2.57.69-3.69l2.85-11.53ZM390.17,355.45l3.21-13.43h12.04l2.19-8.91h-12.12l2.77-11.31-11.32,1.75-7.15,30.22c-.58,2.48-.92,4.84-1.02,7.08-.1,2.24.24,4.22,1.02,5.95.78,1.73,2.09,3.09,3.94,4.09,1.85,1,4.45,1.5,7.81,1.5,2.34,0,4.35-.2,6.06-.58,1.7-.39,3.29-.85,4.75-1.39l-.8-8.32c-1.12.39-2.23.69-3.32.91-1.09.22-2.23.33-3.39.33-1.36,0-2.43-.19-3.21-.58s-1.33-.94-1.64-1.64c-.32-.71-.44-1.54-.36-2.52.07-.97.25-2.02.55-3.14Z"/>
  <g>
    <path d="M20.05,189.87c1.46.55,2.77.83,3.93.84,1.16,0,2.27-.23,3.32-.72,1.05-.49,2.08-1.2,3.09-2.15,1.01-.95,2.1-2.1,3.28-3.45.55-.66,1.07-1.25,1.55-1.79.48-.53.97-.98,1.46-1.35.49-.37.97-.61,1.45-.73.48-.12.99-.07,1.55.14.93.35,1.49.97,1.67,1.86.18.88-.04,2.14-.66,3.77-.55,1.46-1.19,2.64-1.92,3.55-.73.91-1.47,1.7-2.23,2.38l4.63,4c.89-.76,1.83-1.8,2.83-3.12,1-1.32,1.89-3,2.66-5.04.65-1.72,1.03-3.34,1.12-4.87.1-1.53-.07-2.92-.49-4.18-.42-1.26-1.09-2.36-2.02-3.31-.92-.95-2.08-1.69-3.48-2.22s-2.68-.73-3.84-.61c-1.16.13-2.24.45-3.22.98-.98.53-1.89,1.2-2.71,2.02-.83.82-1.6,1.66-2.33,2.52-1.62,1.99-2.93,3.32-3.94,4-1.01.68-2.01.84-3,.46-.47-.18-.86-.41-1.18-.7-.32-.29-.55-.68-.68-1.16-.13-.48-.16-1.07-.08-1.75.08-.69.3-1.51.66-2.47.73-1.92,1.54-3.47,2.44-4.65.9-1.18,1.76-2.12,2.6-2.84l-4.69-3.97c-.39.32-.83.73-1.31,1.23-.49.5-1.01,1.12-1.55,1.86-.55.74-1.11,1.62-1.68,2.64-.57,1.02-1.11,2.2-1.62,3.54-1.51,3.99-1.87,7.27-1.06,9.84.81,2.57,2.62,4.39,5.45,5.46Z"/>
    <polygon points="29.74 221.52 35.77 223.02 42.29 197.01 36.26 195.5 33.89 204.97 8.51 198.62 6.74 205.69 32.11 212.04 29.74 221.52"/>
    <path d="M3.75,243.83c1.01,1.21,2.27,2.16,3.79,2.87,1.52.7,3.22,1.16,5.11,1.37l20.01,2.23.81-7.24-19.41-2.16c-2.6-.29-4.38-1.04-5.34-2.26-.96-1.22-1.34-2.71-1.14-4.48.1-.87.31-1.65.64-2.35.33-.7.81-1.27,1.44-1.72.63-.45,1.42-.77,2.36-.96.95-.19,2.07-.22,3.37-.07l19.41,2.16.81-7.24-20.01-2.23c-1.89-.21-3.64-.15-5.26.19-1.62.34-3.05.98-4.3,1.92-1.25.94-2.28,2.2-3.1,3.77-.82,1.57-1.35,3.48-1.61,5.74-.26,2.29-.17,4.31.26,6.05.43,1.74,1.15,3.22,2.16,4.43Z"/>
    <path d="M10.04,281.82c2.12.78,4.58,1.12,7.38,1.01,2.92-.12,5.41-.66,7.46-1.61,2.05-.96,3.71-2.27,4.98-3.95,1.27-1.67,2.17-3.65,2.71-5.93.53-2.28.74-4.81.63-7.58-.05-1.31-.17-2.87-.35-4.69-.18-1.82-.46-3.56-.84-5.23l-31.51,1.29c-.27,1.69-.43,3.42-.47,5.16-.04,1.75-.03,3.27.02,4.58.12,2.86.56,5.43,1.34,7.71.78,2.28,1.88,4.19,3.32,5.73,1.43,1.55,3.21,2.71,5.33,3.5ZM6.3,262.2l20.45-.84c.08.46.14.96.18,1.49.04.53.07,1.04.09,1.54.15,3.64-.62,6.34-2.29,8.09-1.68,1.75-4.21,2.7-7.6,2.84-3.24.13-5.81-.64-7.72-2.33-1.91-1.68-2.93-4.34-3.08-7.99-.03-.62-.04-1.16-.04-1.61,0-.45,0-.85.02-1.19Z"/>
    <polygon points="9.38 296.6 17.08 295.29 19.25 308.05 25.14 307.04 22.97 294.28 29.24 293.21 31.68 307.58 37.71 306.55 34.05 285 2.13 290.45 5.97 313.06 12.01 312.03 9.38 296.6"/>
    <path d="M44.51,329.27l-18.21,5.79c1.26-1.58,2.57-3.25,3.92-5.02,1.35-1.77,2.64-3.53,3.87-5.27,1.23-1.75,2.36-3.44,3.41-5.08,1.05-1.64,1.91-3.11,2.58-4.4l-1.79-5.65-30.86,9.81,2.18,6.86,20.22-6.43c-2.23,3.58-4.7,7.08-7.41,10.49-2.71,3.41-5.51,6.67-8.42,9.78l1.85,5.83,30.86-9.81-2.19-6.9Z"/>
    <path d="M35.24,370.98c-.41-.35-.84-.79-1.28-1.3-.44-.51-.9-1.12-1.38-1.82-.48-.7-.95-1.53-1.41-2.48-.73-1.51-1.11-2.92-1.14-4.23-.03-1.3.22-2.49.75-3.55.52-1.07,1.29-2.03,2.32-2.89,1.02-.86,2.2-1.61,3.55-2.27,1.68-.81,3.22-1.28,4.62-1.41,1.4-.12,2.64,0,3.75.39,1.1.38,2.06.98,2.86,1.78.81.8,1.45,1.71,1.94,2.72.73,1.51,1.22,2.95,1.46,4.3.24,1.35.34,2.59.3,3.72l6.21-.68c.03-.29.05-.75.06-1.38,0-.63-.05-1.38-.18-2.25-.13-.87-.35-1.86-.65-2.95-.31-1.1-.76-2.26-1.36-3.5-1.03-2.13-2.32-3.94-3.88-5.44-1.55-1.5-3.3-2.59-5.24-3.27-1.94-.69-4.04-.95-6.3-.79s-4.59.82-7,1.99c-4.85,2.35-7.99,5.4-9.43,9.16-1.43,3.76-1.01,8,1.29,12.74,1.07,2.21,2.24,4.05,3.5,5.52,1.26,1.47,2.4,2.52,3.41,3.18l4.38-4.35c-.35-.28-.72-.6-1.14-.95Z"/>
    <path d="M55.31,383.42c3.41.69,6.73,1.3,9.98,1.82,3.25.52,6.58.97,9.98,1.35l-4.78-7.21c-2.44-.34-5.1-.72-7.96-1.14-2.86-.42-5.63-.87-8.3-1.34l10.14-6.73-4.03-6.07-26.98,17.92,4.03,6.07,11.43-7.59c-.11,1.42-.33,2.91-.65,4.48-.33,1.57-.73,3.12-1.19,4.67-.47,1.55-.96,3.03-1.49,4.45-.53,1.42-1.05,2.69-1.56,3.82l4.79,7.22c1.75-3.83,3.19-7.56,4.33-11.21,1.14-3.64,1.89-7.15,2.26-10.5Z"/>
    <path d="M88.13,400.96l-4.62-5.13c-2.4.69-4.81,1.45-7.24,2.27-2.43.82-4.96,1.72-7.61,2.69-2.65.97-5.43,2.05-8.36,3.22-2.93,1.17-6.1,2.47-9.51,3.9l5.07,5.62c1.07-.49,2.18-.97,3.34-1.46,1.16-.49,2.31-.98,3.46-1.46l8.46,9.39c-.6,1.09-1.2,2.19-1.8,3.29-.6,1.1-1.2,2.16-1.8,3.18l5.22,5.8c1.77-3.24,3.4-6.26,4.86-9.06,1.47-2.79,2.82-5.46,4.06-7.99,1.24-2.53,2.39-4.97,3.45-7.31,1.06-2.34,2.06-4.66,3.02-6.95ZM79.36,405.04c-.39.77-.84,1.67-1.35,2.69-.51,1.02-1.08,2.13-1.72,3.33s-1.32,2.46-2.03,3.76l-6.2-6.88c1.38-.56,2.71-1.08,3.99-1.57,1.28-.49,2.45-.94,3.5-1.35,1.06-.41,1.99-.78,2.8-1.08.81-.31,1.45-.56,1.9-.75-.21.45-.51,1.07-.9,1.84Z"/>
    <path d="M111.93,422.82c-2.23,1.13-4.46,2.32-6.69,3.58-2.23,1.26-4.55,2.62-6.97,4.07-2.41,1.45-4.95,3.03-7.61,4.73-2.66,1.7-5.53,3.57-8.61,5.62l6.03,4.57c.96-.68,1.96-1.36,3-2.06,1.04-.7,2.09-1.39,3.12-2.09l10.08,7.63c-.38,1.18-.77,2.38-1.15,3.57-.39,1.2-.78,2.35-1.17,3.46l6.22,4.71c1.13-3.52,2.16-6.79,3.07-9.81.91-3.02,1.74-5.89,2.49-8.61.75-2.72,1.42-5.33,2.01-7.83.6-2.5,1.15-4.96,1.66-7.39l-5.5-4.17ZM109.59,432.64c-.24.83-.51,1.8-.82,2.9-.31,1.1-.66,2.3-1.07,3.6-.4,1.3-.83,2.66-1.28,4.08l-7.38-5.59c1.25-.81,2.46-1.57,3.62-2.29,1.16-.72,2.23-1.38,3.19-1.98.96-.6,1.81-1.14,2.55-1.59.74-.46,1.31-.82,1.73-1.1-.12.48-.3,1.14-.54,1.98Z"/>
    <path d="M136.53,456.89l-5.5,9.83c-.43-.13-.9-.32-1.42-.58-.52-.25-1.13-.58-1.84-.97-1.3-.73-2.32-1.59-3.05-2.59-.73-1-1.19-2.08-1.39-3.26-.2-1.18-.14-2.43.16-3.74s.84-2.66,1.62-4.05c1.6-2.85,3.51-4.74,5.75-5.64,2.24-.91,4.84-.54,7.8,1.12,1.33.74,2.47,1.6,3.41,2.57.94.97,1.71,1.93,2.32,2.88l4.69-4.07c-.14-.26-.4-.65-.76-1.17-.37-.53-.87-1.12-1.52-1.78-.65-.66-1.46-1.38-2.43-2.16-.98-.78-2.13-1.54-3.46-2.28-1.96-1.09-3.98-1.8-6.07-2.11s-4.13-.19-6.11.36c-1.98.55-3.85,1.53-5.61,2.94-1.75,1.41-3.29,3.3-4.61,5.67-1.31,2.34-2.14,4.6-2.49,6.8-.35,2.19-.27,4.26.26,6.19.52,1.93,1.47,3.71,2.83,5.33,1.36,1.62,3.1,3.02,5.22,4.2,2.47,1.38,4.65,2.37,6.52,2.98,1.88.6,3.28.97,4.21,1.09l7.82-13.99-6.36-3.55Z"/>
    <polygon points="158.14 456.82 171.69 462.18 173.95 456.49 153.62 448.45 141.7 478.56 163.02 487 165.28 481.3 150.73 475.55 153.6 468.29 165.63 473.05 167.83 467.49 155.8 462.73 158.14 456.82"/>
    <path d="M192.38,481.02c-.69-1.9-1.45-3.88-2.26-5.96-.81-2.07-1.65-4.08-2.5-6.04-.86-1.95-1.71-3.8-2.57-5.55-.86-1.75-1.67-3.24-2.42-4.48l-5.77-1.4-7.64,31.47,6.99,1.69,5-20.62c1.91,3.76,3.62,7.69,5.12,11.77,1.51,4.08,2.84,8.17,3.99,12.27l5.95,1.44,7.64-31.47-7.04-1.7-4.51,18.57Z"/>
    <path d="M213.82,476.51c.62-1.26,1.38-2.25,2.28-3,.9-.74,1.9-1.25,3.01-1.52,1.11-.27,2.22-.35,3.33-.25,1.67.16,3.15.49,4.44.98,1.28.5,2.39,1.06,3.34,1.68l2.65-5.66c-.23-.18-.62-.43-1.15-.76-.53-.33-1.2-.67-2.02-1.01-.81-.34-1.77-.67-2.86-.98-1.1-.31-2.33-.52-3.69-.65-2.36-.22-4.58-.06-6.66.49-2.09.55-3.93,1.48-5.52,2.79-1.6,1.3-2.91,2.96-3.95,4.98-1.04,2.01-1.68,4.36-1.94,7.02-.51,5.37.47,9.63,2.93,12.81,2.47,3.18,6.32,5.01,11.56,5.51,2.45.23,4.63.19,6.54-.13,1.91-.32,3.4-.74,4.49-1.27l-1.45-6c-.42.15-.89.31-1.41.48-.52.17-1.11.31-1.78.42s-1.43.19-2.27.23c-.85.05-1.8.02-2.85-.08-1.67-.16-3.08-.56-4.2-1.22-1.13-.65-2.01-1.48-2.65-2.48-.64-1-1.06-2.16-1.26-3.48-.2-1.32-.23-2.72-.09-4.21.18-1.86.58-3.42,1.2-4.67Z"/>
    <path d="M253.54,466.22l-7.28.3.85,21.1c.08,2.05-.25,3.53-.99,4.44-.74.9-2,1.39-3.78,1.46-1.21.05-2.34-.11-3.39-.47s-2.03-.79-2.95-1.28l-2.2,5.75c1.02.64,2.31,1.19,3.85,1.64,1.54.45,3.38.63,5.49.55,2.3-.09,4.2-.48,5.68-1.14,1.49-.67,2.65-1.54,3.5-2.62.84-1.08,1.42-2.33,1.72-3.74.3-1.41.42-2.92.36-4.5l-.87-21.48Z"/>
    <path d="M281.8,477.09c-1.42-2.43-2.82-4.74-4.19-6.91-1.37-2.17-2.75-4.29-4.13-6.35l-6.83,1.02c-.75,2.38-1.45,4.81-2.11,7.29-.66,2.48-1.31,5.09-1.96,7.83-.65,2.74-1.29,5.66-1.94,8.75-.64,3.09-1.31,6.45-2,10.08l7.49-1.12c.19-1.16.39-2.35.62-3.59.23-1.23.46-2.47.69-3.7l12.51-1.88c.58,1.1,1.16,2.21,1.75,3.32.59,1.11,1.14,2.2,1.66,3.25l7.72-1.16c-1.72-3.27-3.34-6.29-4.86-9.05-1.52-2.76-2.99-5.36-4.42-7.79ZM268.23,484.42c.3-1.46.6-2.86.9-4.19.3-1.33.57-2.56.81-3.66.24-1.11.45-2.09.64-2.93.19-.85.33-1.51.42-2,.26.43.6,1.01,1.04,1.77s.93,1.62,1.5,2.61c.57.99,1.18,2.08,1.83,3.28.65,1.2,1.32,2.45,2.02,3.77l-9.16,1.37Z"/>
    <polygon points="318.97 464.84 306.83 468.92 304.68 462.5 318.32 457.91 316.37 452.11 295.82 459.02 306.12 489.71 313.03 487.38 308.78 474.72 320.92 470.64 318.97 464.84"/>
    <path d="M352.61,452.45c-1.23-2.48-2.69-4.48-4.38-5.98-1.69-1.51-3.51-2.58-5.46-3.21-1.95-.63-3.96-.83-6.04-.6-2.08.23-4.1.84-6.08,1.83-1.92.96-3.6,2.19-5.02,3.7s-2.48,3.24-3.17,5.18c-.69,1.94-.95,4.05-.8,6.32.15,2.27.85,4.65,2.08,7.13,1.23,2.48,2.7,4.48,4.38,5.98,1.69,1.51,3.5,2.57,5.45,3.19,1.94.62,3.95.81,6.03.58s4.1-.84,6.08-1.83c2.04-1.01,3.78-2.28,5.23-3.8,1.45-1.52,2.5-3.24,3.16-5.15.65-1.91.88-3.98.68-6.24-.2-2.25-.91-4.62-2.15-7.1ZM347.22,463.61c-.25,1.15-.74,2.19-1.48,3.11-.74.93-1.71,1.69-2.91,2.28-1.23.61-2.43.93-3.6.95-1.17.03-2.29-.21-3.35-.71-1.06-.5-2.05-1.23-2.97-2.2-.92-.97-1.73-2.17-2.44-3.59-.69-1.39-1.15-2.76-1.38-4.09-.23-1.33-.22-2.57.03-3.72.25-1.15.73-2.19,1.45-3.12.72-.93,1.69-1.7,2.92-2.32,1.2-.6,2.39-.91,3.58-.94,1.18-.03,2.31.2,3.37.7,1.06.5,2.06,1.24,2.98,2.22.92.98,1.74,2.19,2.45,3.61.71,1.42,1.17,2.79,1.39,4.11.22,1.32.21,2.55-.04,3.7Z"/>
    <polygon points="370.02 428.37 366.52 423.24 344.37 438.38 347.87 443.5 355.94 438 370.69 459.6 376.71 455.48 361.96 433.88 370.02 428.37"/>
    <path d="M400.52,414.38c-1.86-2.05-3.81-3.58-5.84-4.57-2.04-.99-4.08-1.53-6.12-1.61-2.05-.08-4.04.28-5.97,1.06-1.93.79-3.72,1.92-5.36,3.41-1.59,1.44-2.87,3.08-3.83,4.92-.96,1.84-1.51,3.79-1.65,5.84-.13,2.06.18,4.16.95,6.3.77,2.14,2.08,4.24,3.94,6.29,1.86,2.05,3.81,3.58,5.84,4.57,2.04.99,4.07,1.52,6.11,1.59,2.04.07,4.02-.29,5.96-1.08,1.93-.79,3.72-1.92,5.36-3.41,1.69-1.53,3.02-3.22,4.01-5.08.99-1.86,1.53-3.79,1.64-5.81s-.23-4.08-1.03-6.19c-.8-2.11-2.13-4.2-3.99-6.25ZM397.78,429.98c-.46,1.09-1.19,2.09-2.18,2.99-1.02.92-2.08,1.55-3.2,1.89-1.12.34-2.26.42-3.42.23-1.16-.19-2.31-.62-3.46-1.31-1.15-.68-2.25-1.62-3.32-2.79-1.05-1.15-1.86-2.34-2.44-3.56-.58-1.22-.91-2.41-.98-3.59-.07-1.17.11-2.3.55-3.4.44-1.09,1.17-2.1,2.18-3.02.99-.9,2.05-1.53,3.19-1.88,1.13-.35,2.28-.43,3.44-.25,1.16.19,2.32.63,3.47,1.33,1.16.7,2.27,1.63,3.33,2.81s1.88,2.37,2.45,3.58.89,2.4.96,3.57-.12,2.3-.58,3.4Z"/>
    <path d="M414.97,395.45l8.73,7.11c-.2.4-.47.83-.81,1.29-.34.47-.77,1.01-1.28,1.64-.95,1.16-1.97,2.01-3.08,2.56-1.11.54-2.26.81-3.46.8-1.2-.01-2.41-.28-3.65-.81-1.24-.53-2.47-1.29-3.7-2.29-2.54-2.06-4.05-4.28-4.56-6.64-.5-2.36.31-4.86,2.46-7.49.96-1.18,2.01-2.15,3.12-2.91,1.12-.76,2.2-1.35,3.24-1.79l-3.2-5.32c-.28.1-.71.28-1.29.55-.58.27-1.25.67-2.02,1.19-.77.52-1.62,1.2-2.55,2.02-.93.83-1.88,1.83-2.85,3.01-1.42,1.74-2.46,3.61-3.13,5.62-.67,2.01-.91,4.03-.71,6.08.2,2.05.84,4.06,1.93,6.03,1.09,1.97,2.68,3.81,4.78,5.52,2.08,1.69,4.16,2.9,6.26,3.63,2.1.73,4.15,1,6.14.82,2-.18,3.91-.8,5.74-1.87,1.83-1.06,3.51-2.53,5.05-4.42,1.79-2.2,3.15-4.17,4.06-5.91.92-1.74,1.52-3.06,1.81-3.95l-12.42-10.12-4.61,5.65Z"/>
    <path d="M442.94,370.98c-1.34,0-2.63.05-3.9.12-1.26.07-2.41.18-3.44.32.33-2.1.16-3.96-.51-5.59-.67-1.63-1.98-3.03-3.92-4.21-3.11-1.89-6.08-2.18-8.9-.87-2.82,1.31-5.49,4.05-8.01,8.2-.7,1.14-1.43,2.48-2.21,3.99-.77,1.52-1.44,3.03-2,4.55l27.27,16.55,3.78-6.23-10.1-6.13,1.87-3.08c.96-.15,2-.25,3.11-.31,1.11-.06,2.27-.1,3.48-.11,1.21-.02,2.44,0,3.69.04,1.25.05,2.48.09,3.69.13l4.23-6.97c-1.3-.13-2.65-.24-4.04-.32s-2.75-.11-4.09-.1ZM427.11,376.93l-1.07,1.76-7.51-4.56c.17-.34.35-.69.54-1.07.19-.38.42-.79.7-1.24,1.21-2,2.42-3.33,3.61-4.01,1.2-.68,2.47-.61,3.83.22,1.41.86,2.1,1.97,2.07,3.34-.03,1.37-.75,3.22-2.18,5.57Z"/>
    <path d="M446.59,336.65c-2.82-.05-5.51-.05-8.08,0-2.57.04-5.09.12-7.57.23l-2.68,6.37c1.64,1.88,3.35,3.74,5.13,5.59,1.77,1.85,3.66,3.76,5.67,5.74s4.16,4.04,6.46,6.2c2.3,2.15,4.83,4.47,7.57,6.94l2.93-6.98c-.89-.76-1.81-1.56-2.74-2.4-.93-.84-1.87-1.67-2.8-2.51l4.9-11.66c1.24.08,2.49.15,3.75.23,1.25.08,2.47.17,3.64.27l3.03-7.2c-3.69-.23-7.11-.41-10.26-.54-3.15-.14-6.14-.23-8.96-.27ZM445.79,352.05c-1.09-1.01-2.13-1.99-3.11-2.94-.98-.95-1.89-1.81-2.71-2.59-.82-.78-1.55-1.47-2.17-2.07-.62-.6-1.12-1.07-1.49-1.4.5,0,1.18,0,2.05.03.87.02,1.87.05,3.01.07,1.14.03,2.39.07,3.75.14,1.36.07,2.78.15,4.27.23l-3.59,8.54Z"/>
    <polygon points="459.48 309.52 453.58 307.92 450.21 320.27 443.67 318.49 447.46 304.6 441.56 303 435.85 323.91 467.09 332.42 469 325.38 456.11 321.88 459.48 309.52"/>
    <rect x="454.66" y="283.65" width="7.29" height="32.37" transform="translate(82.2 697.95) rotate(-79.82)"/>
    <path d="M476.6,265.81l-5.99,1.52c.15.42.32.89.49,1.4.18.51.32,1.1.44,1.77.12.66.2,1.42.26,2.27s.04,1.8-.05,2.86c-.14,1.68-.53,3.08-1.17,4.22s-1.46,2.03-2.45,2.68c-.99.65-2.15,1.09-3.46,1.31-1.31.22-2.72.27-4.21.15-1.86-.15-3.42-.53-4.69-1.14-1.26-.6-2.27-1.35-3.03-2.24-.75-.89-1.28-1.89-1.56-2.99-.28-1.1-.38-2.21-.29-3.33.14-1.68.45-3.16.93-4.45.48-1.29,1.03-2.41,1.64-3.36l-5.69-2.58c-.18.24-.43.62-.75,1.16-.33.54-.66,1.21-.99,2.03-.33.82-.65,1.78-.94,2.88-.29,1.1-.5,2.33-.61,3.7-.2,2.36,0,4.58.57,6.66.58,2.08,1.53,3.91,2.85,5.48,1.32,1.58,3,2.87,5.02,3.88,2.03,1.01,4.37,1.63,7.04,1.84,5.37.44,9.63-.59,12.77-3.1,3.15-2.51,4.93-6.38,5.37-11.63.2-2.45.13-4.63-.21-6.53s-.78-3.39-1.32-4.47Z"/>
    <path d="M471.81,252.93c-1.92-1.03-3.94-2.22-6.06-3.55-2.12-1.34-4.18-2.69-6.18-4.06-2-1.37-3.84-2.71-5.54-4-1.7-1.29-3.08-2.41-4.15-3.36l-5.04.24,1.12,24.18,6.11-.29-.67-14.51c1.52,1.14,3.24,2.38,5.15,3.71,1.92,1.33,3.89,2.63,5.93,3.91,2.04,1.28,4.06,2.5,6.06,3.67,2,1.17,3.82,2.15,5.45,2.95l4.34-.2-1.18-25.44-6.11.29.76,16.48Z"/>
    <path d="M440.92,215.58l18.79-3.5c-1.45,1.41-2.95,2.91-4.51,4.5-1.56,1.59-3.05,3.17-4.49,4.76-1.43,1.58-2.77,3.12-4.01,4.62-1.24,1.5-2.28,2.85-3.1,4.05l1.08,5.83,31.83-5.93-1.31-7.07-20.85,3.89c2.65-3.28,5.53-6.45,8.64-9.5,3.11-3.05,6.29-5.94,9.56-8.67l-1.12-6.02-31.83,5.93,1.32,7.12Z"/>
    <path d="M460.27,189.94l-4.16-11.94c.97-.78,1.95-1.55,2.94-2.34.98-.78,1.95-1.53,2.89-2.24l-2.57-7.37c-2.89,2.3-5.56,4.46-7.99,6.46-2.43,2.01-4.71,3.94-6.84,5.79-2.13,1.85-4.13,3.65-6.01,5.4-1.88,1.75-3.71,3.5-5.47,5.24l2.27,6.52c2.48.29,4.99.53,7.55.72,2.55.18,5.24.34,8.05.47,2.82.13,5.8.22,8.95.28,3.15.06,6.58.09,10.27.09l-2.49-7.15c-1.17.03-2.39.05-3.64.05-1.26,0-2.51,0-3.76,0ZM449.97,190.18c-1.37-.05-2.62-.08-3.75-.11-1.13-.03-2.13-.06-3-.09-.87-.03-1.55-.04-2.05-.04.37-.33.89-.78,1.55-1.35.66-.56,1.42-1.22,2.29-1.96.87-.74,1.82-1.55,2.88-2.41,1.06-.86,2.17-1.75,3.33-2.68l3.04,8.74c-1.49-.02-2.92-.05-4.29-.1Z"/>
    <path d="M73.59,133.14c.35,2.48-.7,5.17-3.15,8.07-1.68,1.98-3.56,3.54-5.65,4.65-2.08,1.12-4.19,2.05-6.3,2.79l5.91,11.82c2.5-.68,5.23-1.91,8.18-3.69,2.95-1.78,5.89-4.4,8.82-7.86,3.19-3.77,5.33-7.3,6.42-10.62,1.09-3.31,1.4-6.42.91-9.31-.48-2.9-1.63-5.61-3.43-8.14-1.8-2.53-4.01-4.9-6.61-7.1l-35.25-29.83-10.08,11.91,34.64,29.32c3.37,2.85,5.23,5.52,5.59,8Z"/>
    <path d="M95.29,79.23c1.03,5.96,2.21,12.27,3.54,18.91,1.33,6.65,2.84,13.84,4.53,21.6l13.81-8.47c-.61-2.44-1.21-4.98-1.79-7.62-.58-2.63-1.17-5.26-1.75-7.88l23.07-14.15c2.07,1.69,4.15,3.4,6.24,5.1,2.09,1.71,4.09,3.39,6.01,5.05l14.24-8.73c-6.14-5.02-11.88-9.63-17.2-13.83-5.32-4.19-10.41-8.1-15.26-11.72-4.85-3.62-9.54-7-14.07-10.16-4.53-3.15-9.02-6.19-13.48-9.11l-12.61,7.73c.52,5.33,1.18,10.72,1.97,16.16.79,5.44,1.7,11.15,2.73,17.11ZM108.39,58.33c1.48,1.13,3.2,2.43,5.16,3.91,1.95,1.48,4.07,3.13,6.36,4.95,2.28,1.82,4.67,3.75,7.15,5.76l-16.89,10.36c-.64-3.13-1.23-6.15-1.76-9.04-.53-2.89-1.03-5.53-1.49-7.92-.46-2.39-.86-4.5-1.2-6.34-.34-1.83-.62-3.27-.85-4.31.87.63,2.05,1.5,3.53,2.63Z"/>
    <path d="M170.4,42.53c.4,6.19.84,12.4,1.32,18.61.47,6.22.95,12.06,1.43,17.54l15.06-2.05c-.71-6.72-1.44-14.05-2.18-21.99-.74-7.94-1.33-15.96-1.76-24.08,1.57,2.62,3.32,5.53,5.23,8.71,1.92,3.18,3.82,6.37,5.7,9.56,1.88,3.19,3.7,6.23,5.44,9.14,1.74,2.9,3.23,5.39,4.46,7.45l10.8-1.47c.63-2.31,1.4-5.1,2.3-8.37.91-3.26,1.84-6.68,2.81-10.26.96-3.58,1.95-7.15,2.94-10.73,1-3.58,1.9-6.84,2.72-9.79,1.75,7.94,3.33,15.83,4.73,23.67,1.4,7.85,2.66,15.11,3.77,21.78l15.06-2.05c-1.01-5.4-2.11-11.16-3.31-17.28-1.2-6.12-2.44-12.21-3.7-18.29-1.26-6.07-2.56-11.91-3.89-17.5-1.33-5.59-2.64-10.63-3.92-15.12l-14.07,1.91c-.9,2.35-1.9,5.24-3.02,8.67-1.12,3.43-2.27,7.13-3.45,11.11-1.18,3.98-2.33,8.03-3.45,12.17-1.12,4.14-2.18,8.03-3.17,11.68-1.93-3.25-3.98-6.72-6.17-10.41-2.19-3.69-4.38-7.29-6.58-10.81-2.2-3.52-4.29-6.78-6.29-9.78-2-3-3.74-5.52-5.23-7.55l-14.76,2.01c-.04,4.67.05,9.87.26,15.62.21,5.75.52,11.72.92,17.91Z"/>
    <path d="M295.26,31.93c3.69,8.26,6.95,16.85,9.76,25.76,2.81,8.91,5.24,17.82,7.29,26.71l12.57,3.68,19.53-66.77-14.88-4.35-11.53,39.41c-1.29-4.14-2.7-8.48-4.22-13-1.53-4.53-3.1-8.93-4.73-13.2-1.63-4.28-3.28-8.33-4.93-12.16-1.66-3.83-3.23-7.12-4.72-9.85l-12.19-3.57-19.53,66.77,14.78,4.32,12.79-43.74Z"/>
    <rect x="333.56" y="67.09" width="69.57" height="15.6" transform="translate(105.29 343.38) rotate(-57.08)"/>
    <path d="M384.3,132.16l22.04-19.56c.19,3.05.17,6.28-.07,9.71-.24,3.43-.62,6.85-1.16,10.27-.54,3.42-1.16,6.71-1.86,9.89-.7,3.17-1.43,6.03-2.2,8.59l12.31,13.87c2.59-8.65,4.56-17.02,5.9-25.1s1.92-15.74,1.71-22.96c7.44.45,14.69.73,21.75.84,7.06.12,14.26.07,21.61-.15l-12.29-13.85c-5.29.01-11.04,0-17.24-.03-6.2-.03-12.21-.14-18.04-.34l19.56-17.35-10.35-11.67-52.04,46.17,10.35,11.67Z"/>
  </g>
</svg>