<?xml version="1.0" encoding="UTF-8"?>
<svg id="Warstwa_1" xmlns="http://www.w3.org/2000/svg" version="1.1" viewBox="0 0 494.5 174.93">
  <!-- Generator: Adobe Illustrator 30.5.1, SVG Export Plug-In . SVG Version: 2.1.4 Build 3)  -->
  <defs>
    <style>
      .st0 {
        fill: #fff;
        fill-rule: evenodd;
      }
    </style>
  </defs>
  <path class="st0" d="M489.06,20.81c.86,0,1.81.41,2.94,1.15,2.73,1.79,3.22,3.27,1.45,4.36-.6.37-2.13,2.68-3.38,5.14-4.57,8.96-18.37,21.32-30.98,27.73-2.54,1.29-11.49,4.99-19.89,8.22-8.39,3.23-16.14,6.67-17.21,7.64-2.14,1.94-1.79,4.12,1.22,7.51,1.05,1.19,3.94,5.96,6.43,10.59,3.31,6.16,4.69,10.1,5.11,14.75.74,8.12-2.08,21.07-5.85,26.89-2.98,4.59-9.47,8.63-10.69,6.66-.38-.61.51-2.91,1.96-5.11,7.6-11.52,8.22-26.14,1.66-38.82-9.28-17.93-9.92-18.28-17.89-10.75-4.69,4.43-5.13,5.31-5.24,10.08-.19,8.27-.28,8.58-3.28,9.94-1.57.71-3.07,1.09-3.35.81-1.01-1.01-.21-56.2.85-58.17.74-1.38,2.3-2.03,4.97-2.03,3.75,0,3.85.11,3.21,3.28-1.52,7.59-.83,28.66-.61,28.66s5.56-2.8,10.15-5.56c4.59-2.76,15.91-7.85,25.16-11.33,18.16-6.83,23.88-9.74,32.26-16.47,8.19-6.58,13.25-12.57,15.86-18.8,1.85-4.42,3.25-6.36,5.14-6.36h0ZM366.5,44.18c-3.77.05-4.07,1.63-4.63,24.96-.31,12.75-.59,23.9-.64,24.79-.05.89-.03,2.48.07,3.52.21,2.31.5,2.32,4.53.24,2.91-1.51,3.2-2.15,3.21-7.31.03-8.26,1.06-34.04,1.59-39.91.45-5.03-.42-6.34-4.13-6.29h0ZM338.26,42.32c-1.32-.06-2.82.21-3.75.71-2.16,1.15-2.27,2.04-2.27,18.7,0,15.28-.22,17.31-1.59,15.93-.86-.87-5.24-8.16-9.74-16.2-4.5-8.04-8.6-15.34-9.1-16.23-1.36-2.43-6.98-2.61-9.06-.3-1.52,1.68-1.76,5.71-1.89,29.52-.09,15.18-.15,27.96-.1,28.41.12,1.15,1.72,1.01,4.9-.44,3.01-1.37,2.84.03,3.35-25.06.14-7.04.64-10.01,1.89-11.26,1.54-1.54,1.95-1.19,4.36,3.62,5.33,10.64,14,26.97,14.91,28.1,1.15,1.42,7.18.69,8.29-1.01.44-.68,1.1-11.72,1.45-24.52.35-12.8,1-24.57,1.45-26.18.72-2.54.47-3.03-1.89-3.62-.37-.09-.78-.15-1.22-.17h0ZM278.71,47.36c-5.02.06-7.53,4.7-12.01,20.22-3.34,11.61-10.3,30.68-11.19,30.67-.8,0-10.08-18.23-12.68-24.89-1.05-2.68-3.02-6.99-4.4-9.6-1.38-2.62-2.5-5.58-2.5-6.56,0-4.07-5.28-5.76-9.13-2.94-1.79,1.31-2.02,4.14-2.5,33.52-.29,17.66-.24,32.85.1,33.75.75,1.95,2.77,2.04,5.14.24,1.42-1.08,1.83-4.55,2.3-19.28.54-16.97,1.91-24.27,4.06-21.91.47.51,3.89,8.15,7.61,16.98,3.72,8.83,7.34,16.26,8.05,16.54.71.27,2.53.03,4.03-.54,2.14-.81,3.34-2.83,5.65-9.5,5.1-14.71,7.45-20.06,10.04-22.86,1.39-1.5,2.54-3.11,2.54-3.62s.41-.95.95-.95.9,7.06.81,15.86c-.17,16.78.32,18.29,4.53,14.75,2.22-1.86,2.31-2.89,2.6-30.57.29-27.04.18-28.69-1.69-29.05-.83-.16-1.58-.24-2.3-.24h0ZM210.46,98.26c-.21,7.44-.41,16.55-.44,20.26-.06,6.41-.23,6.84-3.42,8.49-1.84.95-3.66,1.42-4.02,1.05-.37-.37-.53-5.74-.37-11.94l.3-11.3-2.77-.68c-1.97-.49-5.94.63-13.66,3.89-15.91,6.71-15.48,6.18-15.76,19.58-.13,6.18-.29,11.52-.34,11.87-.11.79-5.18,3.15-6.76,3.15-.8,0-.97-10.09-.61-33.28.54-34.81,1.06-38.84,6.12-46.81,4.65-7.32,14.29-12.99,22.12-12.99,1.79,0,5.39,1.05,7.98,2.3,9.35,4.53,12.46,16.89,11.63,46.4ZM201.36,78.98c-1.24-12.04-3.71-18.45-8.22-21.41-1.46-.96-3.11-1.36-4.84-1.25-5.19.32-11.06,5.11-14.34,12.45-2.96,6.64-4.08,27.4-1.76,32.64.81,1.84,1.69,3.35,2,3.35.3,0,6.55-2.31,13.87-5.14,10.08-3.9,13.44-5.66,13.87-7.34.31-1.22.05-7.2-.58-13.29ZM115.32.01c-9.7-.28-28.5,4.74-43.12,11.63-4.9,2.31-14.01,6.4-20.26,9.1-6.25,2.7-14.53,6.48-18.4,8.39-3.87,1.9-10.2,4.58-14.07,5.95-6.37,2.26-7.03,2.75-7.03,5.48,0,1.96.64,3.15,1.83,3.38,2.07.4,12.91-3.83,27.93-10.89C103.33,4.33,122.14,1.51,131.42,19.66q3.23,6.31,3.92,31.38c.99,34.85-.45,85.54-2.71,95.84-2.13,9.72-6.77,18.11-11.94,21.58-2.11,1.42-3.82,3.49-3.82,4.6,0,2.57.09,2.58,6.39-.61,6.51-3.3,11.98-9.56,14.51-16.61,4.54-12.62,5.26-22.25,5.75-77.62q.51-57.52-5.48-66.59c-3.16-4.79-13.83-10.66-20.93-11.5-.56-.07-1.15-.12-1.79-.14h0ZM109.64,36.13c-3.1,2.87-8.15,3.27-13.87,1.12-5.13-1.93-7.93-4.32-8.73-7.51-.63-2.51,0-3.65,4.06-7.71,3.92-3.92,6.87-5.69,10.42-5.88,1.18-.07,2.41.05,3.79.3,5.18.97,7.18,2.84,7.91,7.37.88,5.41-.21,9.18-3.59,12.31ZM103.79,20.34c-3.59,0-5.21,2.43-3.21,4.84,1.01,1.21.82,1.99-.95,3.75-2.5,2.49-2.95,6.1-.88,6.93,3.15,1.27,6.48.56,8.96-1.93,4.93-4.93,2.43-13.6-3.92-13.6ZM3.96,37.92c-.44.02-.9.09-1.35.2-2,.5-2.6,1.38-2.6,3.79,0,1.73.28,3.93.64,4.87,1.47,3.83,9.1.25,9.1-4.26,0-2.76-2.67-4.76-5.78-4.6h0Z"/>
</svg>