<?xml version="1.0" encoding="UTF-8"?>
<svg id="Warstwa_1" xmlns="http://www.w3.org/2000/svg" version="1.1" viewBox="0 0 195.91 195.91">
  <!-- Generator: Adobe Illustrator 30.5.1, SVG Export Plug-In . SVG Version: 2.1.4 Build 3)  -->
  <defs>
    <style>
      .st0 {
        fill: #fff;
      }
    </style>
  </defs>
  <path id="white" class="st0" d="M100.27,81.17c0,2.21-1.8,4.01-4.02,4.01s-4.02-1.8-4.02-4.01,1.8-4.02,4.02-4.02,4.02,1.8,4.02,4.02ZM195.91,97.95c0,54.01-43.94,97.96-97.95,97.96S0,151.96,0,97.95,43.94,0,97.96,0s97.95,43.94,97.95,97.95ZM145.74,17.64c-1.49.86-2.95,1.75-4.38,2.69-13.86,9.1-24.86,21.89-32.11,36.92h1.8c12.89-.04,28.09,3.62,39.41,11.73,10.51-1.65,21.22-1.57,31.73.35,1.7.31,3.4.67,5.09,1.08-.21-.7-.44-1.39-.67-2.08-.14-.42-.28-.84-.43-1.25-.26-.75-.53-1.49-.81-2.23-.19-.49-.38-.99-.57-1.48-.29-.73-.59-1.46-.9-2.17-.21-.49-.42-.97-.64-1.44-.24-.56-.5-1.12-.76-1.67-.28-.59-.56-1.18-.86-1.77-.32-.64-.65-1.28-.98-1.91-.64-1.21-1.3-2.4-1.98-3.57-.04-.07-.08-.13-.11-.19-.74-1.24-1.49-2.45-2.26-3.64-.39-.6-.79-1.2-1.19-1.78-.81-1.18-1.64-2.34-2.5-3.48-.86-1.14-1.75-2.26-2.65-3.35-.91-1.1-1.85-2.17-2.8-3.23-.02,0-.03-.03-.04-.05-1.91-2.09-3.9-4.09-5.98-6-2.47-2.27-5.07-4.41-7.78-6.4-.28-.21-.56-.41-.84-.61-.46-.34-.92-.67-1.39-.99-.3-.21-.6-.42-.9-.61-.5-.35-1-.67-1.51-1-.2-.14-.4-.27-.61-.39-.72-.47-1.44-.92-2.18-1.36-.07-.04-.13-.08-.2-.12ZM79.41,67.02c5.33-1.81,8.48-5.1,14.34-7.19,4.11-1.39,6.89-2.12,10.89-2.41,7.23-15.86,18.42-29.45,32.62-39.25,1.42-.99,2.88-1.93,4.36-2.84-.77-.41-1.54-.81-2.33-1.19-.22-.12-.45-.22-.67-.32-.56-.29-1.12-.55-1.69-.81-.64-.3-1.29-.59-1.94-.86-.02-.02-.05-.03-.08-.03-.2-.09-.4-.18-.61-.27-.16-.07-.32-.14-.49-.21-.07-.03-.14-.06-.21-.08-.69-.29-1.39-.57-2.09-.84-.43-.16-.86-.33-1.3-.49-.44-.16-.88-.32-1.32-.47-.44-.16-.88-.31-1.32-.46-.43-.14-.86-.28-1.29-.41-1.8-.58-3.62-1.1-5.47-1.57-.91-.23-1.83-.45-2.76-.65-.58-.14-1.18-.26-1.77-.37-.1-.02-.19-.04-.29-.05-.41-.09-.82-.17-1.24-.24-.32-.06-.64-.12-.96-.17-.45-.08-.89-.15-1.34-.22-.78-.12-1.57-.23-2.36-.34-.64-.08-1.28-.16-1.92-.23-.48-.05-.96-.1-1.44-.14-.58-.06-1.16-.11-1.75-.15-.75-.06-1.5-.1-2.25-.14-.6-.03-1.22-.05-1.82-.07-.3,0-.6-.02-.9-.02-.68-.02-1.36-.03-2.05-.03s-1.39.01-2.08.03c-.29,0-.59.01-.89.02-.61.02-1.22.04-1.83.07-.05,0-.09.01-.14.01-.58.02-1.16.06-1.73.11-1.21.08-2.41.19-3.61.32-.48.05-.96.11-1.44.17-3.14.39-6.23.94-9.26,1.63-.67.16-1.35.32-2.02.49-.45,1.65-.84,3.32-1.18,4.99-3.82,18.26-1.75,37.27,5.63,54.68ZM22.82,42.41s.04-.06.06-.08c-.01.02-.03.04-.05.06,0,0,0,.01-.01.02ZM20.87,45.14c.58-.85,1.18-1.69,1.79-2.51-.04.05-.08.1-.11.15-.14.17-.27.35-.39.53-.06.07-.11.14-.15.21-.05.06-.09.12-.13.18-.04.05-.08.1-.12.16-.01.01-.02.02-.02.03-.05.07-.11.14-.16.22-.24.34-.47.69-.71,1.03ZM7.38,120.96c1.65.44,3.29.84,4.96,1.18,14.85,3.09,30.21,2.3,44.78-2.07-2.28-1.52-4.66-2.89-7.12-4.05-3.19-1.51-6.57-2.73-9.59-4.58-2.95-1.81-5.44-4.32-7.75-6.87-1.62-1.79-3.1-3.69-4.41-5.7,1.31,1.06,2.72,2.09,4.2,3.1,3.52,2.37,10.34,6.88,20.25,8.88,9.61,1.93,17.92.32,18.2.23-9.42,1.02-16.37-.69-20.47-2.09-9.17-3.14-17.89-9.63-22.58-14.35-.61-.63-1.89-1.95-3.77-3.68-.1-.21-.18-.42-.26-.64-.67-1.69-1.23-3.44-1.66-5.21-.58-2.35-1.29-5.94-1.4-9.51,1.38.74,3.12,1.39,5.16,1.65,1.23.15,3.76.44,6.63-.71,4.4-1.77,6.29-5.62,6.77-6.66.58-1.24.92-2.45,1.11-3.53,3.11.59,6.42,1.12,9.52,1.34,9.33.64,17.7.89,25.32.07-7.11-17.23-9.26-35.93-5.95-54.03.32-1.71.68-3.41,1.09-5.1-.7.21-1.39.44-2.08.67-.52.17-1.04.35-1.55.54-.93.32-1.86.67-2.78,1.02-.6.23-1.19.47-1.78.72-.45.18-.89.37-1.33.57-.45.19-.9.38-1.35.59-.04.02-.08.04-.13.06-.53.23-1.05.48-1.57.74-.54.24-1.08.51-1.62.78-.52.25-1.04.52-1.55.79-.21.11-.41.22-.62.33-.46.24-.91.48-1.35.74-.5.27-1.01.56-1.51.85-.53.3-1.06.62-1.58.94-.07.04-.13.08-.2.12-.47.28-.94.57-1.4.87-.21.13-.42.27-.63.4-.47.3-.94.6-1.4.92-.13.09-.25.17-.37.25-.41.27-.81.55-1.21.84-.39.27-.77.54-1.15.81-.5.37-1,.74-1.5,1.11-.57.43-1.13.87-1.69,1.31-.56.44-1.11.89-1.66,1.34-1.1.91-2.17,1.85-3.23,2.8-.01.02-.03.03-.05.04-2.08,1.91-4.09,3.9-6,5.98-.4.44-.8.88-1.19,1.33-.13.14-.26.29-.38.43-.01.01-.02.02-.03.03-.06.07-.13.15-.19.22-.32.37-.64.73-.94,1.11-.06.06-.12.13-.17.2-.03.04-.06.07-.09.11-.41.48-.8.96-1.18,1.45-.28.34-.55.69-.81,1.03-.02.02-.04.05-.06.07-.12.15-.24.3-.35.45-.05.06-.1.13-.15.2-.02.02-.04.04-.05.07-.03.04-.06.07-.08.11-.05.06-.1.13-.15.19-.1.14-.21.27-.31.41-.03.04-.06.08-.08.11-.04.05-.08.11-.11.16,0,.01-.01.02-.02.03-.01.02-.02.03-.04.05-.82,1.11-1.62,2.24-2.4,3.39,0-.01.02-.03.02-.04-.02.04-.05.07-.07.11,0,0,0,0,0,0,.02-.02.03-.05.05-.07-.2.3-.39.61-.59.91.13-.19.24-.39.37-.58-.37.54-.72,1.1-1.08,1.65-.05.08-.1.15-.14.22-.1.16-.2.31-.29.47-.02.03-.04.07-.06.1.39-.63.8-1.24,1.2-1.86-.64.98-1.27,1.97-1.88,2.98.04-.07.09-.15.13-.22-.12.19-.24.39-.36.58.07-.12.15-.24.23-.36-.07.12-.14.25-.22.37.86,1.49,1.75,2.94,2.69,4.37,2.17,3.31,4.55,6.46,7.12,9.43-1.54.02-2.9.42-4.02,1.57-1.86-2.21-3.62-4.5-5.27-6.89-.99-1.42-1.93-2.87-2.84-4.36-.06.12-.12.24-.19.36-.2.38-.4.76-.6,1.15-.3.59-.6,1.19-.89,1.79.04-.09.09-.19.13-.28-.04.08-.08.16-.11.24-.13.25-.24.5-.36.76.11-.24.23-.48.34-.71-.28.58-.55,1.16-.82,1.74.09-.2.18-.41.27-.61-.16.34-.32.68-.47,1.01,0,.02-.02.04-.02.05.07-.15.14-.3.21-.46-.23.5-.45.99-.67,1.49,0,0,0-.01,0-.02,0,0,0,.02-.01.03-.15.35-.31.71-.46,1.08-.1.24-.21.49-.31.74-.05.12-.09.24-.14.35.3-.73.6-1.46.91-2.18-.37.86-.73,1.73-1.08,2.6-.21.52-.41,1.04-.61,1.56-.35.93-.69,1.87-1.02,2.82.15-.42.3-.85.45-1.27-.15.43-.31.85-.46,1.28,0,0,0-.01,0-.02-.09.28-.18.56-.28.84-.04.11-.07.22-.11.33-.36,1.12-.72,2.24-1.04,3.38.21-.72.42-1.44.65-2.16-.04.13-.08.26-.12.39-.03.09-.06.18-.08.27-.07.2-.13.41-.19.62-.09.29-.18.59-.26.88h0c-.25.92-.5,1.82-.73,2.74-.23.91-.45,1.83-.65,2.76-.16.68-.3,1.37-.42,2.06-.09.41-.17.82-.24,1.24-.17.93-.33,1.87-.47,2.81-.08.52-.15,1.04-.22,1.56-.11.83-.21,1.66-.3,2.49-.04.39-.08.77-.11,1.16-.06.58-.11,1.16-.15,1.75-.05.66-.09,1.32-.13,1.98-.03.7-.06,1.41-.08,2.11-.01.3-.02.59-.02.88-.02.68-.03,1.36-.03,2.05s.01,1.39.03,2.08c0,.29.01.59.02.89.01.58.04,1.16.07,1.73.02.4.04.81.07,1.21.03.49.06.97.1,1.46.04.49.08.97.13,1.46.14,1.45.31,2.89.51,4.33.07.47.14.95.21,1.43.23,1.42.48,2.84.77,4.24.07.36.15.73.23,1.09.07.34.15.68.23,1.01.03.15.07.3.1.44.13.55.26,1.1.4,1.64h0ZM50.16,178.27c1.5-.86,2.96-1.76,4.39-2.7,9.63-6.32,17.89-14.43,24.46-23.83-.54-3.6-1.21-6.33-2.31-8.94-2.33-5.61-6.02-10.7-10.26-15.03-1.63-1.66-3.37-3.22-5.2-4.69-9.74,3.25-19.86,4.96-30,5.03-5.86.05-11.72-.46-17.52-1.53-1.7-.31-3.39-.67-5.07-1.08h-.01c.21.7.44,1.39.67,2.08.16.48.32.96.49,1.43.13.38.27.76.41,1.14.18.51.38,1.02.57,1.53.52,1.35,1.08,2.68,1.66,4,.29.66.59,1.31.9,1.97.91,1.95,1.9,3.87,2.94,5.74,1.05,1.88,2.16,3.72,3.33,5.51.39.6.79,1.2,1.19,1.78.4.59.81,1.18,1.23,1.76.84,1.16,1.69,2.3,2.57,3.41.41.51.82,1.03,1.23,1.53,2.76,3.34,5.74,6.49,8.93,9.41.52.48,1.05.96,1.59,1.43,1.06.93,2.16,1.85,3.27,2.74,1.11.89,2.24,1.75,3.39,2.59,2.31,1.68,4.69,3.25,7.15,4.72ZM80.99,175.67c0-4.04-.28-8.11-.69-12.37-.2-2.07-.38-3.94-.55-5.64-5.95,7.73-13.04,14.51-21.1,20.08,0,.01-.01,0-.01,0-1.42.99-2.86,1.93-4.34,2.84.63.34,1.27.67,1.92.99.62.31,1.24.61,1.87.91.73.35,1.47.69,2.21,1.02,1.03.45,2.06.88,3.1,1.3.65.26,1.3.51,1.96.75.52.2,1.06.39,1.6.58.81.29,1.64.57,2.47.83.64.21,1.29.41,1.94.6.54.17,1.08.32,1.63.47,1.09.31,2.19.59,3.3.85,1.1.26,2.22.51,3.34.73.31-1.5.56-2.98.75-4.45.43-3.19.6-6.33.6-9.49ZM102.68,80.35c-.92-2.92-2.72-4.68-3.53-5.39-1.67.11-4.84.54-8.22,2.47-3.3,1.88-5.25,4.29-6.2,5.66.76.8,6.33,6.43,13.49,5.3,1.92-.31,3.5-1.02,4.72-1.77.24-1.04.64-3.44-.26-6.27ZM164.37,106.2c-2.79,17.82-7.43,51.7-25.7,59.64-6.7,3.3-14.07,1.45-19.86-2.79-8.87-6.05-14.55-17.65-8.36-27.5,4.08-6.43,10.83-10.12,16.35-15.29,2.88-2.66,5.36-5.81,7.24-9.21,3.76-6.85,5.51-14.67,5.15-22.31-.44,7.55-2.49,15.09-6.63,21.42-5.91,10.31-18.12,13.93-24.71,23.75-7.47,11.37-1.34,24.89,8.93,32.01,11.31,8.23,23.91,5.96,32.81-4.46,11.45-15.17,13.63-36.83,14.78-55.26ZM178.25,145.74s0-.01,0-.01c-.85-1.48-1.73-2.92-2.68-4.34,0-.01-.01-.01-.01-.02-2.06-3.16-4.32-6.16-6.76-9.01.03.42.06.84.09,1.25.39,5.06.94,10.02,2.56,14.39t.01.02c.58,1.63,1.33,3.18,2.27,4.62.4-.56.8-1.11,1.19-1.68.39-.56.77-1.14,1.15-1.71.37-.57.75-1.16,1.11-1.74.37-.59.73-1.18,1.08-1.77ZM191.38,100c.02-.68.03-1.36.03-2.05s-.01-1.38-.03-2.07c0-.3,0-.6-.02-.89-.02-.61-.04-1.22-.07-1.83-.03-.52-.06-1.05-.1-1.58-.04-.52-.08-1.05-.12-1.57-.11-1.34-.25-2.67-.42-3.99-.06-.46-.12-.92-.19-1.38-.06-.44-.13-.88-.2-1.32-.06-.37-.11-.73-.17-1.09-.1-.56-.2-1.13-.31-1.69-.17-.94-.36-1.87-.57-2.8-.21-.94-.43-1.86-.66-2.78h-.01c-1.65-.45-3.3-.84-4.97-1.18-9.49-1.98-19.19-2.37-28.76-1.26,7.56,6.94,12.52,16.39,12.32,28.7-.16,7.11.53,16.1,1.18,24.48,3.44,3.58,6.59,7.44,9.43,11.55.98,1.42,1.93,2.88,2.83,4.36.06-.09.11-.19.16-.29.06-.09.1-.19.15-.29.25-.47.49-.95.73-1.43.42-.83.83-1.66,1.21-2.51.19-.42.38-.84.57-1.26.09-.17.16-.35.24-.53.17-.4.34-.8.51-1.2.55-1.28,1.06-2.58,1.54-3.89.16-.44.32-.88.47-1.32.35-.98.68-1.98.99-2.98.21-.65.41-1.31.6-1.97.17-.58.33-1.16.49-1.75.02-.08.04-.16.06-.23.15-.58.3-1.15.44-1.73.07-.26.13-.53.19-.79.12-.5.24-1,.34-1.5.15-.68.29-1.36.42-2.04.08-.36.15-.72.21-1.09.14-.78.28-1.57.4-2.36v-.02c.13-.79.24-1.59.34-2.39.04-.33.08-.66.12-.99.1-.77.18-1.55.25-2.33.05-.55.1-1.11.14-1.66.06-.78.11-1.56.15-2.34.03-.6.05-1.21.07-1.82.01-.3.02-.6.02-.9Z"/>
  <path id="black" d="M80.99,175.67c0,3.16-.17,6.3-.6,9.49-.19,1.47-.44,2.95-.75,4.45-1.12-.22-2.24-.47-3.34-.73-1.11-.26-2.21-.54-3.3-.85-.55-.15-1.09-.3-1.63-.47-.65-.19-1.3-.39-1.94-.6-.83-.26-1.66-.54-2.47-.83-.53-.19-1.07-.38-1.6-.58-.66-.24-1.31-.49-1.96-.75-1.04-.42-2.07-.85-3.1-1.3-.74-.33-1.48-.67-2.21-1.02-.63-.3-1.25-.6-1.87-.91-.65-.32-1.29-.65-1.92-.99,1.48-.91,2.92-1.85,4.34-2.84,0,0,.01.01.01,0,8.06-5.57,15.15-12.35,21.1-20.08.17,1.7.35,3.57.55,5.64.41,4.26.69,8.33.69,12.37ZM131.51,10.72c-.43-.16-.86-.33-1.3-.49-.44-.16-.88-.32-1.32-.47-.44-.16-.88-.31-1.32-.46-.43-.14-.86-.28-1.29-.41-1.8-.58-3.62-1.1-5.47-1.57-.91-.23-1.83-.45-2.76-.65-.59-.13-1.18-.25-1.77-.37-.1-.02-.19-.04-.29-.05-.41-.09-.82-.17-1.24-.24-.32-.06-.64-.12-.96-.17-.45-.08-.89-.15-1.34-.22-.78-.12-1.57-.23-2.36-.34-.64-.08-1.28-.16-1.92-.23-.48-.05-.96-.1-1.44-.14-.58-.06-1.16-.11-1.75-.15-.75-.06-1.5-.1-2.25-.14-.6-.03-1.22-.05-1.82-.07-.3,0-.6-.02-.9-.02-.68-.02-1.36-.03-2.05-.03s-1.39.01-2.08.03c-.29,0-.59.01-.89.02-.61.02-1.22.04-1.83.07-.05,0-.09.01-.14.01-.58.02-1.16.06-1.73.11-1.21.08-2.41.19-3.61.32-.48.05-.96.11-1.44.17-3.14.39-6.23.94-9.26,1.63-.67.16-1.35.32-2.02.49-.45,1.65-.84,3.32-1.18,4.99-3.82,18.26-1.75,37.27,5.63,54.68,5.33-1.81,8.48-5.1,14.34-7.19,4.11-1.39,6.89-2.12,10.89-2.41,7.23-15.86,18.42-29.45,32.62-39.25,1.42-.99,2.88-1.93,4.36-2.84-3.26-1.73-6.63-3.27-10.11-4.61ZM186.61,68.33c-.14-.42-.28-.84-.43-1.25-.26-.75-.53-1.49-.81-2.23-.19-.49-.38-.99-.57-1.48-.29-.73-.59-1.46-.9-2.17-.21-.49-.42-.97-.64-1.44-.24-.56-.5-1.12-.76-1.67-.28-.59-.56-1.18-.86-1.77-.32-.64-.65-1.28-.98-1.91-.64-1.21-1.3-2.4-1.98-3.57-.04-.07-.08-.13-.11-.19-.74-1.24-1.49-2.45-2.26-3.64-.39-.6-.79-1.2-1.19-1.78-.81-1.18-1.64-2.34-2.5-3.48-.86-1.14-1.75-2.26-2.65-3.35-.91-1.1-1.85-2.17-2.8-3.23-.02,0-.03-.03-.04-.05-1.91-2.09-3.9-4.09-5.98-6-2.47-2.27-5.07-4.41-7.78-6.4-.28-.21-.56-.41-.84-.61-.46-.34-.92-.67-1.39-.99-.3-.21-.6-.42-.9-.61-.5-.35-1-.67-1.51-1-.2-.14-.4-.27-.61-.39-.72-.47-1.44-.92-2.18-1.36-.07-.04-.13-.08-.2-.12-1.49.86-2.95,1.75-4.38,2.69-13.86,9.1-24.86,21.89-32.11,36.92h1.8c12.89-.04,28.09,3.62,39.41,11.73,10.51-1.65,21.22-1.57,31.73.35,1.7.31,3.4.67,5.09,1.08-.21-.7-.44-1.39-.67-2.08ZM50.43,108.99c-9.17-3.14-17.89-9.63-22.58-14.35-.61-.63-1.89-1.95-3.77-3.68-.1-.21-.18-.42-.26-.64-.67-1.69-1.23-3.44-1.66-5.21-.58-2.35-1.29-5.94-1.4-9.51,1.38.74,3.12,1.39,5.16,1.65,1.23.15,3.76.44,6.63-.71,4.4-1.77,6.29-5.62,6.77-6.66.58-1.24.92-2.45,1.11-3.53,3.11.59,6.42,1.12,9.52,1.34,9.33.64,17.7.89,25.32.07-7.11-17.23-9.26-35.93-5.95-54.03.32-1.71.68-3.41,1.09-5.1-.7.21-1.39.44-2.08.67-.52.17-1.04.35-1.55.54-.93.32-1.86.67-2.78,1.02-.6.23-1.19.47-1.78.72-.45.18-.89.37-1.33.57-.45.19-.9.38-1.35.59-.04.02-.08.04-.13.06-.53.23-1.05.48-1.57.74-.54.24-1.08.51-1.62.78-.52.25-1.04.52-1.55.79-.21.11-.41.22-.62.33-.46.24-.91.48-1.35.74-.5.27-1.01.56-1.51.85-.53.3-1.06.62-1.58.94-.07.04-.13.08-.2.12-.47.28-.94.57-1.4.87-.21.13-.42.27-.63.4-.47.3-.94.6-1.4.92-.13.09-.25.17-.37.25-.41.27-.81.55-1.21.84-.39.27-.77.54-1.15.81-.5.37-1,.74-1.5,1.11-.57.43-1.13.87-1.69,1.31-.56.44-1.11.89-1.66,1.34-1.1.91-2.17,1.85-3.23,2.8-.01.02-.03.03-.05.04-2.08,1.91-4.09,3.9-6,5.98-4.33,4.72-8.18,9.88-11.48,15.41.86,1.49,1.76,2.95,2.7,4.38,2.17,3.31,4.55,6.46,7.12,9.43-1.54.02-2.9.42-4.02,1.57-1.86-2.21-3.62-4.5-5.27-6.89-.99-1.42-1.93-2.88-2.84-4.37-3.03,5.7-5.47,11.75-7.28,18.07h0c-.25.92-.5,1.82-.73,2.74-.23.91-.45,1.83-.65,2.76-.15.68-.29,1.37-.42,2.06-.09.41-.17.82-.24,1.24-.17.93-.33,1.87-.47,2.81-.08.52-.15,1.04-.22,1.56-.11.83-.21,1.66-.3,2.49-.04.39-.08.77-.11,1.16-.06.58-.11,1.16-.15,1.75-.05.66-.09,1.32-.13,1.98-.03.7-.06,1.41-.08,2.11-.01.3-.02.59-.02.88-.02.68-.03,1.36-.03,2.05s.01,1.39.03,2.08c0,.29.01.59.02.89.01.58.04,1.16.07,1.73.02.4.04.81.07,1.21.03.49.06.97.1,1.46.04.49.08.97.13,1.46.14,1.45.31,2.89.51,4.33.07.47.14.95.21,1.43.45,2.85,1.03,5.66,1.73,8.42,1.65.44,3.3.84,4.97,1.18,14.85,3.09,30.21,2.3,44.78-2.07-2.28-1.52-4.66-2.89-7.12-4.05-3.19-1.51-6.57-2.73-9.59-4.58-2.95-1.81-5.44-4.32-7.75-6.87-1.62-1.79-3.1-3.69-4.41-5.7,1.31,1.06,2.72,2.09,4.2,3.1,3.52,2.37,10.34,6.88,20.25,8.88,9.61,1.93,17.92.32,18.2.23-9.42,1.02-16.37-.69-20.47-2.09ZM76.7,142.8c-2.33-5.61-6.02-10.7-10.26-15.03-1.63-1.66-3.37-3.22-5.2-4.69-9.74,3.25-19.86,4.96-30,5.03-5.86.05-11.72-.46-17.52-1.53-1.7-.31-3.39-.67-5.07-1.08h-.01c.21.7.44,1.39.67,2.08.16.48.32.96.49,1.43.13.38.27.76.41,1.14.18.51.38,1.02.57,1.53.52,1.35,1.08,2.68,1.66,4,.29.66.59,1.31.9,1.97.91,1.95,1.9,3.87,2.94,5.74,1.05,1.88,2.16,3.72,3.33,5.51.39.6.79,1.2,1.19,1.78.4.59.81,1.18,1.23,1.76.84,1.16,1.69,2.3,2.57,3.41.41.51.82,1.03,1.23,1.53,2.76,3.34,5.74,6.49,8.93,9.41.52.48,1.05.96,1.59,1.43,1.06.93,2.16,1.85,3.27,2.74,1.11.89,2.24,1.75,3.39,2.59,2.31,1.68,4.69,3.25,7.15,4.72,1.5-.86,2.96-1.76,4.39-2.7,9.63-6.32,17.89-14.43,24.46-23.83-.54-3.6-1.21-6.33-2.31-8.94ZM191.38,95.88c0-.3,0-.6-.02-.89-.02-.61-.04-1.22-.07-1.83-.03-.52-.06-1.05-.1-1.58-.04-.52-.08-1.05-.12-1.57-.11-1.34-.25-2.67-.42-3.99-.06-.46-.12-.92-.19-1.38-.06-.44-.13-.88-.2-1.32-.06-.37-.11-.73-.17-1.09-.1-.56-.2-1.13-.31-1.69-.18-.94-.37-1.88-.57-2.8-.21-.94-.43-1.86-.66-2.78h-.01c-1.65-.45-3.3-.84-4.97-1.18-9.49-1.98-19.19-2.37-28.76-1.26,7.56,6.94,12.52,16.39,12.32,28.7-.16,7.11.53,16.1,1.18,24.48,3.44,3.58,6.59,7.44,9.43,11.55.98,1.42,1.93,2.88,2.83,4.36.11-.19.21-.38.31-.58.25-.47.49-.95.73-1.43.42-.83.83-1.66,1.21-2.51.19-.42.38-.84.57-1.26.09-.17.16-.35.24-.53.17-.4.34-.8.51-1.2.55-1.28,1.06-2.58,1.54-3.89.16-.44.32-.88.47-1.32.35-.98.68-1.98.99-2.98.21-.65.41-1.31.6-1.97.17-.58.33-1.16.49-1.75.02-.08.04-.16.06-.23.15-.58.3-1.15.44-1.73.07-.26.13-.53.19-.79.12-.5.23-1,.34-1.5.15-.68.29-1.36.42-2.04.08-.36.15-.72.21-1.09.14-.78.28-1.57.4-2.36v-.02c.13-.79.24-1.59.34-2.39.04-.33.08-.66.12-.99.1-.77.18-1.55.25-2.33.05-.55.1-1.11.14-1.66.06-.78.11-1.56.15-2.34.03-.6.05-1.21.07-1.82.01-.3.02-.6.02-.9.02-.68.03-1.36.03-2.05s-.01-1.38-.03-2.07ZM180.58,141.62c.1-.2.21-.39.3-.59-.1.2-.2.39-.31.58.01,0,.01.01.01.01ZM178.24,145.73c-.85-1.48-1.73-2.92-2.68-4.34,0-.01-.01-.01-.01-.02-2.06-3.16-4.32-6.16-6.76-9.01.03.42.06.84.09,1.25.39,5.06.94,10.02,2.56,14.39t.01.02c.58,1.63,1.33,3.18,2.27,4.62.4-.56.8-1.11,1.19-1.68.39-.56.77-1.14,1.15-1.71.37-.57.75-1.16,1.11-1.74.37-.59.73-1.18,1.08-1.77,0,0,0-.01,0-.01ZM138.67,165.84c-6.7,3.3-14.07,1.45-19.86-2.79-8.87-6.05-14.55-17.65-8.36-27.5,4.08-6.43,10.83-10.12,16.35-15.29,2.88-2.66,5.36-5.81,7.24-9.21,3.76-6.85,5.51-14.67,5.15-22.31-.44,7.55-2.49,15.09-6.63,21.42-5.91,10.31-18.12,13.93-24.71,23.75-7.47,11.37-1.34,24.89,8.93,32.01,11.31,8.23,23.91,5.96,32.81-4.46,11.45-15.17,13.63-36.83,14.78-55.26-2.79,17.82-7.43,51.7-25.7,59.64ZM102.94,86.62c-1.22.75-2.8,1.46-4.72,1.77-7.16,1.13-12.73-4.5-13.49-5.3.95-1.37,2.9-3.78,6.2-5.66,3.38-1.93,6.55-2.36,8.22-2.47.81.71,2.61,2.47,3.53,5.39.9,2.83.5,5.23.26,6.27ZM100.27,81.17c0-2.22-1.8-4.02-4.02-4.02s-4.02,1.8-4.02,4.02,1.8,4.01,4.02,4.01,4.02-1.8,4.02-4.01Z"/>
</svg>