<?xml version="1.0" encoding="UTF-8"?>
<svg id="Warstwa_1" xmlns="http://www.w3.org/2000/svg" version="1.1" viewBox="0 0 494.5 178.78">
  <!-- Generator: Adobe Illustrator 30.5.1, SVG Export Plug-In . SVG Version: 2.1.4 Build 3)  -->
  <defs>
    <style>
      .st0, .st1 {
        fill: #fff;
      }

      .st1 {
        fill-rule: evenodd;
      }
    </style>
  </defs>
  <path class="st1" d="M489.06,20.81c.86,0,1.81.41,2.94,1.15,2.73,1.79,3.22,3.27,1.45,4.36-.6.37-2.13,2.68-3.38,5.14-4.57,8.96-18.37,21.32-30.98,27.73-2.54,1.29-11.49,4.99-19.89,8.22-8.39,3.23-16.14,6.67-17.21,7.64-2.14,1.94-1.79,4.12,1.22,7.51,1.05,1.19,3.94,5.96,6.43,10.59,3.31,6.16,4.69,10.1,5.11,14.75.74,8.12-2.08,21.07-5.85,26.89-2.98,4.59-9.47,8.63-10.69,6.66-.38-.61.51-2.91,1.96-5.11,7.6-11.52,8.22-26.14,1.66-38.82-9.28-17.93-9.92-18.28-17.89-10.75-4.69,4.43-5.13,5.31-5.24,10.08-.19,8.27-.28,8.58-3.28,9.94-1.57.71-3.07,1.09-3.35.81-1.01-1.01-.21-56.2.85-58.17.74-1.38,2.3-2.03,4.97-2.03,3.75,0,3.85.11,3.21,3.28-1.52,7.59-.83,28.66-.61,28.66s5.56-2.8,10.15-5.56c4.59-2.76,15.91-7.85,25.16-11.33,18.16-6.83,23.88-9.74,32.26-16.47,8.19-6.58,13.25-12.57,15.86-18.8,1.85-4.42,3.25-6.36,5.14-6.36h0ZM366.5,44.18c-3.77.05-4.07,1.63-4.63,24.96-.31,12.75-.59,23.9-.64,24.79-.05.89-.03,2.48.07,3.52.21,2.31.5,2.32,4.53.24,2.91-1.51,3.2-2.15,3.21-7.31.03-8.26,1.06-34.04,1.59-39.91.45-5.03-.42-6.34-4.13-6.29h0ZM338.26,42.32c-1.32-.06-2.82.21-3.75.71-2.16,1.15-2.27,2.04-2.27,18.7,0,15.28-.22,17.31-1.59,15.93-.86-.87-5.24-8.16-9.74-16.2-4.5-8.04-8.6-15.34-9.1-16.23-1.36-2.43-6.98-2.61-9.06-.3-1.52,1.68-1.76,5.71-1.89,29.52-.09,15.18-.15,27.96-.1,28.41.12,1.15,1.72,1.01,4.9-.44,3.01-1.37,2.84.03,3.35-25.06.14-7.04.64-10.01,1.89-11.26,1.54-1.54,1.95-1.19,4.36,3.62,5.33,10.64,14,26.97,14.91,28.1,1.15,1.42,7.18.69,8.29-1.01.44-.68,1.1-11.72,1.45-24.52.35-12.8,1-24.57,1.45-26.18.72-2.54.47-3.03-1.89-3.62-.37-.09-.78-.15-1.22-.17h0ZM278.71,47.36c-5.02.06-7.53,4.7-12.01,20.22-3.34,11.61-10.3,30.68-11.19,30.67-.8,0-10.08-18.23-12.68-24.89-1.05-2.68-3.02-6.99-4.4-9.6-1.38-2.62-2.5-5.58-2.5-6.56,0-4.07-5.28-5.76-9.13-2.94-1.79,1.31-2.02,4.14-2.5,33.52-.29,17.66-.24,32.85.1,33.75.75,1.95,2.77,2.04,5.14.24,1.42-1.08,1.83-4.55,2.3-19.28.54-16.97,1.91-24.27,4.06-21.91.47.51,3.89,8.15,7.61,16.98,3.72,8.83,7.34,16.26,8.05,16.54.71.27,2.53.03,4.03-.54,2.14-.81,3.34-2.83,5.65-9.5,5.1-14.71,7.45-20.06,10.04-22.86,1.39-1.5,2.54-3.11,2.54-3.62s.41-.95.95-.95.9,7.06.81,15.86c-.17,16.78.32,18.29,4.53,14.75,2.22-1.86,2.31-2.89,2.6-30.57.29-27.04.18-28.69-1.69-29.05-.83-.16-1.58-.24-2.3-.24h0ZM210.46,98.26c-.21,7.44-.41,16.55-.44,20.26-.06,6.41-.23,6.84-3.42,8.49-1.84.95-3.66,1.42-4.02,1.05-.37-.37-.53-5.74-.37-11.94l.3-11.3-2.77-.68c-1.97-.49-5.94.63-13.66,3.89-15.91,6.71-15.48,6.18-15.76,19.58-.13,6.18-.29,11.52-.34,11.87-.11.79-5.18,3.15-6.76,3.15-.8,0-.97-10.09-.61-33.28.54-34.81,1.06-38.84,6.12-46.81,4.65-7.32,14.29-12.99,22.12-12.99,1.79,0,5.39,1.05,7.98,2.3,9.35,4.53,12.46,16.89,11.63,46.4ZM201.36,78.98c-1.24-12.04-3.71-18.45-8.22-21.41-1.46-.96-3.11-1.36-4.84-1.25-5.19.32-11.06,5.11-14.34,12.45-2.96,6.64-4.08,27.4-1.76,32.64.81,1.84,1.69,3.35,2,3.35.3,0,6.55-2.31,13.87-5.14,10.08-3.9,13.44-5.66,13.87-7.34.31-1.22.05-7.2-.58-13.29ZM115.32.01c-9.7-.28-28.5,4.74-43.12,11.63-4.9,2.31-14.01,6.4-20.26,9.1-6.25,2.7-14.53,6.48-18.4,8.39-3.87,1.9-10.2,4.58-14.07,5.95-6.37,2.26-7.03,2.75-7.03,5.48,0,1.96.64,3.15,1.83,3.38,2.07.4,12.91-3.83,27.93-10.89C103.33,4.33,122.14,1.51,131.42,19.66q3.23,6.31,3.92,31.38c.99,34.85-.45,85.54-2.71,95.84-2.13,9.72-6.77,18.11-11.94,21.58-2.11,1.42-3.82,3.49-3.82,4.6,0,2.57.09,2.58,6.39-.61,6.51-3.3,11.98-9.56,14.51-16.61,4.54-12.62,5.26-22.25,5.75-77.62q.51-57.52-5.48-66.59c-3.16-4.79-13.83-10.66-20.93-11.5-.56-.07-1.15-.12-1.79-.14h0ZM109.64,36.13c-3.1,2.87-8.15,3.27-13.87,1.12-5.13-1.93-7.93-4.32-8.73-7.51-.63-2.51,0-3.65,4.06-7.71,3.92-3.92,6.87-5.69,10.42-5.88,1.18-.07,2.41.05,3.79.3,5.18.97,7.18,2.84,7.91,7.37.88,5.41-.21,9.18-3.59,12.31ZM103.79,20.34c-3.59,0-5.21,2.43-3.21,4.84,1.01,1.21.82,1.99-.95,3.75-2.5,2.49-2.95,6.1-.88,6.93,3.15,1.27,6.48.56,8.96-1.93,4.93-4.93,2.43-13.6-3.92-13.6ZM3.96,37.92c-.44.02-.9.09-1.35.2-2,.5-2.6,1.38-2.6,3.79,0,1.73.28,3.93.64,4.87,1.47,3.83,9.1.25,9.1-4.26,0-2.76-2.67-4.76-5.78-4.6h0Z"/>
  <path class="st0" d="M166.26,160.83c.02.13.02.23.02.3,0,.08-.02.15-.06.18-.04.04-.09.06-.15.06-.29,0-.58-.03-.86-.08-.28-.05-.57-.12-.85-.22-.25.05-.46.08-.64.1-.15.02-.25.04-.32.07-.07.03-.1.07-.1.12.03.05.07.11.13.17.05.06.12.12.2.17.05.04.11.12.18.25.07.13.14.3.22.51.03.08.05.17.06.24.01.08.02.15.02.22,0,.16-.02.36-.05.6s-.06.44-.1.59c-.07.3-.12.55-.16.74-.04.2-.07.34-.09.44-.02.08-.03.17-.03.28,0,.11-.02.23-.02.37,0,.12-.04.26-.09.43-.05.17-.11.37-.16.59,0,.1-.01.21-.03.34-.02.13-.05.28-.09.45-.02.1-.06.21-.11.34-.05.13-.1.27-.14.44.02.12.03.23.03.36-.03.21-.06.44-.09.67-.05.33-.09.66-.14,1-.05.34-.09.66-.13.98-.05.09-.1.2-.15.31,0,.05,0,.14.03.25s.03.2.03.27c0,.08-.02.21-.05.37-.03.17-.05.29-.05.36,0,.15,0,.37-.01.68,0,.31-.01.54-.01.69.04.13.07.26.1.38-.02.11-.05.19-.08.26-.03.07-.06.12-.11.16-.14.08-.26.15-.38.21-.08.08-.14.14-.19.18-.05.05-.09.07-.13.07-.17,0-.29-.02-.36-.07-.07-.05-.1-.11-.1-.18.02-.25.04-.5.08-.74-.02-.03-.03-.08-.05-.14-.02-.06-.05-.14-.09-.23-.04-.6-.09-1.21-.15-1.84.02-.45.03-.91.03-1.37,0-.21,0-.48.03-.81.02-.33.06-.7.11-1.13.05-.43.09-.81.11-1.13.02-.32.03-.59.03-.79,0-.09,0-.21.03-.35.02-.14.04-.32.06-.52.02-.18.05-.34.07-.48s.03-.27.03-.38c0-.06,0-.13-.01-.2,0-.07-.02-.13-.02-.18.08-.19.13-.35.17-.47.04-.12.06-.2.06-.24-.03-.1-.07-.2-.1-.3.05-.11.1-.3.15-.58.05-.28.11-.65.17-1.1v-.33c0-.13,0-.29.01-.47l-.07-.21s-.09-.03-.17-.06c-.08-.02-.18-.04-.3-.06l-.15.1c-.1.02-.2.05-.3.07-.1.02-.21.05-.33.08-.8.22-1.59.44-2.37.66-.06,0-.11-.02-.15-.07-.04-.05-.06-.12-.06-.2,0-.05.02-.13.06-.24,0-.01.01-.03.02-.05-.48.37-.9.67-1.25.9-.55.36-.94.55-1.16.55-.11,0-.19-.03-.25-.09-.06-.06-.09-.15-.09-.28,0-.21.17-.43.52-.68s.51-.44.51-.57l-.1-.07s-.08.01-.13.04c-.05.02-.1.05-.16.09-.67.54-1.18,1.03-1.52,1.47-.34.43-.51.81-.51,1.13,0,.25.04.51.13.77.09.26.22.53.38.81.12.19.3.43.53.73s.53.65.89,1.06c.5.58.88,1.02,1.15,1.33.27.31.42.48.45.49.15.2.28.4.39.6s.18.39.22.58c.04.15.06.33.08.54.02.21.02.48.02.78,0,.18.03.28.08.31.05.03.14.04.26.04.05,0,.08,0,.11-.03.03-.02.06-.04.09-.07l.46,1.06c-.11.08-.34.16-.71.22-.36.06-.84.11-1.42.16-.67.66-1.35,1.21-2.02,1.64-.67.44-1.34.76-1.99.96-.15.05-.33.1-.53.15-.12,0-.26-.02-.4-.07-.15-.05-.31-.12-.48-.21-.18-.12-.33-.23-.43-.33s-.15-.22-.15-.33c0-.23.11-.45.33-.67s.55-.42.98-.61c.86-.4,1.71-.8,2.54-1.21.12,0,.21.03.26.08.05.05.08.11.08.19,0,.21-.15.38-.44.52-.29.14-.44.24-.44.3.05.08.1.12.14.12.1,0,.32-.15.66-.45.34-.3.51-.49.5-.56l-.06-.26.02-.05c.2-.18.35-.33.44-.47.1-.14.14-.25.14-.33,0-.19-.1-.45-.29-.77-.19-.32-.48-.71-.86-1.16-.29-.35-.58-.67-.87-.95-.29-.28-.57-.53-.84-.74-.11-.09-.2-.18-.28-.27s-.14-.17-.18-.25c-.08-.15-.15-.28-.2-.38-.05-.1-.09-.16-.13-.2-.04-.05-.09-.1-.16-.17-.07-.07-.14-.14-.24-.22-.16-.17-.29-.4-.37-.7-.09-.3-.13-.67-.13-1.12,0-.29.04-.57.12-.84.08-.27.2-.52.35-.73.02-.05.05-.1.07-.16s.05-.13.08-.21c.18-.36.48-.75.9-1.17.42-.42.97-.86,1.66-1.33.09-.05.2-.11.33-.18.13-.08.28-.18.44-.3.09-.08.19-.15.3-.21.11-.06.24-.12.4-.17.21-.08.44-.18.7-.28.38-.2.7-.34.95-.44.25-.09.44-.14.58-.14.25,0,.44.08.57.23.08.1.13.24.16.39.3-.09.58-.16.85-.19.31-.04.59-.04.85-.01.31-.09.66-.16,1.03-.21s.78-.07,1.24-.07c.08,0,.21.01.37.04.16.03.3.04.4.04.15.02.26.05.33.07.08.02.2.05.34.08l.32-.09c.07,0,.14.04.22.09.08.05.18.11.29.17.06-.04.15-.08.26-.14.11,0,.21.04.28.13s.12.21.14.37v.36c0,.12,0,.24-.02.37,0,.06,0,.16.01.29ZM176.85,158.37c-.24,0-.44.05-.6.14s-.27.24-.33.42c-.15.38-.27.69-.36.93-.08.25-.14.43-.17.54-.11.31-.22.59-.3.83-.09.24-.16.43-.22.59-.18.97-.34,1.8-.48,2.48-.14.68-.29,1.21-.43,1.6-.06.31-.12.59-.18.83-.06.24-.11.44-.15.59-.16.48-.32.95-.48,1.41s-.31.93-.44,1.39c-.14.26-.26.48-.38.67-.11.19-.22.34-.32.47-.09.14-.18.28-.28.43s-.19.29-.29.42c-.13.17-.27.29-.41.37-.14.08-.3.12-.47.12-.33,0-.63-.17-.89-.51s-.49-.85-.67-1.52c-.13-.5-.23-1-.31-1.49s-.12-.98-.12-1.44c0-.48.02-.93.05-1.37-.03-.28-.06-.54-.09-.77l.13-.37c.05-.15.09-.35.12-.63.03-.27.04-.61.04-1.01,0-.21.05-.51.14-.92s.14-.73.14-.95c0-.25-.03-.46-.1-.64-.07-.18-.17-.33-.31-.45-.18-.14-.35-.29-.53-.46-.08-.18-.15-.32-.21-.41s-.13-.14-.2-.14c-.2,0-.36.1-.48.29-.12.19-.2.47-.25.84-.1,1.01-.18,1.89-.23,2.64-.05.75-.08,1.37-.08,1.84,0,.28.02.71.05,1.28.03.57.05,1,.05,1.28,0,.1,0,.25-.03.46-.02.21-.03.37-.03.47,0,.18.04.44.12.78.08.34.11.6.11.76,0,.83.11,1.58.34,2.25.23.67.58,1.28,1.05,1.83.12.14.28.25.51.32.22.08.48.11.77.11.12-.05.26-.08.4-.11.28-.08.53-.17.73-.28s.38-.23.52-.36c.08-.08.21-.21.37-.4.16-.19.34-.42.55-.71l.05-.16s.09-.13.18-.26c.09-.13.19-.29.32-.5.1-.18.19-.31.27-.41s.14-.16.19-.17c.03.02.06.05.07.09s.03.1.03.15c0,.05,0,.11-.03.2s-.04.2-.07.33c-.02.15-.04.28-.06.38-.02.1-.03.18-.03.24.02.09.02.17.02.23-.03.1-.05.18-.07.25-.02.07-.03.12-.05.17.04.08.07.14.09.2s.04.1.05.14c-.03.1-.06.19-.09.26-.03.08-.05.13-.07.17.02.07.03.12.05.17.02.04.03.08.03.12-.02.1-.05.19-.08.26v.09c0,.15.06.32.2.49s.26.26.4.26c.15,0,.31-.05.48-.16s.36-.26.54-.47c.18-.18.32-.36.43-.52.11-.16.19-.31.24-.45,0-.05-.02-.1-.07-.18s-.12-.16-.22-.27c-.02-.18-.05-.38-.07-.59,0-.15,0-.3.02-.47.02-.17.05-.36.09-.57.05-.21.08-.4.11-.55.03-.15.04-.27.04-.34.05-.53.11-1.04.19-1.53.08-.49.18-.95.3-1.38.05-.25.08-.46.11-.65.03-.19.04-.35.05-.5.07-.24.13-.45.18-.64s.09-.34.11-.47c.38-1.36.67-2.56.85-3.62.18-1.05.27-1.95.27-2.67,0-.38-.03-.67-.1-.86-.07-.19-.17-.28-.32-.28ZM187.74,172.52c-.22.11-.49.21-.82.3-.51.12-1.01.24-1.49.35-.23.08-.43.14-.61.2-.18.05-.32.1-.43.15,1.26-1.33,2.2-2.59,2.84-3.8s.95-2.34.95-3.42c0-.67-.15-1.32-.45-1.94-.3-.62-.76-1.2-1.39-1.75-.4-.35-.9-.71-1.51-1.09s-1.32-.77-2.13-1.19c-.08-.04-.18-.08-.31-.11-.13-.04-.29-.07-.47-.1-.17-.04-.32-.08-.45-.13s-.24-.11-.33-.17c-.04-.02-.08-.02-.13-.02-.15.02-.28.04-.37.06-.11-.05-.22-.1-.33-.16-.12-.06-.23-.12-.33-.17-.08-.03-.19-.06-.33-.09-.15-.03-.31-.04-.49-.04-.08.03-.15.06-.23.09-.08.03-.15.05-.23.07-.16-.03-.35-.06-.56-.1-.06,0-.11.02-.14.06-.03.04-.05.09-.05.16,0,.05.02.13.05.23.03.1.08.23.13.38-.03.15-.07.31-.12.46,0,.1.05.2.16.29.1.09.26.18.46.28l.94.46c.11.05.23.08.34.1.11.02.21.03.29.03.18.02.31.05.4.09.09.04.13.08.13.14,0,.07-.04.12-.12.17-.08.04-.2.07-.36.1-.07.12-.23.3-.47.55-.25.24-.38.4-.4.49-.05.21-.09.4-.12.55-.03.15-.07.28-.1.38-.03.08-.06.24-.08.45-.02.22-.05.5-.08.86-.03.28-.07.52-.11.74s-.09.39-.14.54l.14.59c-.09.42-.18.88-.25,1.38-.08.5-.13,1.03-.17,1.6-.05.51-.09,1.01-.13,1.52-.04.51-.08,1.01-.13,1.51.02.08.05.15.07.2l-.14.66c.05.19.09.33.14.42.05.09.1.13.15.13.11,0,.26-.13.45-.38s.42-.64.69-1.16l.46-2.26c.03-.19.07-.38.11-.58,0-.23.06-.68.17-1.34.12-.67.29-1.54.52-2.63.21-.97.39-1.79.56-2.46.16-.67.3-1.2.41-1.59.2.11.42.23.66.36.24.13.5.27.78.41.36.18.72.4,1.07.68.35.28.69.6,1,.95.38.43.65.84.83,1.22.18.38.27.75.27,1.1,0,.51-.03.95-.1,1.31-.07.36-.18.63-.33.8-.08.08-.14.16-.2.24-.06.07-.11.13-.14.17-.22.37-.41.69-.57.97-.16.28-.29.51-.4.7-.1.08-.18.16-.25.25-.07.09-.13.19-.2.29-.04.05-.15.16-.33.34-.18.18-.43.42-.74.72-.23.22-.44.41-.63.56-.19.15-.38.27-.55.36-.14.09-.26.17-.37.24-.11.07-.21.13-.28.19-.31.1-.59.18-.84.23-.25.05-.45.12-.6.22-.16.1-.29.24-.41.41-.14.18-.26.34-.38.48-.12.13-.21.25-.29.33.12.16.23.29.33.37s.19.14.28.17c.51-.05.94-.12,1.32-.19.37-.07.69-.17.95-.28l.17-.15c.31-.08.7-.25,1.17-.52.46-.27.99-.64,1.59-1.11.42-.05.79-.1,1.1-.13.31-.03.58-.05.8-.07.16-.04.3-.08.43-.12s.24-.07.33-.09c.34-.1.63-.21.89-.34.25-.13.46-.27.61-.42-.12-.33-.27-.68-.44-1.06-.14.15-.32.27-.54.38ZM198.14,172.15c-.17.1-.32.18-.44.24s-.23.1-.3.13c-.21.08-.41.16-.62.24-.2.08-.41.16-.61.24-.21.08-.42.14-.65.18-.23.05-.45.07-.67.07-.21,0-.44.05-.7.16s-.42.17-.5.18l-.72.06c-.21-.01-.41-.03-.61-.05-.09,0-.25,0-.47.01s-.52.04-.89.07c-.03.02-.06,0-.08-.03-.02-.03-.03-.09-.03-.17,0-.23.02-.49.06-.78.04-.29.09-.6.16-.93l-.08-.34c.06-.31.12-.56.16-.77s.07-.36.08-.46c.04-.47.23-.86.57-1.15.35-.29.84-.5,1.48-.63.53-.05,1.05-.09,1.56-.14s1.02-.1,1.55-.16l.63.25c.2,0,.35-.12.45-.36.1-.24.15-.59.15-1.05-.05-.13-.11-.25-.18-.36-.06-.11-.14-.21-.21-.28l-.32-.15-.61.11-.32-.09c-.53.05-.94.1-1.24.14-.29.04-.48.07-.55.09-.18.08-.35.14-.51.2-.17.05-.33.1-.49.15-.13.03-.33.17-.59.42-.26.25-.43.38-.5.38-.08,0-.13-.03-.17-.08s-.06-.13-.06-.23c0-.07,0-.14.02-.21.02-.07.03-.14.06-.22.02-.06.06-.23.14-.52.08-.28.19-.7.32-1.25.14-.51.28-1.05.41-1.6,0-.15,0-.29.03-.4.02-.12.05-.21.09-.29.17-.36.33-.64.48-.85.15-.21.29-.33.41-.38l.4.15s.08-.04.13-.07c.05-.03.09-.08.13-.14.38-.08.77-.15,1.16-.23.94,0,1.52.09,1.74.26.21.17.41.26.57.26.22,0,.39-.13.49-.38s.16-.65.16-1.18c0-.25-.07-.46-.22-.63-.15-.18-.37-.31-.68-.4-.07,0-.14.01-.22.01s-.17,0-.28-.01c-.14-.02-.25-.04-.33-.05s-.14-.02-.19-.02-.1,0-.16.02c-.06.01-.12.03-.2.05-.11,0-.25.03-.4.06-.16.01-.33.03-.51.04s-.35.02-.53.03c-.38.05-.69.17-.94.36s-.52.38-.81.56c-.13.12-.25.21-.34.3-.1.08-.19.16-.26.22-.18.11-.32.19-.42.25s-.18.11-.22.14c-.08.13-.16.25-.22.35s-.11.19-.15.26c-.02.03-.07.07-.15.13-.18.19-.33.39-.45.6s-.21.42-.26.66c-.3,1.29-.59,2.57-.87,3.84.02.35.03.7.05,1.04-.06.45-.14.86-.23,1.22-.08.6-.14,1.12-.19,1.55s-.08.8-.1,1.1c0,.04,0,.08.01.13,0,.05.03.11.07.18,0,.05-.02.14-.07.26-.05.12-.07.2-.07.24-.02.43-.04.78-.05,1.05-.01.27-.02.46-.02.58,0,.25.04.41.13.48.09.07.26.1.52.1l.07.08-.07.44c0,.1.06.18.17.23.11.05.28.08.5.09.14.01.28.02.43.03.15,0,.3,0,.44,0l.44-.2.71.15c.28-.07.54-.15.8-.24s.5-.17.73-.26c.43-.17.78-.29,1.04-.38.26-.08.45-.13.55-.13.05,0,.15-.04.29-.1.14-.07.32-.17.55-.31.29-.13.55-.25.78-.34s.42-.18.58-.23c.16-.1.3-.19.42-.28s.22-.17.3-.25l-.44-1.06ZM210.4,159.04s-.08-.05-.16-.05h-.09c-.21.13-.41.3-.59.5-.18.2-.33.44-.45.72-.05.14-.12.34-.2.6-.08.26-.16.6-.24,1-.1.46-.21.93-.32,1.41,0,.18.02.44.06.79s.06.61.06.79c0,.1,0,.21-.02.34-.02.13-.04.28-.07.45-.02.18-.05.33-.07.47-.03.14-.04.25-.04.32-.04.76-.08,1.36-.11,1.81s-.07.74-.1.87c-.05.21-.1.47-.17.77s-.14.65-.21,1.05c-.06.26-.13.49-.19.7-.05.15-.08.28-.1.4-.02.12-.03.22-.03.3,0,.19-.02.33-.05.42-.03.09-.09.13-.17.13-.09,0-.23-.16-.41-.48-.18-.32-.42-.81-.7-1.47-.28-.63-.54-1.29-.79-1.97-.25-.69-.49-1.4-.72-2.13-.25-.67-.5-1.31-.75-1.92-.18-.45-.31-.83-.4-1.13-.09-.3-.14-.53-.14-.68,0-.12.03-.25.1-.4.07-.14.16-.3.27-.48.02-.08.05-.2.09-.36.05-.15.11-.34.2-.58.08-.21.13-.38.17-.51.04-.13.06-.21.06-.25,0-.07,0-.12-.03-.16-.02-.04-.06-.07-.11-.1-.09-.04-.2-.09-.33-.15-.11.03-.21.08-.3.16-.09.08-.19.18-.29.3-.12.15-.21.28-.29.37-.08.09-.15.16-.2.2-.05-.02-.13-.08-.24-.18s-.21-.16-.28-.16c-.06,0-.16.02-.3.05-.14.03-.25.05-.32.05-.18,0-.33.03-.44.09s-.19.14-.24.25c-.04.15-.08.31-.13.47s-.09.31-.14.47l.18.75c-.18,1.2-.38,2.4-.58,3.59-.18,1.21-.33,2.16-.45,2.83-.12.68-.19,1.09-.23,1.25-.05.2-.1.37-.13.52-.03.15-.06.27-.07.37-.05.39-.09.74-.13,1.04-.04.3-.07.54-.1.72-.02.06-.05.21-.1.43-.05.23-.12.54-.2.94-.08.35-.13.64-.17.87-.04.23-.06.4-.06.51,0,.18.02.32.06.42.04.1.1.14.17.12.11-.03.18-.06.23-.1.05-.03.08-.07.09-.1.15,0,.27-.06.36-.14s.14-.22.17-.4c.11-.34.21-.64.29-.89.08-.25.15-.46.2-.64.04-.22.07-.45.1-.68l.21-.38c.06-.23.12-.45.16-.67.05-.21.09-.42.14-.62.17-.6.33-1.16.47-1.68s.28-1,.39-1.45c.08-.16.17-.34.24-.55.07-.32.13-.6.18-.83.05-.23.11-.42.16-.58l.08-.03c.11.18.21.34.29.5s.15.32.2.49c.31.68.58,1.27.81,1.77.23.5.43.92.58,1.25.04.14.07.26.1.37.03.11.05.2.07.26.05.18.16.46.33.82.18.36.41.83.71,1.38.31.62.59,1.08.82,1.39.23.3.4.45.52.45.05,0,.31-.08.77-.25.46-.17.7-.26.72-.29l.36-.58c.16-.48.29-.93.4-1.34.1-.41.17-.79.21-1.13.16-.56.3-1.19.41-1.9s.2-1.49.26-2.35c.07-.71.14-1.43.2-2.14s.12-1.43.17-2.15c.06-.51.1-.91.13-1.21.02-.3.03-.5.03-.59,0-.25,0-.45.02-.63.02-.17.03-.3.05-.38.03-.13.06-.29.08-.48-.02-.15-.05-.3-.07-.44.03-.08.06-.21.1-.37,0-.07-.01-.12-.04-.15ZM220.8,172.67c-.19.15-.4.27-.63.36-.09.09-.17.18-.22.25-.06.08-.11.14-.14.2-.13,0-.27.03-.43.1-.15.07-.31.17-.46.33-.18.06-.33.12-.45.17s-.23.11-.3.16c-.44.08-.78.15-1.03.18s-.39.06-.43.06c-.42,0-.82-.09-1.19-.27-.37-.18-.72-.45-1.05-.8-.11-.08-.22-.17-.33-.26-.05-.04-.1-.09-.14-.15s-.07-.12-.09-.17c-.04-.22-.09-.42-.16-.6-.07-.18-.15-.33-.23-.46-.15-.23-.25-.4-.32-.52-.07-.12-.1-.2-.1-.24l.11-1.05c-.05-.19-.11-.4-.18-.63.08-.37.15-.69.2-.96.05-.27.08-.5.11-.68.08-.61.22-1.21.44-1.81.21-.6.5-1.2.85-1.8.43-.69.88-1.23,1.35-1.62.47-.39.96-.63,1.48-.71.09-.02.2-.05.33-.08.13-.03.27-.08.43-.14.2.06.4.11.6.16.2.04.4.09.6.13.21.08.36.21.47.37.1.16.16.35.16.56,0,.15-.05.32-.15.51-.1.19-.26.39-.49.59-.06.08-.14.27-.24.58s-.21.73-.34,1.27c-.12.49-.21.89-.28,1.21s-.09.53-.09.63c.02.3.05.59.07.88,0,.05-.01.13-.04.24-.03.12-.04.2-.04.25,0,.06.03.11.1.13.07.03.19.04.36.04.35-.09.68-.18.99-.25.08-.02.17-.15.29-.38.11-.23.25-.58.41-1.03.15-.41.28-.76.37-1.04.1-.28.15-.48.15-.6.09-.46.17-.86.22-1.21.06-.35.11-.64.16-.87.02-.08.03-.22.03-.43s.01-.49.01-.84c0-.75-.07-1.33-.22-1.72s-.37-.63-.68-.7l-.37-.07c-.15-.11-.34-.19-.59-.24-.25-.05-.54-.08-.9-.08-.16,0-.51.08-1.03.23s-.84.27-.92.34c-.08.06-.14.12-.2.17-.06.05-.11.09-.14.12-.15.08-.28.14-.39.2-.11.05-.2.1-.28.13-.26.25-.48.45-.67.6-.19.16-.35.27-.48.35-.14.15-.26.28-.36.4s-.18.22-.25.3c-.31.31-.59.62-.83.91-.24.29-.44.58-.59.85-.18.36-.35.73-.53,1.12-.18.38-.35.76-.53,1.14-.05.1-.08.19-.11.27-.03.08-.04.15-.04.21l.03.25c-.05.19-.11.36-.17.52s-.12.28-.17.39c-.07.56-.12,1-.16,1.31-.04.31-.06.5-.06.56s.02.15.05.26c.03.12.08.26.14.44l-.13.52c0,.06.02.2.07.4s.13.48.24.82l.31.99c.06.17.16.36.3.56.14.21.33.42.56.66.24.25.46.44.66.57.2.14.38.21.52.22l.33.05.14.14c.09,0,.21.03.34.07.14.04.31.08.51.14.16.05.31.09.45.12.14.03.27.05.38.05.37,0,.73-.03,1.08-.1.35-.07.69-.17,1-.32.21-.08.48-.21.8-.38.32-.17.68-.38,1.1-.62.46-.28.86-.53,1.2-.76.34-.23.63-.43.86-.61,0-.04-.15-.39-.46-1.06-.18.2-.36.37-.55.52ZM241.33,168.28c.06.06.1.15.1.25,0,.14-.02.25-.06.33s-.1.14-.18.19c-.1.06-.18.12-.23.16-.06.05-.1.08-.12.12l.15.71-.21,1.63c0,.14-.01.32-.03.53s-.06.46-.1.75c-.08.21-.13.38-.17.52-.04.14-.06.23-.06.28.04.13.07.27.1.41-.05.21-.09.42-.14.62-.05.21-.1.41-.14.61-.08.27-.19.47-.33.59-.14.13-.3.19-.48.19-.1,0-.17-.04-.22-.13-.05-.09-.08-.22-.08-.4,0-.08.01-.19.04-.33s.04-.26.04-.33c0-.05,0-.13-.02-.22-.02-.09-.02-.17-.02-.24,0-.21.02-.56.06-1.03.04-.47.06-.83.06-1.06-.04-.13-.08-.26-.11-.4.02-.15.04-.29.05-.44,0-.15,0-.29-.01-.42l.17-.31-.15-1.07-.08-.04s-.11.02-.2.05c-.09.04-.2.09-.33.17-.09.03-.24.06-.43.1-.2.04-.45.06-.78.06-.14.07-.27.13-.39.18-.18.04-.4.11-.67.2s-.58.21-.93.35c-.21.1-.4.18-.57.24-.17.06-.32.09-.43.09-.09,0-.17.03-.23.1-.06.07-.11.17-.15.3-.02.12-.08.29-.17.51-.09.21-.21.48-.35.81-.03.08-.07.21-.13.39-.05.18-.12.4-.18.66-.05.1-.1.22-.16.37s-.13.32-.21.52c0,.09,0,.21-.03.34-.02.13-.05.29-.09.47-.04.11-.09.24-.16.41s-.15.35-.25.55c-.06.12-.15.21-.26.27-.12.06-.26.09-.45.09-.13,0-.23-.04-.3-.13-.07-.09-.11-.22-.11-.41,0-.2.02-.43.07-.68.05-.26.12-.54.22-.84.11-.41.2-.74.28-.99.03-.1.05-.17.07-.25-.04.03-.08.06-.12.1-.26.2-.58.43-.95.68-.4.28-.73.47-1.01.6s-.48.18-.63.18c-.31,0-.6-.08-.85-.24s-.46-.41-.64-.76c-.02-.05-.05-.1-.07-.16s-.06-.12-.1-.18c-.19-.18-.38-.37-.55-.55-.08-.09-.25-.31-.48-.66-.24-.35-.54-.83-.9-1.43-.16-.28-.33-.57-.52-.86s-.38-.59-.57-.89c-.05.08-.11.25-.18.54-.07.28-.13.66-.19,1.14,0,.08-.02.2-.07.38-.05.18-.07.31-.07.39,0,.04,0,.1.03.19.02.09.03.15.03.19,0,.25-.03.62-.1,1.12-.07.5-.1.87-.1,1.12,0,.2-.03.35-.1.44-.07.09-.17.14-.33.14-.16-.02-.29-.04-.38-.07-.12.03-.22.05-.32.07-.08,0-.15-.05-.2-.16s-.07-.27-.07-.49c0-.08.02-.2.06-.37.04-.17.06-.3.06-.39,0-.06-.01-.16-.03-.29-.02-.13-.03-.23-.03-.29s.02-.25.05-.57c.03-.32.09-.79.17-1.39.07-.62.13-1.11.18-1.47.05-.36.09-.58.11-.66.02-.05.05-.12.09-.2s.06-.17.08-.28l-.17-.66c.06-.35.14-.87.22-1.56.09-.69.19-1.55.32-2.59.07-.61.12-1.09.16-1.42.04-.34.06-.53.07-.58.11-.31.27-.58.49-.79.22-.21.51-.37.85-.48.05-.03.1-.07.17-.13.06-.05.14-.11.24-.18.1-.02.23.12.38.41s.23.51.23.64c0,.06,0,.14-.02.25-.02.1-.05.22-.09.36-.05.17-.1.31-.13.41s-.05.18-.06.22c-.12.42-.26.95-.41,1.59-.15.64-.32,1.39-.51,2.25-.02.07-.03.16-.05.26-.02.1-.05.23-.1.37-.03.13-.06.25-.08.36s-.03.2-.03.28c0,.1.04.21.12.33.23-.08.6-.4,1.1-.94.51-.54,1.16-1.31,1.95-2.29.81-1,1.42-1.81,1.83-2.43s.61-1.06.61-1.32c0-.09-.06-.21-.18-.35-.12-.14-.18-.26-.18-.36,0-.2.09-.36.27-.5s.46-.23.84-.3c.08,0,.19-.08.36-.2s.3-.19.41-.19c.11.02.22.04.32.05.13-.07.26-.14.38-.22.12.12.2.24.25.38.05.14.08.3.08.49,0,.37-.04.69-.13.97-.09.28-.22.5-.41.67-.05.05-.11.1-.17.16-.06.06-.12.13-.18.21-.12.26-.29.55-.51.86-.21.31-.47.66-.77,1.04-.66.81-1.26,1.53-1.82,2.14-.55.61-1.05,1.13-1.49,1.54-.18.18-.32.33-.41.45-.09.13-.14.24-.14.33.13.25.25.49.35.7.18.44.38.88.58,1.3.2.42.4.85.6,1.28.34.64.65,1.12.94,1.44.29.32.55.48.79.48.04,0,.15-.04.34-.13.19-.09.44-.21.76-.37.07-.1.22-.22.44-.36.23-.14.34-.24.35-.28.1.22.18.39.25.54.02-.05.03-.09.05-.15.07-.19.13-.41.2-.66l-.06-.09-.37.06c-.08,0-.15-.04-.18-.1-.04-.06-.06-.14-.06-.24,0-.05,0-.11.02-.18.02-.07.04-.14.07-.24-.02-.08-.04-.15-.04-.21,0-.05,0-.1,0-.14,0-.25.03-.47.09-.65.06-.18.15-.33.28-.45.03-.03.11-.08.24-.14s.29-.13.5-.22c.15-.07.26-.15.35-.25.09-.1.14-.21.14-.35.02-.11.07-.23.14-.37s.15-.29.24-.45c.03-.05.12-.31.28-.79.15-.48.37-1.19.64-2.13.08-.28.15-.53.23-.74s.14-.38.2-.53c.25-.65.45-1.08.6-1.28s.27-.37.35-.5v-.06l-.36-.56.45-.52.58-.11c.12-.02.22-.12.32-.32.1-.2.26-.42.5-.66.05-.02.14-.06.26-.14.12-.08.27-.19.45-.34.16-.13.3-.23.41-.29.12-.06.2-.09.26-.09.21,0,.36.04.45.13.09.08.14.2.14.33,0,.17-.09.41-.26.74-.18.32-.26.57-.26.74,0,.08.02.14.05.19.03.05.07.08.12.1l1.38.75c.08.03.15.15.21.36.06.21.11.5.15.87.05.31.08.56.11.76s.04.37.04.49c-.05.33-.11.66-.16,1,.08.43.16.88.25,1.36-.05.45-.1.91-.15,1.38,0,.05,0,.09.03.12.02.03.05.06.09.06.13,0,.23.04.29.1ZM239.27,166.74l-.14-.52.05-.47c-.03-.17-.06-.33-.07-.48-.02-.15-.02-.27,0-.37-.02-.03-.04-.08-.08-.15-.04-.07-.08-.14-.13-.22-.08-.13-.16-.25-.24-.37-.08-.12-.16-.24-.24-.36-.11-.15-.22-.25-.35-.32-.12-.07-.25-.1-.38-.1-.15,0-.31.12-.47.37-.16.25-.31.62-.45,1.12-.02.06-.09.19-.19.38s-.25.44-.44.75c-.03.29-.13.65-.31,1.09-.18.43-.42.94-.74,1.52-.04.05-.06.1-.06.14,0,.04,0,.08,0,.13,0,.05.01.09.04.12.03.03.07.04.12.04.08,0,.2,0,.37-.02.17-.02.3-.02.37-.02.18,0,.44-.04.78-.13.34-.08.61-.13.78-.13.11.02.21.04.32.06.19-.04.38-.08.56-.13.18-.05.37-.09.56-.13.08-.01.13-.04.17-.09.04-.04.06-.1.06-.17-.02-.23-.02-.39-.02-.47,0-.15,0-.31.03-.49.02-.18.05-.37.09-.56ZM257.36,168.28c.06.06.1.15.1.25,0,.14-.02.25-.06.33-.04.08-.1.14-.18.19-.1.06-.18.12-.23.16s-.1.08-.12.12l.15.71-.21,1.63c0,.14-.01.32-.04.53-.02.21-.06.46-.1.75-.08.21-.13.38-.17.52-.04.14-.06.23-.06.28.04.13.07.27.1.41-.05.21-.09.42-.14.62-.05.21-.1.41-.14.61-.08.27-.2.47-.33.59-.14.13-.3.19-.48.19-.1,0-.18-.04-.22-.13-.05-.09-.08-.22-.08-.4,0-.08.01-.19.04-.33s.04-.26.04-.33c0-.05,0-.13-.02-.22-.02-.09-.02-.17-.02-.24,0-.21.02-.56.06-1.03.04-.47.06-.83.06-1.06-.04-.13-.08-.26-.12-.4.02-.15.04-.29.04-.44,0-.15,0-.29,0-.42l.17-.31-.15-1.07-.08-.04s-.11.02-.2.05c-.09.04-.2.09-.33.17-.09.03-.24.06-.43.1-.2.04-.46.06-.78.06-.14.07-.27.13-.39.18-.18.04-.4.11-.67.2-.27.1-.58.21-.93.35-.21.1-.4.18-.57.24-.17.06-.32.09-.43.09-.09,0-.17.03-.23.1-.06.07-.11.17-.15.3-.02.12-.08.29-.17.51-.09.21-.21.48-.35.81-.03.08-.07.21-.13.39-.05.18-.11.4-.18.66-.04.1-.1.22-.16.37-.06.15-.13.32-.21.52,0,.09,0,.21-.03.34s-.05.29-.09.47c-.04.11-.09.24-.16.41s-.15.35-.25.55c-.06.12-.15.21-.26.27-.12.06-.26.09-.45.09-.13,0-.23-.04-.3-.13-.07-.09-.11-.22-.11-.41,0-.2.02-.43.07-.68.05-.26.12-.54.22-.84.11-.41.2-.74.28-.99.08-.25.12-.44.13-.56.02-.05.06-.15.1-.29s.1-.31.16-.51c.07-.19.13-.41.2-.66l-.06-.09-.37.06c-.08,0-.15-.04-.18-.1-.04-.06-.06-.14-.06-.24,0-.05,0-.11.02-.18.02-.07.04-.14.07-.24-.02-.08-.04-.15-.04-.21,0-.05,0-.1,0-.14,0-.25.03-.47.09-.65.06-.18.15-.33.28-.45.03-.03.11-.08.24-.14s.29-.13.5-.22c.15-.07.26-.15.35-.25s.14-.21.14-.35c.02-.11.07-.23.14-.37.07-.14.15-.29.24-.45.03-.05.12-.31.28-.79.15-.48.37-1.19.64-2.13.08-.28.15-.53.23-.74s.14-.38.2-.53c.25-.65.45-1.08.6-1.28.16-.2.28-.37.35-.5v-.06l-.36-.56.45-.52.58-.11c.12-.02.22-.12.32-.32s.26-.42.5-.66c.05-.02.14-.06.26-.14.12-.08.27-.19.45-.34.16-.13.3-.23.41-.29s.2-.09.27-.09c.21,0,.36.04.45.13.09.08.14.2.14.33,0,.17-.09.41-.26.74-.18.32-.26.57-.26.74,0,.08.02.14.05.19.03.05.07.08.12.1l1.38.75c.08.03.14.15.21.36.06.21.11.5.15.87.05.31.08.56.11.76s.04.37.04.49c-.05.33-.11.66-.16,1,.08.43.16.88.25,1.36-.04.45-.09.91-.15,1.38,0,.05,0,.09.03.12.02.03.05.06.09.06.13,0,.23.04.29.1ZM255.3,166.74l-.14-.52.05-.47c-.03-.17-.06-.33-.08-.48-.02-.15-.02-.27,0-.37-.01-.03-.04-.08-.08-.15-.04-.07-.08-.14-.13-.22-.08-.13-.15-.25-.23-.37-.08-.12-.16-.24-.24-.36-.11-.15-.22-.25-.35-.32-.12-.07-.25-.1-.38-.1-.15,0-.31.12-.47.37-.16.25-.31.62-.45,1.12-.02.06-.09.19-.19.38s-.25.44-.44.75c-.03.29-.13.65-.31,1.09-.18.43-.42.94-.73,1.52-.04.05-.06.1-.06.14,0,.04,0,.08,0,.13,0,.05.01.09.04.12.03.03.07.04.12.04.08,0,.2,0,.37-.02.17-.02.3-.02.37-.02.18,0,.44-.04.78-.13.34-.08.6-.13.78-.13.11.02.21.04.32.06.19-.04.38-.08.56-.13.18-.05.37-.09.56-.13.08-.01.13-.04.17-.09.04-.04.06-.1.06-.17-.02-.23-.02-.39-.02-.47,0-.15,0-.31.03-.49.02-.18.05-.37.09-.56ZM269.62,162.16c-.12-.34-.21-.56-.25-.65s-.17-.27-.4-.54c-.2-.25-.36-.45-.49-.59-.13-.14-.22-.22-.28-.25-.18-.07-.36-.14-.54-.2-.18-.07-.36-.12-.54-.18l-.16.06-.36-.09-1.07.13c-.21.08-.4.15-.56.22-.16.07-.3.14-.42.21-.24.13-.46.26-.66.39-.2.13-.39.26-.56.39-.05.07-.18.19-.38.37-.2.18-.45.41-.74.7-.87.84-1.57,1.81-2.11,2.93-.54,1.12-.9,2.4-1.09,3.84l-.23,1.72c.03.25.04.47.02.69-.01.21-.06.41-.13.6.11.43.21.78.28,1.06.07.28.13.46.17.55.12.3.27.56.43.77.16.21.34.4.53.55.22.16.43.28.62.37s.37.13.54.13c.11-.02.24-.05.39-.07l.51.1c.33-.05.65-.13.96-.26.31-.13.62-.29.93-.49.15-.1.35-.26.62-.47.27-.21.6-.49.99-.83.18-.17.4-.34.67-.53.05,0,.09.01.12.04s.04.07.04.12c-.02.11-.05.22-.08.31l.15.75c-.12.48-.22.89-.28,1.22-.07.33-.11.57-.12.72,0,.3-.02.55-.05.76-.02.21-.05.37-.08.49-.07.25-.12.46-.14.63-.03.17-.04.29-.04.36,0,.21.03.36.09.45.06.09.14.14.25.14.13,0,.23-.04.31-.13.08-.09.13-.22.16-.4.19-.06.34-.12.45-.17.11-.05.19-.1.25-.15.08-.07.14-.16.18-.28.04-.12.08-.25.11-.41.05-.25.09-.46.13-.63.04-.16.08-.29.13-.36.13-.27.24-.69.33-1.26.09-.58.19-.99.32-1.25.1-.2.18-.43.24-.7.06-.27.09-.57.11-.92.04-.28.07-.51.1-.72.03-.2.05-.37.07-.51.01-.09.05-.22.1-.39.05-.16.08-.29.08-.38,0-.28-.08-.48-.23-.62s-.39-.21-.7-.21c-.23,0-.44.05-.64.15-.2.1-.37.25-.53.46-.13.18-.26.38-.38.58-.13.2-.26.4-.41.6-.13.14-.25.26-.36.37-.11.11-.21.2-.28.26-.35.38-.63.67-.84.89s-.34.36-.41.42c-.24.19-.49.34-.77.45-.28.11-.57.16-.87.16-.21,0-.41-.03-.59-.09-.18-.06-.32-.15-.44-.26-.08-.08-.16-.2-.24-.37-.08-.17-.17-.37-.26-.61-.12-.33-.21-.66-.27-.99-.06-.33-.09-.66-.09-.99,0-.15.03-.46.08-.95.05-.49.14-1.15.26-1.98.08-.25.15-.47.21-.68.06-.21.12-.4.18-.57.03-.15.06-.26.08-.35.02-.09.05-.15.07-.18.1-.15.18-.3.25-.47.07-.17.14-.35.21-.55.16-.23.3-.43.41-.62.11-.18.2-.33.27-.46.08-.12.14-.21.2-.28s.1-.13.13-.18c.25-.3.46-.55.63-.75.18-.2.32-.34.43-.42.21-.18.43-.31.68-.4s.5-.13.76-.13c.51,0,.95.21,1.3.63s.64,1.05.86,1.89c.04.22.09.49.16.79,0,.18.04.32.11.42s.19.14.34.14c.24,0,.56-.2.98-.59.41-.39.62-.73.62-1.01,0-.15-.07-.4-.2-.74-.13-.34-.24-.58-.33-.71ZM279.61,172.15c-.17.1-.32.18-.44.24-.13.06-.23.1-.3.13-.21.08-.41.16-.62.24-.2.08-.41.16-.62.24-.21.08-.42.14-.65.18-.23.05-.45.07-.67.07-.21,0-.44.05-.7.16s-.42.17-.5.18l-.72.06c-.21-.01-.41-.03-.61-.05-.09,0-.25,0-.47.01s-.52.04-.88.07c-.03.02-.06,0-.08-.03-.02-.03-.03-.09-.03-.17,0-.23.02-.49.06-.78.04-.29.09-.6.16-.93l-.08-.34c.06-.31.12-.56.16-.77s.07-.36.08-.46c.04-.47.23-.86.58-1.15s.84-.5,1.48-.63c.53-.05,1.05-.09,1.56-.14s1.03-.1,1.55-.16l.63.25c.2,0,.35-.12.45-.36.1-.24.15-.59.15-1.05-.05-.13-.11-.25-.18-.36-.07-.11-.14-.21-.21-.28l-.32-.15-.61.11-.32-.09c-.53.05-.94.1-1.24.14-.29.04-.48.07-.55.09-.18.08-.35.14-.51.2s-.33.1-.49.15c-.13.03-.33.17-.59.42-.26.25-.43.38-.5.38-.08,0-.13-.03-.17-.08-.04-.05-.06-.13-.06-.23,0-.07,0-.14.02-.21.02-.07.04-.14.06-.22.02-.06.06-.23.14-.52.08-.28.19-.7.32-1.25.14-.51.28-1.05.41-1.6,0-.15,0-.29.03-.4.02-.12.05-.21.09-.29.17-.36.33-.64.48-.85.15-.21.29-.33.41-.38l.4.15s.08-.04.13-.07c.05-.03.09-.08.13-.14.38-.08.77-.15,1.16-.23.94,0,1.52.09,1.74.26.21.17.41.26.57.26.22,0,.39-.13.49-.38.1-.26.15-.65.15-1.18,0-.25-.07-.46-.22-.63-.15-.18-.37-.31-.68-.4-.07,0-.14.01-.22.01s-.17,0-.28-.01c-.14-.02-.25-.04-.33-.05-.08-.01-.14-.02-.19-.02s-.1,0-.16.02c-.06.01-.12.03-.2.05-.12,0-.25.03-.4.06-.16.01-.33.03-.51.04s-.35.02-.53.03c-.38.05-.69.17-.94.36s-.52.38-.81.56c-.13.12-.25.21-.34.3-.1.08-.19.16-.26.22-.18.11-.32.19-.42.25s-.18.11-.22.14c-.08.13-.16.25-.22.35s-.11.19-.15.26c-.02.03-.07.07-.15.13-.18.19-.33.39-.45.6-.13.21-.21.42-.26.66-.3,1.29-.59,2.57-.87,3.84.02.35.03.7.05,1.04-.06.45-.14.86-.23,1.22-.08.6-.14,1.12-.19,1.55s-.08.8-.1,1.1c0,.04,0,.08.01.13,0,.05.03.11.07.18,0,.05-.03.14-.07.26-.05.12-.08.2-.08.24-.02.43-.04.78-.05,1.05-.01.27-.02.46-.02.58,0,.25.04.41.13.48.09.07.26.1.52.1l.07.08-.07.44c0,.1.06.18.17.23.11.05.28.08.5.09.14.01.28.02.43.03s.3,0,.44,0l.44-.2.71.15c.28-.07.54-.15.8-.24.26-.09.5-.17.73-.26.43-.17.78-.29,1.04-.38.26-.08.45-.13.55-.13.05,0,.15-.04.29-.1.14-.07.32-.17.55-.31.29-.13.55-.25.78-.34.23-.1.42-.18.58-.23.16-.1.3-.19.42-.28s.22-.17.3-.25l-.44-1.06ZM291.87,159.04s-.08-.05-.16-.05h-.09c-.21.13-.41.3-.59.5-.18.2-.33.44-.45.72-.05.14-.12.34-.2.6-.08.26-.16.6-.24,1-.1.46-.21.93-.32,1.41,0,.18.02.44.06.79.04.35.06.61.06.79,0,.1,0,.21-.02.34-.02.13-.04.28-.07.45-.02.18-.05.33-.07.47-.03.14-.04.25-.04.32-.04.76-.08,1.36-.11,1.81s-.07.74-.1.87c-.05.21-.1.47-.17.77-.06.3-.13.65-.21,1.05-.06.26-.13.49-.2.7-.04.15-.08.28-.1.4-.02.12-.03.22-.03.3,0,.19-.02.33-.05.42s-.09.13-.17.13c-.09,0-.23-.16-.41-.48-.18-.32-.42-.81-.7-1.47-.28-.63-.54-1.29-.79-1.97-.25-.69-.49-1.4-.72-2.13-.25-.67-.5-1.31-.75-1.92-.18-.45-.31-.83-.4-1.13s-.14-.53-.14-.68c0-.12.03-.25.1-.4.07-.14.16-.3.27-.48.01-.08.05-.2.09-.36s.11-.34.2-.58c.08-.21.13-.38.17-.51.04-.13.06-.21.06-.25,0-.07,0-.12-.03-.16-.02-.04-.06-.07-.11-.1-.09-.04-.2-.09-.33-.15-.11.03-.21.08-.3.16-.09.08-.19.18-.29.3-.12.15-.21.28-.29.37-.08.09-.15.16-.2.2-.05-.02-.13-.08-.24-.18-.12-.11-.21-.16-.28-.16-.06,0-.16.02-.31.05-.14.03-.25.05-.32.05-.18,0-.33.03-.44.09-.11.06-.19.14-.24.25-.04.15-.08.31-.13.47s-.09.31-.14.47l.18.75c-.18,1.2-.38,2.4-.58,3.59-.18,1.21-.33,2.16-.45,2.83-.12.68-.19,1.09-.23,1.25-.05.2-.1.37-.13.52s-.06.27-.07.37c-.05.39-.09.74-.13,1.04s-.07.54-.1.72c-.02.06-.05.21-.1.43-.05.23-.12.54-.2.94-.08.35-.13.64-.17.87-.04.23-.06.4-.06.51,0,.18.02.32.06.42.04.1.1.14.17.12.11-.03.18-.06.23-.1.05-.03.08-.07.09-.1.15,0,.27-.06.36-.14.09-.09.14-.22.17-.4.12-.34.21-.64.29-.89s.15-.46.2-.64c.04-.22.07-.45.1-.68l.21-.38c.06-.23.12-.45.16-.67.05-.21.09-.42.14-.62.17-.6.33-1.16.47-1.68.15-.52.28-1,.39-1.45.08-.16.17-.34.24-.55.07-.32.13-.6.18-.83.05-.23.11-.42.16-.58l.08-.03c.12.18.21.34.29.5.08.16.15.32.2.49.31.68.58,1.27.81,1.77.23.5.43.92.58,1.25.04.14.07.26.1.37.03.11.05.2.07.26.05.18.16.46.33.82.18.36.41.83.71,1.38.31.62.59,1.08.82,1.39.23.3.4.45.52.45.05,0,.31-.08.77-.25s.7-.26.72-.29l.36-.58c.16-.48.29-.93.4-1.34.1-.41.17-.79.21-1.13.16-.56.3-1.19.41-1.9.12-.71.2-1.49.26-2.35.07-.71.14-1.43.2-2.14.07-.71.12-1.43.17-2.15.06-.51.1-.91.13-1.21.02-.3.04-.5.04-.59,0-.25,0-.45.02-.63.02-.17.03-.3.05-.38.03-.13.06-.29.08-.48-.02-.15-.05-.3-.07-.44.03-.08.06-.21.1-.37,0-.07-.01-.12-.04-.15ZM309.36,165.38c.04-.09.07-.18.1-.25.03-.08.05-.15.07-.21.21-.51.36-1.11.47-1.78.1-.67.16-1.42.16-2.24,0-.54-.05-.94-.14-1.21-.09-.27-.23-.4-.41-.4-.12.05-.25.11-.4.17-.1.05-.19.09-.27.14-.08.05-.14.1-.19.14-.15.15-.28.29-.38.4-.19.06-.36.13-.51.21-.15.08-.26.19-.34.32-.25.17-.44.32-.57.46s-.2.27-.2.37c0,.12.19.21.56.26.38.05.56.22.56.5,0,.33-.02.69-.05,1.09-.03.4-.08.82-.16,1.28-.07.39-.14.78-.21,1.18-.07.39-.14.78-.2,1.17-.02.12-.04.23-.04.32s-.02.16-.04.22c-.08.28-.15.53-.21.73s-.12.38-.17.52c-.05.35-.14.74-.25,1.16-.11.42-.24.89-.39,1.4-.18.7-.36,1.22-.51,1.56-.16.35-.3.52-.42.52-.09,0-.18-.05-.27-.14-.09-.1-.17-.25-.26-.46-.05-.12-.11-.24-.16-.38-.05-.14-.11-.27-.18-.4,0-.09.09-.19.28-.31.19-.11.28-.24.28-.38,0-.07-.04-.21-.11-.42-.07-.21-.19-.49-.34-.84-.12-.3-.22-.54-.3-.73-.09-.19-.17-.33-.25-.42-.14-.14-.3-.25-.5-.32-.2-.08-.43-.12-.7-.12-.15,0-.27.12-.34.37-.08.25-.12.62-.12,1.12,0,.11.02.26.05.45.04.19.09.43.17.7.08.31.15.55.22.72.07.18.13.3.17.37,0,0,0,.03,0,.04-.02-.05-.04-.09-.07-.15-.18.2-.36.37-.55.52s-.4.27-.63.36c-.09.09-.17.18-.22.25-.06.08-.11.14-.14.2-.13,0-.27.03-.43.1-.15.07-.31.17-.46.33-.18.06-.33.12-.45.17-.13.05-.23.11-.3.16-.44.08-.78.15-1.03.18s-.39.06-.43.06c-.42,0-.82-.09-1.19-.27-.37-.18-.72-.45-1.05-.8-.11-.08-.22-.17-.33-.26-.05-.04-.1-.09-.14-.15-.04-.06-.07-.12-.09-.17-.04-.22-.09-.42-.16-.6-.07-.18-.15-.33-.23-.46-.15-.23-.25-.4-.32-.52-.07-.12-.1-.2-.1-.24l.11-1.05c-.05-.19-.11-.4-.18-.63.08-.37.15-.69.2-.96.05-.27.08-.5.12-.68.08-.61.22-1.21.44-1.81.21-.6.5-1.2.85-1.8.43-.69.88-1.23,1.35-1.62.47-.39.96-.63,1.48-.71.09-.02.2-.05.33-.08.13-.03.27-.08.43-.14.2.06.4.11.6.16.2.04.4.09.6.13.21.08.36.21.46.37.1.16.16.35.16.56,0,.15-.05.32-.15.51-.1.19-.26.39-.49.59-.06.08-.14.27-.24.58-.1.31-.21.73-.34,1.27-.12.49-.21.89-.28,1.21s-.09.53-.09.63c.02.3.05.59.07.88,0,.05-.01.13-.04.24-.03.12-.04.2-.04.25,0,.06.03.11.1.13.07.03.19.04.36.04.35-.09.68-.18.99-.25.08-.02.17-.15.29-.38.11-.23.25-.58.41-1.03.15-.41.28-.76.37-1.04.1-.28.15-.48.15-.6.09-.46.17-.86.22-1.21.06-.35.11-.64.16-.87.01-.08.03-.22.03-.43s.01-.49.01-.84c0-.75-.07-1.33-.22-1.72s-.37-.63-.68-.7l-.37-.07c-.15-.11-.34-.19-.59-.24-.25-.05-.54-.08-.9-.08-.16,0-.51.08-1.03.23-.53.15-.84.27-.92.34-.08.06-.14.12-.2.17-.06.05-.11.09-.14.12-.15.08-.28.14-.39.2s-.2.1-.28.13c-.26.25-.49.45-.67.6s-.35.27-.48.35c-.14.15-.26.28-.36.4s-.18.22-.25.3c-.31.31-.59.62-.83.91s-.44.58-.59.85c-.18.36-.35.73-.53,1.12-.18.38-.35.76-.53,1.14-.05.1-.08.19-.11.27-.03.08-.04.15-.04.21l.04.25c-.05.19-.11.36-.17.52s-.12.28-.17.39c-.07.56-.12,1-.16,1.31-.04.31-.06.5-.06.56s.02.15.05.26.08.26.14.44l-.13.52c0,.06.01.2.07.4s.13.48.24.82l.31.99c.06.17.16.36.3.56.14.21.33.42.56.66.24.25.46.44.66.57.2.14.38.21.52.22l.33.05.14.14c.09,0,.21.03.34.07.14.04.31.08.51.14.16.05.31.09.45.12.14.03.27.05.38.05.37,0,.73-.03,1.08-.1.35-.07.69-.17,1-.32.21-.08.48-.21.8-.38.32-.17.68-.38,1.1-.62.46-.28.86-.53,1.2-.76.28-.19.52-.36.72-.51.14.42.33.93.6,1.58.08.21.22.37.4.48.18.11.4.17.66.17.17,0,.35-.02.54-.07.19-.05.38-.11.59-.2.25-.1.44-.21.58-.32.14-.11.24-.23.29-.36.19-.48.33-.85.41-1.12.08-.27.13-.43.15-.5.02-.15.05-.32.07-.52.13-.37.24-.69.33-.97.09-.28.16-.52.21-.72.15-.41.27-.77.37-1.08s.19-.58.25-.79l-.05-.25c.15-.38.27-.68.34-.93.08-.24.12-.41.14-.51.03-.16.05-.3.05-.41,0-.11.01-.21.03-.29.05-.25.1-.46.14-.64.04-.18.08-.34.1-.48ZM319.33,168.28c.06.06.1.15.1.25,0,.14-.02.25-.06.33s-.1.14-.18.19c-.1.06-.18.12-.24.16-.06.05-.1.08-.12.12l.15.71-.21,1.63c0,.14-.01.32-.03.53-.02.21-.06.46-.1.75-.08.21-.13.38-.17.52-.04.14-.06.23-.06.28.04.13.07.27.1.41-.05.21-.09.42-.14.62s-.1.41-.14.61c-.08.27-.2.47-.33.59-.14.13-.3.19-.48.19-.1,0-.17-.04-.22-.13-.05-.09-.08-.22-.08-.4,0-.08.01-.19.04-.33.03-.15.04-.26.04-.33,0-.05,0-.13-.02-.22-.02-.09-.02-.17-.02-.24,0-.21.02-.56.06-1.03s.06-.83.06-1.06c-.04-.13-.08-.26-.12-.4.02-.15.04-.29.05-.44,0-.15,0-.29-.01-.42l.17-.31-.15-1.07-.08-.04s-.11.02-.2.05c-.09.04-.2.09-.33.17-.09.03-.24.06-.43.1-.2.04-.46.06-.78.06-.14.07-.27.13-.39.18-.18.04-.4.11-.67.2-.27.1-.58.21-.93.35-.21.1-.4.18-.57.24-.17.06-.32.09-.43.09-.09,0-.17.03-.23.1-.06.07-.11.17-.15.3-.02.12-.08.29-.17.51-.09.21-.21.48-.35.81-.03.08-.07.21-.13.39-.05.18-.11.4-.18.66-.05.1-.1.22-.16.37s-.13.32-.21.52c0,.09,0,.21-.03.34-.02.13-.05.29-.09.47-.04.11-.09.24-.16.41s-.15.35-.25.55c-.06.12-.15.21-.26.27-.12.06-.26.09-.45.09-.13,0-.23-.04-.3-.13-.07-.09-.11-.22-.11-.41,0-.2.02-.43.07-.68s.12-.54.22-.84c.11-.41.2-.74.28-.99.08-.25.12-.44.13-.56.02-.05.06-.15.1-.29s.1-.31.16-.51c.07-.19.13-.41.2-.66l-.06-.09-.37.06c-.08,0-.15-.04-.18-.1-.04-.06-.06-.14-.06-.24,0-.05,0-.11.02-.18.02-.07.04-.14.07-.24-.02-.08-.04-.15-.04-.21s0-.1,0-.14c0-.25.03-.47.09-.65.06-.18.15-.33.28-.45.03-.03.11-.08.24-.14.13-.06.29-.13.5-.22.15-.07.26-.15.35-.25.09-.1.14-.21.14-.35.02-.11.07-.23.14-.37.07-.14.15-.29.24-.45.03-.05.12-.31.28-.79.15-.48.37-1.19.64-2.13.08-.28.15-.53.23-.74.08-.21.14-.38.2-.53.25-.65.45-1.08.6-1.28s.27-.37.35-.5v-.06l-.36-.56.45-.52.58-.11c.12-.02.22-.12.32-.32s.26-.42.5-.66c.05-.02.14-.06.26-.14.12-.08.27-.19.45-.34.16-.13.3-.23.41-.29s.2-.09.26-.09c.21,0,.36.04.45.13.09.08.14.2.14.33,0,.17-.09.41-.26.74-.18.32-.26.57-.26.74,0,.08.02.14.05.19.03.05.07.08.12.1l1.38.75c.08.03.14.15.21.36.06.21.11.5.15.87.05.31.08.56.11.76.03.2.04.37.04.49-.05.33-.11.66-.16,1,.08.43.16.88.25,1.36-.05.45-.09.91-.15,1.38,0,.05,0,.09.03.12.02.03.05.06.09.06.13,0,.23.04.29.1ZM317.27,166.74l-.14-.52.05-.47c-.03-.17-.06-.33-.08-.48-.02-.15-.02-.27,0-.37-.01-.03-.04-.08-.08-.15-.04-.07-.08-.14-.13-.22-.08-.13-.16-.25-.24-.37-.08-.12-.16-.24-.24-.36-.11-.15-.22-.25-.34-.32-.12-.07-.25-.1-.38-.1-.15,0-.31.12-.47.37-.16.25-.31.62-.45,1.12-.02.06-.09.19-.19.38s-.25.44-.44.75c-.03.29-.13.65-.31,1.09-.18.43-.42.94-.74,1.52-.04.05-.06.1-.06.14,0,.04,0,.08,0,.13,0,.05.01.09.04.12.03.03.07.04.12.04.08,0,.2,0,.37-.02.17-.02.3-.02.37-.02.18,0,.44-.04.78-.13.34-.08.6-.13.78-.13.11.02.21.04.32.06.19-.04.38-.08.56-.13.18-.05.37-.09.56-.13.08-.01.13-.04.17-.09s.06-.1.06-.17c-.02-.23-.02-.39-.02-.47,0-.15,0-.31.03-.49.02-.18.05-.37.09-.56ZM334.92,159.68c-.23-.13-.59-.19-1.06-.19-.08,0-.18.01-.31.03-.13.02-.28.06-.46.12-.09-.05-.17-.08-.22-.1-.06-.02-.11-.04-.14-.04l-.38.14c-.08-.02-.18-.05-.29-.07-.96.22-1.69.58-2.2,1.08-.49.52-.88,1.02-1.17,1.49-.29.47-.48.95-.57,1.42-.05.33-.11.67-.16,1.02,0,.04.01.11.03.21.02.1.04.17.04.22-.05.15-.08.26-.12.36-.04.1-.08.29-.12.56-.04.28-.07.63-.1,1.07-.03.38-.07.67-.13.87s-.13.32-.21.37c-.11.08-.21.15-.31.23-.1.08-.18.16-.25.26-.06.12-.13.23-.2.35-.07.11-.14.23-.21.36l.04.12.1.07c.1-.03.18-.06.25-.08.07-.02.13-.04.17-.05.05-.02.11-.04.16-.06.05-.02.09-.04.13-.05.05,0,.09.02.12.07.03.05.04.11.04.18,0,.06-.01.14-.04.25-.03.1-.04.18-.04.24s0,.16.03.32c.02.16.03.27.02.33-.07.42-.13.84-.18,1.24.04.24.06.48.08.73-.02.26-.03.48-.05.67,0,.2-.02.36-.04.47-.02.12-.03.2-.03.24,0,.13.01.33.04.61.02.28.03.48.03.61,0,.31,0,.57.01.75,0,.19.02.32.03.39.05.23.13.4.26.51.13.11.28.16.47.16h.26c.12-.14.2-.28.25-.41s.08-.27.08-.39c0-.58.02-1.17.06-1.75.04-.59.11-1.19.21-1.8,0-.08,0-.15-.02-.22-.01-.07-.02-.14-.02-.19l.22-1.37-.08-.36.12-.49c.07-.38.15-.65.24-.83.09-.18.19-.27.29-.27.18.02.3.03.36.03.1,0,.2-.02.3-.05s.21-.09.3-.17c.15,0,.35-.03.63-.08.27-.05.48-.07.63-.07.23,0,.45-.01.67-.04.21-.03.41-.06.6-.11.52.12.92.2,1.21.26s.46.09.53.09c.11-.18.21-.36.31-.54.02-.31.04-.57.05-.75.01-.19.02-.3.02-.35,0-.23-.11-.41-.33-.54-.22-.13-.56-.19-1-.19-.27.05-.53.09-.79.14h-.69c-.27.08-.53.14-.78.19s-.5.09-.74.12c-.28.08-.51.15-.71.21-.2.07-.35.12-.47.18-.06,0-.11-.04-.15-.1-.04-.06-.06-.14-.06-.25,0-.08.02-.17.07-.29s.08-.2.09-.24c.22-1,.4-1.78.53-2.32s.23-.85.29-.93c.18-.34.31-.62.39-.82.08-.2.36-.36.84-.48.18-.05.35-.08.51-.11.17-.03.31-.04.44-.04.15.02.29.04.43.06l.41-.16c.22.09.44.18.64.26.21.08.41.17.61.26.08-.02.16-.09.23-.24.07-.14.13-.35.18-.64.05-.21.08-.41.1-.6.02-.18.03-.35.03-.5,0-.26-.12-.45-.35-.58ZM347.83,164.26c.1.44.16.86.16,1.26,0,1.28-.16,2.39-.48,3.33-.32.94-.81,1.72-1.46,2.32-.06.06-.14.14-.22.22-.09.09-.2.19-.33.32v.13c-.02.08-.06.16-.13.25-.07.09-.17.19-.3.3-.28.26-.57.52-.86.79-.29.26-.59.52-.9.78-.38.33-.75.59-1.09.78-.35.19-.68.33-1,.4-.14.12-.31.22-.51.28s-.45.1-.74.1c-.43,0-.78-.03-1.05-.09-.27-.06-.46-.14-.58-.25-.07-.07-.15-.14-.24-.21-.09-.07-.2-.16-.32-.26-.13-.1-.25-.28-.37-.55-.11-.26-.22-.61-.31-1.03-.06-.31-.11-.62-.14-.91-.03-.29-.05-.57-.05-.82,0-.08.02-.2.06-.38.04-.18.05-.31.05-.4,0-.18,0-.33-.02-.46,0-.14.04-.36.13-.66.08-.3.13-.54.13-.71,0-.04-.02-.1-.07-.17-.12.14-.21.26-.26.38-.05.08-.1.13-.16.17-.06.04-.12.06-.17.06-.08,0-.15-.03-.2-.1s-.07-.17-.07-.31c0-.09.02-.23.06-.41.04-.18.06-.33.06-.42s.03-.22.09-.36.14-.29.26-.47c.16-.23.28-.41.36-.54.08-.13.12-.21.13-.25.04-.08.09-.2.16-.33.07-.14.14-.29.22-.47.08-.08.17-.27.26-.55.1-.28.21-.65.34-1.11.06-.12.13-.27.2-.44.07-.17.15-.38.25-.62.03-.18.09-.38.17-.62.08-.24.19-.5.32-.79.16-.28.33-.55.51-.82.18-.27.43-.47.76-.6.13.08.23.17.3.25.07.08.1.17.1.24,0,.19-.09.45-.26.76-.17.32-.26.54-.26.65,0,.06.03.12.1.17.06-.03.17-.12.33-.28s.37-.36.63-.62c.21-.2.41-.36.58-.49.17-.13.33-.2.49-.24.1-.04.23-.07.38-.1.15-.03.33-.08.52-.15.1-.05.18-.11.24-.16.05-.05.14-.09.25-.14l.17.03c.07.07.26.14.57.21.31.07.51.11.6.11.07.04.15.1.24.18.09.08.21.18.36.28.31.18.59.45.86.81.26.36.5.8.72,1.33.2.48.35.94.45,1.38ZM346.1,166.44c-.05-.23-.1-.46-.15-.68l.08-.49c-.08-.09-.14-.18-.2-.25-.02-.06-.04-.11-.06-.15-.24-.83-.56-1.45-.97-1.87-.41-.42-.91-.63-1.51-.63-.18,0-.37.02-.56.07-.19.05-.39.11-.59.2l-1.12.49c-.08.04-.16.1-.26.18-.1.08-.2.2-.32.34l-.53.66c-.17.2-.32.56-.45,1.09-.13.53-.25,1.22-.34,2.07-.08.65-.13,1.26-.16,1.82s-.05,1.08-.05,1.56c0,.97.15,1.7.45,2.18.3.48.75.72,1.36.72.28,0,.6-.07.96-.22.35-.15.74-.38,1.15-.68.35-.26.66-.52.93-.79.27-.26.49-.54.67-.81.08-.11.2-.33.36-.68s.39-.82.68-1.41c.19-.44.34-.88.45-1.33s.16-.91.16-1.39ZM355.42,161.31s.06-.1.06-.18c0-.07,0-.17-.02-.3-.02-.13-.02-.23-.01-.29.02-.13.02-.25.02-.37v-.36c-.02-.16-.07-.29-.14-.37-.07-.09-.17-.13-.28-.13-.11.05-.2.1-.26.14-.12-.06-.21-.12-.29-.17-.08-.05-.16-.08-.22-.09l-.32.09c-.15-.03-.26-.06-.34-.08-.08-.02-.19-.05-.33-.07-.1,0-.23-.01-.4-.04-.17-.03-.29-.04-.37-.04-.45,0-.86.02-1.24.07s-.71.12-1.03.21c-.26-.03-.54-.03-.85.01s-.64.11-.99.23c-.18.06-.33.15-.45.26-.13.12-.22.26-.28.43-.03.09-.06.23-.08.4-.02.18-.04.4-.06.67-.08.18-.15.33-.18.45-.04.11-.06.2-.06.24,0,.08.02.15.06.2.04.05.09.07.15.07.78-.21,1.57-.43,2.37-.66.12-.03.22-.06.33-.08.1-.02.21-.05.3-.07l.15-.1c.12.02.22.04.3.06.08.02.14.04.17.06l.07.21c0,.18-.01.34-.01.47v.33c-.06.45-.12.82-.17,1.1-.05.28-.1.47-.15.58.04.1.07.2.1.3,0,.04-.02.12-.06.24-.04.12-.1.27-.17.47,0,.05.02.12.02.18,0,.07.01.13.01.2,0,.11-.01.24-.03.38-.02.14-.05.3-.07.48-.02.21-.04.38-.06.52-.02.14-.03.26-.03.35,0,.21-.01.47-.03.79-.02.32-.06.7-.12,1.13-.05.43-.09.81-.11,1.13-.02.33-.03.6-.03.81,0,.46-.01.92-.04,1.37.06.63.11,1.24.15,1.84.04.09.07.17.09.23.02.06.04.11.05.14-.04.24-.07.48-.08.74,0,.08.04.14.1.18.07.05.19.07.36.07.04,0,.08-.02.13-.07.05-.05.11-.11.19-.18.12-.05.24-.12.38-.21.05-.04.08-.09.11-.16.03-.06.05-.15.08-.26-.03-.12-.07-.25-.1-.38,0-.15,0-.38.01-.69,0-.31.01-.53.01-.68,0-.08.02-.2.05-.36.03-.17.05-.29.05-.37,0-.07,0-.16-.03-.27s-.03-.19-.03-.25c.05-.12.1-.22.15-.31.04-.31.08-.64.13-.98s.09-.67.14-1c.03-.23.06-.45.09-.67,0-.12-.02-.24-.04-.36.05-.17.09-.32.14-.44.05-.13.09-.24.11-.34.04-.17.07-.32.09-.45.02-.13.03-.25.03-.34.05-.22.11-.42.16-.59.05-.17.08-.32.09-.43,0-.14.02-.26.02-.37,0-.11.02-.2.04-.28.02-.1.05-.25.09-.44s.09-.44.16-.74c.04-.15.07-.35.1-.59.03-.24.05-.44.05-.6,0-.07,0-.14-.02-.22-.01-.08-.03-.16-.06-.24-.08-.21-.15-.38-.22-.51-.07-.13-.13-.21-.18-.25-.08-.05-.14-.11-.2-.17-.05-.06-.1-.12-.13-.17,0-.05.03-.08.1-.12.07-.03.18-.05.32-.07.18-.02.4-.06.64-.1.28.1.57.17.85.22.28.05.57.08.86.08.06,0,.11-.02.15-.06ZM366.62,164.26c.1.44.16.86.16,1.26,0,1.28-.16,2.39-.48,3.33-.32.94-.81,1.72-1.46,2.32-.06.06-.14.14-.22.22-.09.09-.2.19-.33.32v.13c-.02.08-.06.16-.13.25-.07.09-.17.19-.3.3-.28.26-.57.52-.86.79-.29.26-.59.52-.9.78-.38.33-.75.59-1.09.78-.35.19-.68.33-1,.4-.14.12-.31.22-.51.28s-.45.1-.74.1c-.43,0-.78-.03-1.05-.09-.27-.06-.46-.14-.58-.25-.07-.07-.15-.14-.24-.21-.09-.07-.2-.16-.32-.26-.13-.1-.25-.28-.37-.55-.11-.26-.22-.61-.31-1.03-.06-.31-.11-.62-.14-.91-.03-.29-.05-.57-.05-.82,0-.08.02-.2.06-.38.04-.18.05-.31.05-.4,0-.18,0-.33-.02-.46,0-.14.04-.36.13-.66.08-.3.13-.54.13-.71,0-.04-.02-.1-.07-.17-.12.14-.21.26-.26.38-.05.08-.1.13-.16.17-.06.04-.12.06-.17.06-.08,0-.15-.03-.2-.1s-.07-.17-.07-.31c0-.09.02-.23.06-.41.04-.18.06-.33.06-.42s.03-.22.09-.36.14-.29.26-.47c.16-.23.28-.41.36-.54.08-.13.12-.21.13-.25.04-.08.09-.2.16-.33.07-.14.14-.29.22-.47.08-.08.17-.27.26-.55.1-.28.21-.65.34-1.11.06-.12.13-.27.2-.44.07-.17.15-.38.25-.62.03-.18.09-.38.17-.62.08-.24.19-.5.32-.79.16-.28.33-.55.51-.82.18-.27.43-.47.76-.6.13.08.23.17.3.25.07.08.1.17.1.24,0,.19-.09.45-.26.76-.17.32-.26.54-.26.65,0,.06.03.12.1.17.06-.03.17-.12.33-.28s.37-.36.63-.62c.21-.2.41-.36.58-.49.17-.13.33-.2.49-.24.1-.04.23-.07.38-.1.15-.03.33-.08.52-.15.1-.05.18-.11.24-.16.05-.05.14-.09.25-.14l.17.03c.07.07.26.14.57.21.31.07.51.11.6.11.07.04.15.1.24.18.09.08.21.18.36.28.31.18.59.45.86.81.26.36.5.8.72,1.33.2.48.35.94.45,1.38ZM364.89,166.44c-.05-.23-.1-.46-.15-.68l.08-.49c-.08-.09-.14-.18-.2-.25-.02-.06-.04-.11-.06-.15-.24-.83-.56-1.45-.97-1.87-.41-.42-.91-.63-1.51-.63-.18,0-.37.02-.56.07-.19.05-.39.11-.59.2l-1.12.49c-.08.04-.16.1-.26.18-.1.08-.2.2-.32.34l-.53.66c-.17.2-.32.56-.45,1.09-.13.53-.25,1.22-.34,2.07-.08.65-.13,1.26-.16,1.82s-.05,1.08-.05,1.56c0,.97.15,1.7.45,2.18.3.48.75.72,1.36.72.28,0,.6-.07.96-.22.35-.15.74-.38,1.15-.68.35-.26.66-.52.93-.79.27-.26.49-.54.67-.81.08-.11.2-.33.36-.68s.39-.82.68-1.41c.19-.44.34-.88.45-1.33s.16-.91.16-1.39ZM378.3,162.16c-.12-.34-.21-.56-.25-.65s-.17-.27-.4-.54c-.2-.25-.36-.45-.49-.59-.13-.14-.22-.22-.28-.25-.18-.07-.36-.14-.54-.2-.18-.07-.36-.12-.54-.18l-.16.06-.36-.09-1.07.13c-.21.08-.4.15-.56.22-.16.07-.3.14-.42.21-.24.13-.46.26-.66.39-.2.13-.39.26-.56.39-.05.07-.18.19-.38.37-.2.18-.45.41-.74.7-.87.84-1.57,1.81-2.11,2.93-.54,1.12-.9,2.4-1.09,3.84l-.23,1.72c.03.25.04.47.02.69-.01.21-.06.41-.13.6.11.43.21.78.28,1.06.07.28.13.46.17.55.12.3.27.56.43.77.16.21.34.4.53.55.22.16.43.28.62.37s.37.13.54.13c.11-.02.24-.05.39-.07l.51.1c.33-.05.65-.13.96-.26.31-.13.62-.29.93-.49.15-.1.35-.26.62-.47.27-.21.6-.49.99-.83.18-.17.4-.34.67-.53.05,0,.09.01.12.04s.04.07.04.12c-.02.11-.05.22-.08.31l.15.75c-.12.48-.22.89-.28,1.22-.07.33-.11.57-.12.72,0,.3-.02.55-.05.76-.02.21-.05.37-.08.49-.07.25-.12.46-.14.63-.03.17-.04.29-.04.36,0,.21.03.36.09.45.06.09.14.14.25.14.13,0,.23-.04.31-.13.08-.09.13-.22.16-.4.19-.06.34-.12.45-.17.11-.05.19-.1.25-.15.08-.07.14-.16.18-.28.04-.12.08-.25.11-.41.05-.25.09-.46.13-.63.04-.16.08-.29.13-.36.13-.27.24-.69.33-1.26.09-.58.19-.99.32-1.25.1-.2.18-.43.24-.7.06-.27.09-.57.11-.92.04-.28.07-.51.1-.72.03-.2.05-.37.07-.51.01-.09.05-.22.1-.39.05-.16.08-.29.08-.38,0-.28-.08-.48-.23-.62s-.39-.21-.7-.21c-.23,0-.44.05-.64.15-.2.1-.37.25-.53.46-.13.18-.26.38-.38.58-.13.2-.26.4-.41.6-.13.14-.25.26-.36.37-.11.11-.21.2-.28.26-.35.38-.63.67-.84.89s-.34.36-.41.42c-.24.19-.49.34-.77.45-.28.11-.57.16-.87.16-.21,0-.41-.03-.59-.09-.18-.06-.32-.15-.44-.26-.08-.08-.16-.2-.24-.37-.08-.17-.17-.37-.26-.61-.12-.33-.21-.66-.27-.99-.06-.33-.09-.66-.09-.99,0-.15.03-.46.08-.95.05-.49.14-1.15.26-1.98.08-.25.15-.47.21-.68.06-.21.12-.4.18-.57.03-.15.06-.26.08-.35.02-.09.05-.15.07-.18.1-.15.18-.3.25-.47.07-.17.14-.35.21-.55.16-.23.3-.43.41-.62.11-.18.2-.33.27-.46.08-.12.14-.21.2-.28s.1-.13.13-.18c.25-.3.46-.55.63-.75.18-.2.32-.34.43-.42.21-.18.43-.31.68-.4s.5-.13.76-.13c.51,0,.95.21,1.3.63s.64,1.05.86,1.89c.04.22.09.49.16.79,0,.18.04.32.11.42s.19.14.34.14c.24,0,.56-.2.98-.59.41-.39.62-.73.62-1.01,0-.15-.07-.4-.2-.74-.13-.34-.24-.58-.33-.71ZM398.65,168.28c.06.06.1.15.1.25,0,.14-.02.25-.06.33s-.1.14-.18.19c-.1.06-.18.12-.24.16-.06.05-.1.08-.12.12l.15.71-.21,1.63c0,.14-.01.32-.03.53-.02.21-.06.46-.1.75-.08.21-.13.38-.17.52-.04.14-.06.23-.06.28.04.13.07.27.1.41-.05.21-.09.42-.14.62s-.1.41-.14.61c-.08.27-.2.47-.33.59-.14.13-.3.19-.48.19-.1,0-.17-.04-.22-.13-.05-.09-.08-.22-.08-.4,0-.08.01-.19.04-.33.03-.15.04-.26.04-.33,0-.05,0-.13-.02-.22-.02-.09-.02-.17-.02-.24,0-.21.02-.56.06-1.03s.06-.83.06-1.06c-.04-.13-.08-.26-.12-.4.02-.15.04-.29.05-.44,0-.15,0-.29-.01-.42l.17-.31-.15-1.07-.08-.04s-.11.02-.2.05c-.09.04-.2.09-.33.17-.09.03-.24.06-.43.1-.2.04-.46.06-.78.06-.14.07-.27.13-.39.18-.18.04-.4.11-.67.2-.27.1-.58.21-.93.35-.21.1-.4.18-.57.24-.17.06-.32.09-.43.09-.09,0-.17.03-.23.1-.06.07-.11.17-.15.3-.02.12-.08.29-.17.51-.09.21-.21.48-.35.81-.03.08-.07.21-.13.39-.05.18-.11.4-.18.66-.05.1-.1.22-.16.37s-.13.32-.21.52c0,.09,0,.21-.03.34-.02.13-.05.29-.09.47,0,.02-.02.06-.03.08.04.19.07.4.08.64l-.1.3-.11.06c-.07,0-.16-.04-.27-.09-.06.1-.13.18-.23.23-.12.06-.26.09-.45.09-.13,0-.23-.04-.3-.13-.07-.09-.11-.22-.11-.41,0-.1.02-.22.03-.33-.31-.15-.75-.35-1.32-.61-.32-.14-.62-.29-.89-.47-.27-.17-.51-.36-.74-.55-.13-.12-.3-.24-.5-.38-.2-.14-.44-.29-.72-.45-.28-.16-.53-.31-.74-.46-.21-.15-.37-.27-.49-.37-.41-.34-.75-.59-1.01-.77s-.44-.26-.54-.26c-.08.11-.12.22-.13.33-.09.36-.19.81-.29,1.36s-.22,1.19-.34,1.92c0,.13-.02.23-.07.29s-.11.1-.21.1c-.3,0-.52-.07-.68-.22s-.23-.36-.23-.66c0-.39.03-.8.08-1.23s.13-.88.25-1.36c.04-.21.07-.39.09-.56.02-.17.03-.32.03-.46,0-.35-.15-.66-.45-.91-.3-.25-.45-.43-.45-.54,0-.17.02-.32.07-.44.05-.13.12-.23.22-.3.25-.16.49-.31.7-.46.05-.03.09-.08.11-.16.02-.07.03-.17.03-.3v-.49c.02-.68.04-1.39.06-2.13v-.25c0-.12,0-.26-.02-.45-.01-.14-.02-.27-.01-.38,0-.12.01-.23.01-.33-.05-.15-.09-.29-.12-.4-.04-.11-.05-.22-.05-.32,0-.09,0-.24.02-.43.02-.2.02-.33.02-.42,0-.11,0-.26-.03-.45-.02-.19-.03-.34-.03-.44,0-.28.06-.54.19-.79.13-.25.32-.5.58-.75.25-.21.51-.38.78-.49.26-.11.53-.17.81-.17.13,0,.32,0,.58.03.26.02.46.03.6.03.1,0,.37.08.82.25.18.02.33.04.47.06.14.03.25.06.33.09.19.09.34.16.45.21s.18.08.23.09c.13.05.24.08.34.12.1.03.17.07.24.11.1.05.22.1.35.16.13.06.29.13.45.21.28.14.54.3.78.48.24.18.47.38.68.6.25.28.43.55.55.81.12.26.18.53.18.79,0,.08,0,.19-.02.33-.01.14-.03.3-.06.48-.02.22-.14.46-.34.72-.21.26-.51.54-.9.84-.34.27-.67.49-.97.67-.3.18-.57.31-.83.38-.1.07-.18.13-.23.2-.08.08-.24.18-.48.32-.25.14-.58.31-1,.52-.77.38-1.31.62-1.63.74-.32.12-.48.25-.48.38,0,.15.11.36.33.62.22.26.55.57.98.95.28.24.58.47.88.7s.6.45.9.68c.13.11.3.25.51.42.21.17.45.37.72.6.2.15.41.31.63.46.22.15.45.31.71.46.17.13.36.27.56.43.01,0,.03.02.04.03.06-.22.12-.41.16-.57.08-.25.12-.44.13-.56.02-.05.06-.15.1-.29s.1-.31.16-.51c.07-.19.13-.41.2-.66l-.06-.09-.37.06c-.08,0-.15-.04-.18-.1-.04-.06-.06-.14-.06-.24,0-.05,0-.11.02-.18.02-.07.04-.14.07-.24-.02-.08-.04-.15-.04-.21s0-.1,0-.14c0-.25.03-.47.09-.65.06-.18.15-.33.28-.45.03-.03.11-.08.24-.14.13-.06.29-.13.5-.22.15-.07.26-.15.35-.25.09-.1.14-.21.14-.35.02-.11.07-.23.14-.37.07-.14.15-.29.24-.45.03-.05.12-.31.28-.79.15-.48.37-1.19.64-2.13.08-.28.15-.53.23-.74.08-.21.14-.38.2-.53.25-.65.45-1.08.6-1.28s.27-.37.35-.5v-.06l-.36-.56.45-.52.58-.11c.12-.02.22-.12.32-.32s.26-.42.5-.66c.05-.02.14-.06.26-.14.12-.08.27-.19.45-.34.16-.13.3-.23.41-.29s.2-.09.26-.09c.21,0,.36.04.45.13.09.08.14.2.14.33,0,.17-.09.41-.26.74-.18.32-.26.57-.26.74,0,.08.02.14.05.19.03.05.07.08.12.1l1.38.75c.08.03.14.15.21.36.06.21.11.5.15.87.05.31.08.56.11.76.03.2.04.37.04.49-.05.33-.11.66-.16,1,.08.43.16.88.25,1.36-.05.45-.09.91-.15,1.38,0,.05,0,.09.03.12.02.03.05.06.09.06.13,0,.23.04.29.1ZM382.26,167.88c1.52-.77,2.31-1.16,2.37-1.19.06-.02.13-.04.2-.06.07-.03.13-.06.2-.09l.17-.22c.44-.28.9-.58,1.38-.91.3-.23.52-.46.67-.68s.22-.44.22-.67c0-.28-.17-.56-.49-.84-.33-.28-.82-.54-1.48-.79-.56-.22-1.07-.38-1.53-.49s-.88-.16-1.25-.16c-.49,0-.86.09-1.11.26-.25.17-.37.43-.37.76,0,.26.02.46.06.59.04.13.09.19.16.18.15-.11.28-.21.41-.32.13-.1.3-.16.51-.16.09,0,.21.1.34.3s.2.35.2.45c0,.05-.02.18-.06.37-.04.19-.1.45-.18.78-.18.74-.28,1.21-.3,1.4-.02.19-.07.48-.15.88-.03.1-.06.23-.09.39,0,.07.01.12.04.15.03.03.06.05.11.05ZM396.59,166.74l-.14-.52.05-.47c-.03-.17-.06-.33-.08-.48-.02-.15-.02-.27,0-.37-.01-.03-.04-.08-.08-.15-.04-.07-.08-.14-.13-.22-.08-.13-.16-.25-.24-.37-.08-.12-.16-.24-.24-.36-.11-.15-.22-.25-.34-.32-.12-.07-.25-.1-.38-.1-.15,0-.31.12-.47.37-.16.25-.31.62-.45,1.12-.02.06-.09.19-.19.38s-.25.44-.44.75c-.03.29-.13.65-.31,1.09-.18.43-.42.94-.74,1.52-.04.05-.06.1-.06.14,0,.04,0,.08,0,.13,0,.05.01.09.04.12.03.03.07.04.12.04.08,0,.2,0,.37-.02.17-.02.3-.02.37-.02.18,0,.44-.04.78-.13.34-.08.6-.13.78-.13.11.02.21.04.32.06.19-.04.38-.08.56-.13.18-.05.37-.09.56-.13.08-.01.13-.04.17-.09s.06-.1.06-.17c-.02-.23-.02-.39-.02-.47,0-.15,0-.31.03-.49.02-.18.05-.37.09-.56ZM408.47,159.68c-.23-.13-.59-.19-1.06-.19-.08,0-.18.01-.31.03-.13.02-.28.06-.46.12-.09-.05-.17-.08-.22-.1-.06-.02-.11-.04-.14-.04l-.38.14c-.08-.02-.18-.05-.29-.07-.96.22-1.69.58-2.2,1.08-.49.52-.88,1.02-1.17,1.49-.29.47-.48.95-.57,1.42-.05.33-.11.67-.16,1.02,0,.04.01.11.03.21.02.1.04.17.04.22-.05.15-.08.26-.12.36-.04.1-.08.29-.12.56-.04.28-.07.63-.1,1.07-.03.38-.07.67-.13.87s-.13.32-.21.37c-.11.08-.21.15-.31.23-.1.08-.18.16-.25.26-.06.12-.13.23-.2.35-.07.11-.14.23-.21.36l.04.12.1.07c.1-.03.18-.06.25-.08.07-.02.13-.04.17-.05.05-.02.11-.04.16-.06.05-.02.09-.04.13-.05.05,0,.09.02.12.07.03.05.04.11.04.18,0,.06-.01.14-.04.25-.03.1-.04.18-.04.24s0,.16.03.32c.02.16.03.27.02.33-.07.42-.13.84-.18,1.24.04.24.06.48.08.73-.02.26-.03.48-.05.67,0,.2-.02.36-.04.47-.02.12-.03.2-.03.24,0,.13.01.33.04.61.02.28.03.48.03.61,0,.31,0,.57.01.75,0,.19.02.32.03.39.05.23.13.4.26.51.13.11.28.16.47.16h.26c.12-.14.2-.28.25-.41s.08-.27.08-.39c0-.58.02-1.17.06-1.75.04-.59.11-1.19.21-1.8,0-.08,0-.15-.02-.22-.01-.07-.02-.14-.02-.19l.22-1.37-.08-.36.12-.49c.07-.38.15-.65.24-.83.09-.18.19-.27.29-.27.18.02.3.03.36.03.1,0,.2-.02.3-.05s.21-.09.3-.17c.15,0,.35-.03.63-.08.27-.05.48-.07.63-.07.23,0,.45-.01.67-.04.21-.03.41-.06.6-.11.52.12.92.2,1.21.26s.46.09.53.09c.11-.18.21-.36.31-.54.02-.31.04-.57.05-.75.01-.19.02-.3.02-.35,0-.23-.11-.41-.33-.54-.22-.13-.56-.19-1-.19-.27.05-.53.09-.79.14h-.69c-.27.08-.53.14-.78.19s-.5.09-.74.12c-.28.08-.51.15-.71.21-.2.07-.35.12-.47.18-.06,0-.11-.04-.15-.1-.04-.06-.06-.14-.06-.25,0-.08.02-.17.07-.29s.08-.2.09-.24c.22-1,.4-1.78.53-2.32s.23-.85.29-.93c.18-.34.31-.62.39-.82.08-.2.36-.36.84-.48.18-.05.35-.08.51-.11.17-.03.31-.04.44-.04.15.02.29.04.43.06l.41-.16c.22.09.44.18.64.26.21.08.41.17.61.26.08-.02.16-.09.23-.24.07-.14.13-.35.18-.64.05-.21.08-.41.1-.6.02-.18.03-.35.03-.5,0-.26-.12-.45-.35-.58ZM413.98,159.5c-.09,0-.21.03-.37.09s-.34.14-.55.26c-.31.05-.57.15-.78.31-.21.16-.38.37-.49.63-.08.26-.15.53-.22.8-.07.28-.14.55-.21.83-.05.08-.08.15-.11.22-.03.07-.05.12-.07.16-.06.15-.12.33-.18.54-.06.21-.09.45-.11.72-.04.22-.06.44-.08.66s-.02.44-.04.65l.06.14.25.18c.05.18.08.35.1.51.02.15.04.29.05.43-.02.07-.06.26-.11.58-.05.32-.11.77-.18,1.35-.08.61-.13,1.1-.17,1.47-.04.38-.06.64-.06.81.02.14.04.27.06.4-.05.17-.09.4-.12.7-.03.29-.05.66-.05,1.09v.61c0,.11,0,.12.02.05.08.15.15.35.21.58,0,.05-.02.12-.05.22-.03.1-.05.17-.05.22,0,.08.01.18.05.28.03.1.07.21.13.33.08.13.15.23.22.29.07.06.16.1.25.1.15,0,.4-.13.75-.39s.52-.45.52-.58c-.05-.24-.11-.46-.16-.67-.02-.08-.04-.24-.06-.48-.02-.24-.03-.56-.03-.95,0-.08.01-.19.03-.34.02-.15.05-.32.08-.5.02-.19.04-.36.06-.5.02-.14.02-.25,0-.33,0-.07,0-.14-.02-.22-.01-.08-.02-.16-.02-.24,0-.22.02-.47.05-.75.03-.28.07-.58.12-.89.04-.28.08-.55.13-.82s.09-.54.13-.82c.09-.65.19-1.25.3-1.79.11-.54.22-1.04.34-1.49.09-.41.17-.76.22-1.05.05-.29.09-.55.11-.76.13-.64.23-1.15.29-1.51.06-.36.09-.58.09-.64,0-.15-.03-.27-.09-.36-.06-.08-.15-.13-.25-.13ZM435.34,173.09s-.04-.09-.08-.14c-.08-.17-.14-.32-.2-.45-.06-.13-.11-.25-.16-.34-.08.03-.17.06-.28.08-.11.02-.23.05-.35.07-.1.05-.2.08-.29.11-.09.03-.18.07-.26.1-.3.08-.56.14-.79.19-.23.05-.42.08-.58.1-.28.11-.59.2-.93.25-.34.05-.7.08-1.09.08-.11,0-.25.01-.42.04-.17.03-.35.08-.57.14l-.4-.11c-.19,0-.38.03-.58.06-.1-.02-.2-.04-.31-.06l-.45.08c-.06-.02-.09-.06-.09-.12,0-.11.1-.31.29-.6.19-.29.49-.67.9-1.13.41-.5.74-.89.97-1.19.23-.29.36-.49.4-.59l.15-.35c.11-.11.21-.21.3-.3.09-.08.18-.16.28-.24.08-.1.21-.27.41-.51s.47-.56.81-.96c.26-.31.48-.59.66-.83.18-.24.31-.45.39-.62.04-.08.08-.14.12-.2s.08-.09.11-.1c.15-.13.28-.25.38-.37.1-.12.17-.22.21-.32.15-.18.3-.36.43-.54.08-.11.16-.21.21-.32.06-.11.09-.19.11-.25l.15-.45c.12-.18.21-.37.28-.59s.09-.45.09-.7c0-.16-.03-.33-.08-.51-.05-.18-.14-.37-.26-.57-.13-.23-.31-.44-.53-.63-.22-.19-.48-.33-.77-.44-.22-.1-.42-.19-.58-.26-.16-.08-.3-.15-.41-.22-.25-.05-.46-.08-.66-.11-.19-.03-.35-.04-.48-.05-.48-.09-.93-.18-1.37-.26-.05,0-.13.02-.23.05-.1.03-.23.07-.38.11l-.16-.13c-.12-.01-.26-.03-.41-.05-.15-.01-.32-.02-.5-.02-.38,0-.67.07-.89.21-.22.14-.37.35-.47.61,0,.05-.03.13-.06.24-.1.2-.19.38-.28.53-.08.16-.15.29-.21.38.04.15.07.26.09.35.02.09.05.15.09.18l.31.12c.39-.05.82-.08,1.28-.12.12,0,.23.01.35.03.12.02.25.06.4.1l.56-.18c.13.03.25.06.36.1s.21.07.31.1l.87.03c.11,0,.25.04.42.09s.35.12.57.21c.25.11.44.21.56.32.12.1.18.21.18.3,0,.18-.11.47-.32.89-.21.42-.53.96-.96,1.62-.27.43-.52.82-.76,1.18-.24.36-.47.67-.68.95-.15.19-.29.36-.42.49-.13.14-.24.25-.34.34-.16.23-.3.43-.43.61-.13.18-.23.32-.32.43-.18.23-.36.46-.55.7-.19.24-.37.46-.55.68-.26.35-.48.62-.67.81-.18.2-.33.34-.45.43-.17.19-.32.36-.44.52-.13.15-.23.29-.3.41-.07.07-.11.15-.17.22-.08-.17-.17-.39-.31-.68-.18.2-.36.37-.55.52s-.4.27-.63.36c-.09.09-.17.18-.22.25-.06.08-.11.14-.14.2-.13,0-.27.03-.43.1-.15.07-.31.17-.46.33-.18.06-.33.12-.45.17-.13.05-.23.11-.3.16-.44.08-.78.15-1.03.18s-.39.06-.43.06c-.42,0-.82-.09-1.19-.27-.37-.18-.72-.45-1.05-.8-.11-.08-.22-.17-.33-.26-.05-.04-.1-.09-.14-.15-.04-.06-.07-.12-.09-.17-.04-.22-.09-.42-.16-.6-.07-.18-.15-.33-.23-.46-.15-.23-.25-.4-.32-.52-.07-.12-.1-.2-.1-.24l.11-1.05c-.05-.19-.11-.4-.18-.63.08-.37.15-.69.2-.96.05-.27.08-.5.12-.68.08-.61.22-1.21.44-1.81.21-.6.5-1.2.85-1.8.43-.69.88-1.23,1.35-1.62.47-.39.96-.63,1.48-.71.09-.02.2-.05.33-.08.13-.03.27-.08.43-.14.2.06.4.11.6.16.2.04.4.09.6.13.21.08.36.21.46.37.1.16.16.35.16.56,0,.15-.05.32-.15.51-.1.19-.26.39-.49.59-.06.08-.14.27-.24.58-.1.31-.21.73-.34,1.27-.12.49-.21.89-.28,1.21s-.09.53-.09.63c.02.3.05.59.07.88,0,.05-.01.13-.04.24-.03.12-.04.2-.04.25,0,.06.03.11.1.13.07.03.19.04.36.04.35-.09.68-.18.99-.25.08-.02.17-.15.29-.38.11-.23.25-.58.41-1.03.15-.41.28-.76.37-1.04.1-.28.15-.48.15-.6.09-.46.17-.86.22-1.21.06-.35.11-.64.16-.87.01-.08.03-.22.03-.43s.01-.49.01-.84c0-.75-.07-1.33-.22-1.72s-.37-.63-.68-.7l-.37-.07c-.15-.11-.34-.19-.59-.24-.25-.05-.54-.08-.9-.08-.16,0-.51.08-1.03.23-.53.15-.84.27-.92.34-.08.06-.14.12-.2.17-.06.05-.11.09-.14.12-.15.08-.28.14-.39.2s-.2.1-.28.13c-.26.25-.49.45-.67.6s-.35.27-.48.35c-.14.15-.26.28-.36.4s-.18.22-.25.3c-.31.31-.59.62-.83.91s-.44.58-.59.85c-.18.36-.35.73-.53,1.12-.18.38-.35.76-.53,1.14-.05.1-.08.19-.11.27-.03.08-.04.15-.04.21l.04.25c-.05.19-.11.36-.17.52s-.12.28-.17.39c-.07.56-.12,1-.16,1.31-.04.31-.06.5-.06.56s.02.15.05.26.08.26.14.44l-.13.52c0,.06.01.2.07.4s.13.48.24.82l.31.99c.06.17.16.36.3.56.14.21.33.42.56.66.24.25.46.44.66.57.2.14.38.21.52.22l.33.05.14.14c.09,0,.21.03.34.07.14.04.31.08.51.14.16.05.31.09.45.12.14.03.27.05.38.05.37,0,.73-.03,1.08-.1.35-.07.69-.17,1-.32.21-.08.48-.21.8-.38.32-.17.68-.38,1.1-.62.46-.28.86-.53,1.2-.76.09-.06.16-.11.24-.17-.12.32-.18.66-.18,1.01,0,.37.12.64.36.83.24.18.6.28,1.09.28.18,0,.41-.02.67-.06.26-.04.55-.1.87-.17.25-.05.51-.11.76-.17.26-.06.51-.13.76-.2.4-.11.75-.21,1.05-.32s.56-.19.76-.27c.26-.07.49-.12.7-.17s.38-.08.52-.12c.56-.15,1.09-.32,1.6-.49.51-.18.99-.37,1.45-.59,0-.04,0-.08-.02-.12ZM446.75,165.45c.07-.71.12-1.43.17-2.15.06-.51.1-.91.13-1.21.02-.3.04-.5.04-.59,0-.25,0-.45.02-.63.02-.17.03-.3.05-.38.03-.13.06-.29.08-.48-.02-.15-.05-.3-.07-.44.03-.08.06-.21.1-.37,0-.07-.01-.12-.04-.15-.03-.03-.08-.05-.16-.05h-.09c-.21.13-.41.3-.59.5-.18.2-.33.44-.45.72-.05.14-.12.34-.2.6-.08.26-.16.6-.24,1-.1.46-.21.93-.32,1.41,0,.18.02.44.06.79.04.35.06.61.06.79,0,.1,0,.21-.02.34-.02.13-.04.28-.07.45-.02.18-.05.33-.07.47-.03.14-.04.25-.04.32-.04.76-.08,1.36-.11,1.81s-.07.74-.1.87c-.05.21-.1.47-.17.77-.06.3-.13.65-.21,1.05-.06.26-.13.49-.2.7-.04.15-.08.28-.1.4-.02.12-.03.22-.03.3,0,.19-.02.33-.05.42s-.09.13-.17.13c-.09,0-.23-.16-.41-.48-.18-.32-.42-.81-.7-1.47-.28-.63-.54-1.29-.79-1.97-.25-.69-.49-1.4-.72-2.13-.25-.67-.5-1.31-.75-1.92-.18-.45-.31-.83-.4-1.13s-.14-.53-.14-.68c0-.12.03-.25.1-.4.07-.14.16-.3.27-.48.01-.08.05-.2.09-.36s.11-.34.2-.58c.08-.21.13-.38.17-.51.04-.13.06-.21.06-.25,0-.07,0-.12-.03-.16-.02-.04-.06-.07-.11-.1-.09-.04-.2-.09-.33-.15-.11.03-.21.08-.3.16-.09.08-.19.18-.29.3-.12.15-.21.28-.29.37-.08.09-.15.16-.2.2-.05-.02-.13-.08-.24-.18-.12-.11-.21-.16-.28-.16-.06,0-.16.02-.31.05-.14.03-.25.05-.32.05-.18,0-.33.03-.44.09-.11.06-.19.14-.24.25-.04.15-.08.31-.13.47s-.09.31-.14.47l.18.75c-.18,1.2-.38,2.4-.58,3.59-.18,1.21-.33,2.16-.45,2.83-.12.68-.19,1.09-.23,1.25-.05.2-.1.37-.13.52s-.06.27-.07.37c-.05.39-.09.74-.13,1.04s-.07.54-.1.72c-.02.06-.05.21-.1.43-.05.23-.12.54-.2.94-.08.35-.13.64-.17.87-.04.23-.06.4-.06.51,0,.18.02.32.06.42.04.1.1.14.17.12.11-.03.18-.06.23-.1.05-.03.08-.07.09-.1.15,0,.27-.06.36-.14.09-.09.14-.22.17-.4.12-.34.21-.64.29-.89s.15-.46.2-.64c.04-.22.07-.45.1-.68l.21-.38c.06-.23.12-.45.16-.67.05-.21.09-.42.14-.62.17-.6.33-1.16.47-1.68.15-.52.28-1,.39-1.45.08-.16.17-.34.24-.55.07-.32.13-.6.18-.83.05-.23.11-.42.16-.58l.08-.03c.12.18.21.34.29.5.08.16.15.32.2.49.31.68.58,1.27.81,1.77.23.5.43.92.58,1.25.04.14.07.26.1.37.03.11.05.2.07.26.05.18.16.46.33.82.18.36.41.83.71,1.38.31.62.59,1.08.82,1.39.23.3.4.45.52.45.05,0,.31-.08.77-.25s.7-.26.72-.29l.36-.58c.16-.48.29-.93.4-1.34.1-.41.17-.79.21-1.13.16-.56.3-1.19.41-1.9.12-.71.2-1.49.26-2.35.07-.71.14-1.43.2-2.14ZM456.72,168.53c0,.14-.02.25-.06.33s-.1.14-.18.19c-.1.06-.18.12-.24.16-.06.05-.1.08-.12.12l.15.71-.21,1.63c0,.14-.01.32-.03.53-.02.21-.06.46-.1.75-.08.21-.13.38-.17.52-.04.14-.06.23-.06.28.04.13.07.27.1.41-.05.21-.09.42-.14.62s-.1.41-.14.61c-.08.27-.2.47-.33.59-.14.13-.3.19-.48.19-.1,0-.17-.04-.22-.13-.05-.09-.08-.22-.08-.4,0-.08.01-.19.04-.33.03-.15.04-.26.04-.33,0-.05,0-.13-.02-.22-.02-.09-.02-.17-.02-.24,0-.21.02-.56.06-1.03s.06-.83.06-1.06c-.04-.13-.08-.26-.12-.4.02-.15.04-.29.05-.44,0-.15,0-.29-.01-.42l.17-.31-.15-1.07-.08-.04s-.11.02-.2.05c-.09.04-.2.09-.33.17-.09.03-.24.06-.43.1-.2.04-.46.06-.78.06-.14.07-.27.13-.39.18-.18.04-.4.11-.67.2-.27.1-.58.21-.93.35-.21.1-.4.18-.57.24-.17.06-.32.09-.43.09-.09,0-.17.03-.23.1-.06.07-.11.17-.15.3-.02.12-.08.29-.17.51-.09.21-.21.48-.35.81-.03.08-.07.21-.13.39-.05.18-.11.4-.18.66-.05.1-.1.22-.16.37s-.13.32-.21.52c0,.09,0,.21-.03.34-.02.13-.05.29-.09.47-.04.11-.09.24-.16.41s-.15.35-.25.55c-.06.12-.15.21-.26.27-.12.06-.26.09-.45.09-.13,0-.23-.04-.3-.13-.07-.09-.11-.22-.11-.41,0-.2.02-.43.07-.68s.12-.54.22-.84c.11-.41.2-.74.28-.99.08-.25.12-.44.13-.56.02-.05.06-.15.1-.29s.1-.31.16-.51c.07-.19.13-.41.2-.66l-.06-.09-.37.06c-.08,0-.15-.04-.18-.1-.04-.06-.06-.14-.06-.24,0-.05,0-.11.02-.18.02-.07.04-.14.07-.24-.02-.08-.04-.15-.04-.21s0-.1,0-.14c0-.25.03-.47.09-.65.06-.18.15-.33.28-.45.03-.03.11-.08.24-.14.13-.06.29-.13.5-.22.15-.07.26-.15.35-.25.09-.1.14-.21.14-.35.02-.11.07-.23.14-.37.07-.14.15-.29.24-.45.03-.05.12-.31.28-.79.15-.48.37-1.19.64-2.13.08-.28.15-.53.23-.74.08-.21.14-.38.2-.53.25-.65.45-1.08.6-1.28s.27-.37.35-.5v-.06l-.36-.56.45-.52.58-.11c.12-.02.22-.12.32-.32s.26-.42.5-.66c.05-.02.14-.06.26-.14.12-.08.27-.19.45-.34.16-.13.3-.23.41-.29s.2-.09.26-.09c.21,0,.36.04.45.13.09.08.14.2.14.33,0,.17-.09.41-.26.74-.18.32-.26.57-.26.74,0,.08.02.14.05.19.03.05.07.08.12.1l1.38.75c.08.03.14.15.21.36.06.21.11.5.15.87.05.31.08.56.11.76.03.2.04.37.04.49-.05.33-.11.66-.16,1,.08.43.16.88.25,1.36-.05.45-.09.91-.15,1.38,0,.05,0,.09.03.12.02.03.05.06.09.06.13,0,.23.04.29.1.06.06.1.15.1.25ZM454.56,166.74l-.14-.52.05-.47c-.03-.17-.06-.33-.08-.48-.02-.15-.02-.27,0-.37-.01-.03-.04-.08-.08-.15-.04-.07-.08-.14-.13-.22-.08-.13-.16-.25-.24-.37-.08-.12-.16-.24-.24-.36-.11-.15-.22-.25-.34-.32-.12-.07-.25-.1-.38-.1-.15,0-.31.12-.47.37-.16.25-.31.62-.45,1.12-.02.06-.09.19-.19.38s-.25.44-.44.75c-.03.29-.13.65-.31,1.09-.18.43-.42.94-.74,1.52-.04.05-.06.1-.06.14,0,.04,0,.08,0,.13,0,.05.01.09.04.12.03.03.07.04.12.04.08,0,.2,0,.37-.02.17-.02.3-.02.37-.02.18,0,.44-.04.78-.13.34-.08.6-.13.78-.13.11.02.21.04.32.06.19-.04.38-.08.56-.13.18-.05.37-.09.56-.13.08-.01.13-.04.17-.09s.06-.1.06-.17c-.02-.23-.02-.39-.02-.47,0-.15,0-.31.03-.49.02-.18.05-.37.09-.56Z"/>
</svg>