<?xml version="1.0" encoding="UTF-8"?>
<svg id="Warstwa_1" xmlns="http://www.w3.org/2000/svg" version="1.1" viewBox="0 0 449.38 158.31">
  <!-- Generator: Adobe Illustrator 30.5.1, SVG Export Plug-In . SVG Version: 2.1.4 Build 3)  -->
  <path d="M63.94,53.47c-6.87-16.24-8.35-34.12-3.8-51.02,6.28-1.59,12.86-2.45,19.63-2.45,13.47,0,26.14,3.36,37.27,9.26-13.9,8.51-24.77,21.08-31.56,36-3.42.26-5.79.88-9.3,2.06-5,1.79-7.69,4.6-12.24,6.15ZM157.1,60.26c-9.45-2.55-19.2-3.21-28.8-2.09,6.45,5.94,10.69,14.02,10.52,24.54-.14,6.08.46,13.77,1.01,20.94,3.95,4.13,7.47,8.68,10.48,13.61,5.9-11.15,9.24-23.85,9.24-37.35,0-6.79-.85-13.37-2.44-19.66ZM89.41,45.12c.49,0,1,0,1.54,0,11-.03,23.97,3.09,33.64,10.03,10.42-1.65,21.08-1.29,31.43,1.22-5.87-19.08-18.67-35.1-35.46-45.13-13.6,7.84-24.32,19.69-31.15,33.88ZM2.45,99.6c-1.59-6.3-2.45-12.88-2.45-19.67,0-13.49,3.35-26.19,9.24-37.34,2.07,3.4,4.39,6.61,6.92,9.64.96-.98,2.12-1.34,3.43-1.35-3.15-3.64-5.96-7.59-8.38-11.81C21.22,22.24,37.21,9.41,56.26,3.53c-4.06,16.81-2.49,34.45,4.15,50.57-6.51.71-13.65.49-21.62-.06-2.64-.19-5.47-.64-8.12-1.14-.16.92-.45,1.95-.95,3.02-.41.89-2.02,4.18-5.78,5.69-2.45.99-4.61.74-5.66.61-1.74-.22-3.22-.78-4.4-1.41.09,3.06.7,6.12,1.19,8.14.37,1.51.85,3.01,1.42,4.46.07.18.14.36.22.54,1.61,1.48,2.7,2.62,3.22,3.15,4,4.04,11.45,9.59,19.27,12.27,3.5,1.2,9.44,2.67,17.48,1.79-.24.07-7.34,1.45-15.54-.2-8.46-1.71-14.28-5.57-17.28-7.59-1.27-.86-2.47-1.74-3.59-2.66,1.12,1.72,2.38,3.35,3.77,4.88,1.97,2.18,4.09,4.33,6.61,5.87,2.58,1.58,5.46,2.63,8.19,3.92,2.1,1,4.13,2.16,6.08,3.46-13.84,4.16-28.49,4.53-42.46.76ZM63.6,125.92c-.46-3.08-1.04-5.41-1.97-7.64-1.99-4.8-5.14-9.15-8.76-12.85-1.39-1.42-2.88-2.75-4.44-4.01-8.32,2.78-16.95,4.24-25.6,4.3-6.46.05-12.94-.7-19.29-2.24,5.86,19.08,18.65,35.1,35.44,45.13,9.84-5.68,18.18-13.45,24.63-22.69ZM64.23,130.99c-5.97,7.77-13.29,14.44-21.73,19.6,6.71,3.56,13.97,6.2,21.64,7.72,0,0,0,0,0,0,1.56-7.6,1.3-14.69.56-22.5-.17-1.78-.32-3.37-.47-4.82ZM114.52,137.98c-5.72,2.82-12.01,1.25-16.95-2.38-7.57-5.18-12.42-15.09-7.13-23.52,3.48-5.5,9.24-8.65,13.95-13.08,2.46-2.28,4.58-4.96,6.18-7.88,3.21-5.86,4.7-12.55,4.39-19.08-.38,6.46-2.13,12.91-5.66,18.32-5.05,8.82-15.47,11.91-21.1,20.31-6.37,9.73-1.14,21.29,7.62,27.38,9.66,7.04,20.4,5.09,28-3.81,9.78-12.97,11.64-31.5,12.62-47.26-2.38,15.24-6.34,44.22-21.93,51ZM83.8,64.87c.76,2.42.42,4.47.22,5.36-1.03.63-2.38,1.25-4.02,1.51-6.12.97-10.87-3.85-11.52-4.53.81-1.17,2.48-3.24,5.29-4.85,2.89-1.65,5.59-2.01,7.02-2.11.69.6,2.22,2.11,3.01,4.61ZM81.74,65.57c0-1.9-1.54-3.44-3.43-3.44s-3.43,1.54-3.43,3.44,1.54,3.44,3.43,3.44,3.43-1.54,3.43-3.44ZM148.3,120.89c-.73-1.27-1.49-2.51-2.3-3.73-1.76-2.7-3.69-5.27-5.77-7.71.03.36.05.72.08,1.07.33,4.33.8,8.57,2.19,12.31.5,1.4,1.14,2.74,1.95,3.98.34-.48.68-.96,1.02-1.45.33-.48.66-.97.98-1.46.32-.49.64-.99.95-1.49.32-.5.62-1.01.92-1.51,0,0,0,0,0,0Z"/>
  <path d="M214.26,7.32h1v58.2c0,.89-.13,1.94-.4,3.13-.27,1.19-.68,2.48-1.25,3.87-.57,1.39-1.38,2.68-2.45,3.87-2.47,2.71-6.07,4.07-10.8,4.07-4.47,0-7.97-1.36-10.5-4.07-1.2-1.26-2.08-2.68-2.65-4.27-.57-1.59-.95-3.09-1.15-4.52-.2-1.42-.28-2.63-.25-3.62.03-.99.05-1.55.05-1.69h2.1c0,1.85.08,3.44.25,4.76.17,1.32.5,2.71,1,4.17.5,1.46,1.25,2.71,2.25,3.77,2.07,2.25,5.03,3.37,8.9,3.37s7-1.16,9.2-3.47c1-1.06,1.75-2.22,2.25-3.47.5-1.26.85-2.43,1.05-3.52.2-1.09.3-2.4.3-3.92V7.32h1.1ZM247.26,7.82l14.6,72.14h-2.2l-4.5-21.73h-17.4l-4.7,21.73h-2.2l14.7-72.14h1.7ZM254.56,56.14l-8.1-42.87-8.4,42.87h16.5ZM315.36,7.82h-.8l-18.5,35.92-18.5-35.92h-1.7v72.14h2.1V13.07l17.4,34.14h1.4l17.3-34.24v66.98h2.1V7.82h-.8ZM364.26,7.82v66.68c-.13-.33-.28-.76-.45-1.29-.17-.53-.45-1.26-.85-2.18l-27.7-63.21h-1.7v72.14h2.1l-.2-67.18c.13.6.42,1.41.85,2.43.43,1.03.72,1.7.85,2.03l27.39,62.72h1.81V7.82h-2.1ZM386.46,7.82v72.14h2.1V7.82h-2.1ZM423.86,37.98c-.07-.07-.12-.13-.15-.2-.03-.06-.12-.13-.25-.2l18.5-29.57h-2.7l-27.6,44.95V7.91h-2.1v71.94h2.1v-23.12l10.6-17.17,20.4,39.99h2.4l-21.2-41.58ZM191.57,115.39c4.1,0,6.2-2.13,6.2-5.09,0-2.75-1.67-4.27-5-4.71l-.82-.12c-2.62-.35-3.57-1.29-3.57-2.7,0-1.61,1.15-2.73,3.22-2.73,1.45,0,2.72.42,4.1,1.27.12.07.25.07.35-.05l.85-1.36c.1-.12.08-.25-.05-.35-1.25-.92-3.17-1.56-5.17-1.56-3.37,0-5.55,1.93-5.55,4.94,0,2.66,1.7,4.22,5,4.67l.85.12c2.72.35,3.55,1.31,3.55,2.75,0,1.71-1.4,2.88-3.75,2.88-1.95,0-3.65-.87-4.75-1.74-.12-.1-.25-.1-.35.02l-1.1,1.29c-.1.12-.07.27.03.37,1.25,1.14,3.57,2.11,5.97,2.11ZM207.6,115.12c.15,0,.25-.1.25-.25v-14.42c0-.1.05-.15.15-.15h4.65c.15,0,.25-.1.25-.25v-1.56c0-.15-.1-.25-.25-.25h-11.82c-.15,0-.25.1-.25.25v1.56c0,.15.1.25.25.25h4.65c.1,0,.15.05.15.15v14.42c0,.15.1.25.25.25h1.72ZM222.67,115.39c3.72,0,6-2.18,6-6.15v-10.74c0-.15-.1-.25-.25-.25h-1.72c-.15,0-.25.1-.25.25v10.72c0,2.73-1.53,4.12-3.77,4.12s-3.8-1.39-3.8-4.12v-10.72c0-.15-.1-.25-.25-.25h-1.72c-.15,0-.25.1-.25.25v10.74c0,3.97,2.27,6.15,6.02,6.15ZM233.97,114.87c0,.15.1.25.25.25h5.72c2.87,0,4.77-1.22,5.55-3.6.3-.92.45-1.84.45-4.84s-.15-3.92-.45-4.84c-.78-2.38-2.67-3.6-5.55-3.6h-5.72c-.15,0-.25.1-.25.25v16.38ZM236.19,112.91v-12.46c0-.1.05-.15.15-.15h3.12c2.05,0,3.32.67,3.87,2.31.22.62.35,1.44.35,4.07s-.12,3.45-.35,4.07c-.55,1.64-1.83,2.31-3.87,2.31h-3.12c-.1,0-.15-.05-.15-.15ZM250.77,114.87c0,.15.1.25.25.25h10.22c.15,0,.25-.1.25-.25v-1.56c0-.15-.1-.25-.25-.25h-8.1c-.1,0-.15-.05-.15-.15v-5.14c0-.1.05-.15.15-.15h6.87c.15,0,.25-.1.25-.25v-1.56c0-.15-.1-.25-.25-.25h-6.87c-.1,0-.15-.05-.15-.15v-4.96c0-.1.05-.15.15-.15h8.1c.15,0,.25-.1.25-.25v-1.56c0-.15-.1-.25-.25-.25h-10.22c-.15,0-.25.1-.25.25v16.38ZM266.07,114.87c0,.15.1.25.25.25h1.57c.15,0,.25-.1.25-.25v-12.6h.08l7.72,12.6c.1.2.25.25.42.25h1.6c.15,0,.25-.1.25-.25v-16.38c0-.15-.1-.25-.25-.25h-1.57c-.15,0-.25.1-.25.25v12.65h-.1l-7.7-12.65c-.1-.2-.22-.25-.42-.25h-1.6c-.15,0-.25.1-.25.25v16.38ZM283.49,111.42c.85,2.65,2.88,3.97,5.65,3.97,2.52,0,4.47-1.24,5.45-3.4.05-.12.03-.25-.1-.32l-1.5-.72c-.15-.07-.3,0-.35.12-.67,1.32-1.72,2.26-3.5,2.26s-2.97-.89-3.52-2.48c-.23-.69-.33-1.51-.33-4.17s.1-3.47.33-4.17c.55-1.59,1.67-2.48,3.52-2.48s2.83.94,3.5,2.26c.05.12.2.2.35.12l1.5-.72c.12-.07.15-.2.1-.32-.97-2.16-2.92-3.4-5.45-3.4-2.77,0-4.8,1.31-5.65,3.97-.32.97-.45,1.93-.45,4.74s.12,3.77.45,4.74ZM299.02,114.87c0,.15.1.25.25.25h1.72c.15,0,.25-.1.25-.25v-4.66l3.02-3.62,4.77,8.31c.1.17.17.22.35.22h2c.17,0,.25-.12.15-.27l-5.82-9.97,5.3-6.33c.12-.15.05-.3-.1-.3h-2.05c-.17,0-.28.05-.4.22l-7.22,8.81v-8.78c0-.15-.1-.25-.25-.25h-1.72c-.15,0-.25.1-.25.25v16.38ZM314.14,114.87c-.05.15.03.25.17.25h1.75c.15,0,.25-.07.33-.25l1.3-3.67h6.87l1.3,3.67c.05.17.15.25.32.25h1.75c.15,0,.22-.1.17-.25l-5.82-16.38c-.05-.15-.15-.25-.33-.25h-1.62c-.18,0-.25.1-.3.25l-5.9,16.38ZM318.42,109.16l2.7-7.67h.05l2.67,7.67h-5.42ZM337.52,114.87c-.05.15,0,.25.17.25h3.27c.17,0,.28-.07.33-.25l.95-2.95h5.95l.97,2.95c.05.17.15.25.33.25h3.25c.17,0,.22-.1.17-.25l-5.75-16.38c-.05-.15-.15-.25-.33-.25h-3.15c-.17,0-.28.1-.33.25l-5.85,16.38ZM343.27,108.81l1.92-5.91h.07l1.92,5.91h-3.92ZM356.14,111.3c.88,2.73,3.22,4.09,6.25,4.09s5.35-1.51,6.2-4.22c.3-.92.42-2.31.42-3.8v-1.39c0-.15-.1-.25-.25-.25h-5.85c-.15,0-.25.1-.25.25v2.38c0,.15.1.25.25.25h2.3c.1,0,.15.05.15.15,0,.72-.08,1.24-.2,1.66-.35,1.12-1.45,1.74-2.72,1.74-1.47,0-2.4-.69-2.77-1.86-.2-.59-.28-1.41-.28-3.62s.08-3,.28-3.6c.38-1.17,1.27-1.89,2.72-1.89s2.25.6,2.92,1.74c.05.12.17.17.35.12l2.67-1.12c.15-.08.17-.22.1-.37-.8-2.03-2.87-3.6-6.05-3.6s-5.37,1.36-6.25,4.09c-.38,1.17-.47,2.11-.47,4.61s.1,3.45.47,4.62ZM373.04,114.87c0,.15.1.25.25.25h10.9c.15,0,.25-.1.25-.25v-2.65c0-.15-.1-.25-.25-.25h-7.32c-.1,0-.15-.05-.15-.15v-3.5c0-.1.05-.15.15-.15h6.1c.15,0,.25-.1.25-.25v-2.63c0-.15-.1-.25-.25-.25h-6.1c-.1,0-.15-.05-.15-.15v-3.35c0-.1.05-.15.15-.15h7.32c.15,0,.25-.1.25-.25v-2.66c0-.15-.1-.25-.25-.25h-10.9c-.15,0-.25.1-.25.25v16.38ZM388.39,114.87c0,.15.1.25.25.25h2.82c.15,0,.25-.1.25-.25v-10.59h.12l6.02,10.59c.1.17.22.25.42.25h2.97c.15,0,.25-.1.25-.25v-16.38c0-.15-.1-.25-.25-.25h-2.82c-.15,0-.25.1-.25.25v10.62h-.12l-6-10.62c-.1-.17-.25-.25-.42-.25h-3c-.15,0-.25.1-.25.25v16.38ZM406.02,111.25c.9,2.75,3.07,4.14,6.05,4.14s4.97-1.39,5.92-3.75c.07-.12.02-.25-.12-.3l-2.72-1.22c-.15-.08-.28-.03-.35.12-.48,1.09-1.28,1.91-2.7,1.91-1.32,0-2.17-.69-2.55-1.86-.2-.62-.28-1.21-.28-3.62s.08-3,.28-3.62c.38-1.17,1.22-1.86,2.55-1.86,1.42,0,2.22.82,2.7,1.91.07.15.2.2.35.12l2.72-1.22c.15-.05.2-.17.12-.3-.95-2.36-3.05-3.75-5.92-3.75s-5.15,1.39-6.05,4.14c-.38,1.09-.47,1.96-.47,4.57s.1,3.47.47,4.57ZM420.49,113.23c.8,1.24,2.67,2.16,4.75,2.16,3.87,0,6.2-2.18,6.2-6.33v-10.57c0-.15-.1-.25-.25-.25h-3.17c-.15,0-.25.1-.25.25v10.74c0,1.91-.9,2.93-2.5,2.93-.9,0-1.65-.5-2.07-.99-.12-.12-.25-.12-.35-.05l-2.32,1.76c-.1.1-.1.22-.03.35ZM433.97,114.87c-.05.15,0,.25.17.25h3.27c.17,0,.28-.07.33-.25l.95-2.95h5.95l.97,2.95c.05.17.15.25.33.25h3.25c.17,0,.22-.1.17-.25l-5.75-16.38c-.05-.15-.15-.25-.33-.25h-3.15c-.17,0-.28.1-.33.25l-5.85,16.38ZM439.72,108.81l1.92-5.91h.07l1.92,5.91h-3.92ZM185.95,136.7c0,.15.1.25.25.25h3.17c.15,0,.25-.1.25-.25v-6.35c0-.1.05-.15.15-.15h6.1c.15,0,.25-.1.25-.25v-2.63c0-.15-.1-.25-.25-.25h-6.1c-.1,0-.15-.05-.15-.15v-3.55c0-.1.05-.15.15-.15h7.32c.15,0,.25-.1.25-.25v-2.66c0-.15-.1-.25-.25-.25h-10.9c-.15,0-.25.1-.25.25v16.38ZM212.42,137.22c2.97,0,5.32-1.37,6.2-4.09.38-1.17.47-2.11.47-4.62s-.1-3.45-.47-4.61c-.88-2.73-3.22-4.09-6.2-4.09s-5.32,1.36-6.2,4.09c-.38,1.17-.47,2.11-.47,4.61s.1,3.45.47,4.62c.88,2.73,3.22,4.09,6.2,4.09ZM212.42,133.99c-1.4,0-2.3-.69-2.67-1.86-.2-.59-.28-1.41-.28-3.62s.08-3.03.28-3.62c.38-1.17,1.27-1.86,2.67-1.86s2.3.7,2.67,1.86c.2.6.28,1.41.28,3.62s-.08,3.03-.28,3.62c-.38,1.17-1.27,1.86-2.67,1.86ZM235.15,136.95c.15,0,.25-.1.25-.25v-13.22c0-.1.05-.15.15-.15h4.3c.15,0,.25-.1.25-.25v-2.75c0-.15-.1-.25-.25-.25h-12.57c-.15,0-.25.1-.25.25v2.75c0,.15.1.25.25.25h4.3c.1,0,.15.05.15.15v13.22c0,.15.1.25.25.25h3.17ZM254.69,137.22c2.97,0,5.32-1.37,6.2-4.09.38-1.17.47-2.11.47-4.62s-.1-3.45-.47-4.61c-.88-2.73-3.22-4.09-6.2-4.09s-5.32,1.36-6.2,4.09c-.38,1.17-.47,2.11-.47,4.61s.1,3.45.47,4.62c.88,2.73,3.22,4.09,6.2,4.09ZM254.69,133.99c-1.4,0-2.3-.69-2.67-1.86-.2-.59-.28-1.41-.28-3.62s.08-3.03.28-3.62c.38-1.17,1.27-1.86,2.67-1.86s2.3.7,2.67,1.86c.2.6.27,1.41.27,3.62s-.07,3.03-.27,3.62c-.38,1.17-1.27,1.86-2.67,1.86ZM270.52,133.13c.88,2.73,3.22,4.09,6.25,4.09s5.35-1.51,6.2-4.22c.3-.92.42-2.31.42-3.8v-1.39c0-.15-.1-.25-.25-.25h-5.85c-.15,0-.25.1-.25.25v2.38c0,.15.1.25.25.25h2.3c.1,0,.15.05.15.15,0,.72-.08,1.24-.2,1.66-.35,1.12-1.45,1.74-2.72,1.74-1.47,0-2.4-.69-2.77-1.86-.2-.59-.28-1.41-.28-3.62s.08-3,.28-3.6c.38-1.17,1.27-1.89,2.72-1.89s2.25.6,2.92,1.74c.05.12.17.17.35.12l2.67-1.12c.15-.08.17-.22.1-.37-.8-2.03-2.87-3.6-6.05-3.6s-5.37,1.36-6.25,4.09c-.38,1.17-.47,2.11-.47,4.61s.1,3.45.47,4.62ZM305.47,136.95c.17,0,.25-.15.17-.3l-3.35-6.65c1.87-.82,3.02-2.53,3.02-4.69,0-3.08-2.3-5.24-5.77-5.24h-6.77c-.15,0-.25.1-.25.25v16.38c0,.15.1.25.25.25h3.17c.15,0,.25-.1.25-.25v-6.03c0-.1.05-.15.15-.15h2.27l2.92,6.18c.08.17.15.25.38.25h3.55ZM299.34,127.42h-3c-.1,0-.15-.05-.15-.15v-3.9c0-.1.05-.15.15-.15h3c1.4,0,2.3.82,2.3,2.08s-.9,2.11-2.3,2.11ZM313.17,136.7c-.05.15,0,.25.17.25h3.27c.17,0,.28-.07.33-.25l.95-2.95h5.95l.97,2.95c.05.17.15.25.33.25h3.25c.17,0,.22-.1.17-.25l-5.75-16.38c-.05-.15-.15-.25-.32-.25h-3.15c-.17,0-.28.1-.33.25l-5.85,16.38ZM318.92,130.64l1.92-5.91h.07l1.92,5.91h-3.92ZM336.87,136.7c0,.15.1.25.25.25h3.17c.15,0,.25-.1.25-.25v-6.35c0-.1.05-.15.15-.15h6.1c.15,0,.25-.1.25-.25v-2.63c0-.15-.1-.25-.25-.25h-6.1c-.1,0-.15-.05-.15-.15v-3.55c0-.1.05-.15.15-.15h7.32c.15,0,.25-.1.25-.25v-2.66c0-.15-.1-.25-.25-.25h-10.9c-.15,0-.25.1-.25.25v16.38ZM357.12,136.7c0,.15.1.25.25.25h3.17c.15,0,.25-.1.25-.25v-16.38c0-.15-.1-.25-.25-.25h-3.17c-.15,0-.25.1-.25.25v16.38ZM370.39,133.08c.9,2.75,3.07,4.14,6.05,4.14s4.97-1.39,5.92-3.75c.07-.12.02-.25-.12-.3l-2.72-1.22c-.15-.08-.28-.03-.35.12-.48,1.09-1.28,1.91-2.7,1.91-1.32,0-2.17-.69-2.55-1.86-.2-.62-.28-1.21-.28-3.62s.08-3,.28-3.62c.38-1.17,1.22-1.86,2.55-1.86,1.42,0,2.22.82,2.7,1.91.07.15.2.2.35.12l2.72-1.22c.15-.05.2-.17.12-.3-.95-2.36-3.05-3.75-5.92-3.75s-5.15,1.39-6.05,4.14c-.38,1.09-.47,1.96-.47,4.57s.1,3.47.47,4.57ZM401.84,136.95c.15,0,.25-.1.25-.25v-2.75c0-.15-.1-.25-.25-.25h-7.17v-.05l7.35-10.35c.05-.07.07-.15.07-.25v-2.73c0-.15-.1-.25-.25-.25h-10.87c-.15,0-.25.1-.25.25v2.75c0,.15.1.25.25.25h6.87v.05l-7.32,10.35c-.05.08-.08.15-.08.25v2.73c0,.15.1.25.25.25h11.15ZM411.04,136.7c0,.15.1.25.25.25h2.82c.15,0,.25-.1.25-.25v-10.59h.12l6.02,10.59c.1.17.22.25.42.25h2.97c.15,0,.25-.1.25-.25v-16.38c0-.15-.1-.25-.25-.25h-2.82c-.15,0-.25.1-.25.25v10.62h-.12l-6-10.62c-.1-.17-.25-.25-.42-.25h-3c-.15,0-.25.1-.25.25v16.38ZM432.47,136.7c-.05.15,0,.25.17.25h3.27c.17,0,.28-.07.33-.25l.95-2.95h5.95l.97,2.95c.05.17.15.25.33.25h3.25c.17,0,.22-.1.17-.25l-5.75-16.38c-.05-.15-.15-.25-.32-.25h-3.15c-.17,0-.28.1-.33.25l-5.85,16.38ZM438.22,130.64l1.92-5.91h.07l1.92,5.91h-3.92Z"/>
</svg>