<?xml version="1.0" encoding="UTF-8"?>
<svg id="Warstwa_1" xmlns="http://www.w3.org/2000/svg" version="1.1" viewBox="0 0 167.39 167.39">
  <!-- Generator: Adobe Illustrator 30.5.1, SVG Export Plug-In . SVG Version: 2.1.4 Build 3)  -->
  <defs>
    <style>
      .st0 {
        fill: #fff;
      }
    </style>
  </defs>
  <g id="emblem_jamnik">
    <path class="st0" d="M83.69,0C37.54,0,0,37.54,0,83.69s37.54,83.7,83.69,83.7,83.7-37.55,83.7-83.7S129.85,0,83.69,0ZM126.09,16.03c.51.32,1.03.66,1.54.99.76.5,1.52,1.02,2.26,1.55.74.53,1.48,1.07,2.2,1.62.49.38.97.74,1.44,1.13,1.43,1.13,2.81,2.32,4.15,3.56,1.79,1.62,3.49,3.33,5.11,5.13,0,.02.02.03.03.04.83.9,1.62,1.82,2.39,2.76.79.93,1.54,1.89,2.26,2.86.37.49.73.97,1.09,1.47,1.07,1.48,2.08,3.01,3.04,4.56.32.52.64,1.04.95,1.57.63,1.05,1.23,2.13,1.79,3.21.28.54.56,1.09.84,1.63.25.5.5,1.01.73,1.51.07.15.14.3.21.44.19.41.38.81.56,1.22.04.1.09.21.14.32.22.51.44,1.03.66,1.55.47,1.12.91,2.26,1.32,3.4.03.09.05.17.09.26.19.52.37,1.04.54,1.56.2.59.38,1.18.57,1.78-1.44-.35-2.9-.66-4.35-.92-8.98-1.64-18.13-1.72-27.1-.29-9.68-6.94-22.67-10.07-33.68-10.03-.54,0-1.05,0-1.55,0,6.19-12.85,15.6-23.79,27.45-31.55,1.22-.81,2.46-1.57,3.73-2.31.52.32,1.04.63,1.56.96ZM63.03,10.54c.29-1.43.63-2.85,1.02-4.26,1.32-.33,2.67-.64,4.02-.9.38-.09.76-.15,1.14-.22.27-.05.54-.1.81-.15.5-.09,1.01-.17,1.51-.25.51-.09,1.03-.15,1.55-.22.66-.09,1.32-.17,1.97-.24.28-.03.56-.06.85-.09.5-.05,1-.09,1.5-.13.21-.02.43-.03.64-.05.5-.03,1.01-.07,1.51-.09h.04c.52-.03,1.04-.04,1.56-.06.25,0,.5-.02.76-.02.59-.02,1.18-.03,1.77-.03s1.17,0,1.75.03c.25,0,.5,0,.75.02.6.02,1.2.04,1.8.07.59.03,1.18.07,1.77.12.47.03.95.08,1.42.12.33.03.67.06.99.09.69.08,1.38.15,2.06.25.47.06.94.13,1.4.2.15.03.29.04.44.07.54.08,1.07.17,1.6.26.11.02.22.04.32.06.4.07.8.15,1.2.23.16.03.32.06.48.09.32.06.64.13.96.2.12.03.24.05.35.08.75.17,1.5.34,2.24.53.39.1.78.2,1.17.31.78.21,1.55.43,2.32.66.48.15.96.3,1.44.44,1.43.45,2.84.95,4.23,1.5.58.22,1.15.45,1.73.7.28.11.56.23.85.35.49.21.97.41,1.44.63.26.12.5.23.75.35,1.31.6,2.6,1.23,3.86,1.91-1.26.78-2.51,1.58-3.73,2.43-12.14,8.38-21.7,19.99-27.88,33.54-3.42.26-5.79.87-9.3,2.06-5.01,1.79-7.7,4.6-12.26,6.14-6.3-14.87-8.07-31.12-4.81-46.72ZM6.3,103.35c-.12-.46-.23-.93-.34-1.4-.09-.41-.19-.82-.28-1.24-.09-.41-.18-.83-.26-1.24-.09-.48-.19-.95-.27-1.43-.11-.62-.21-1.26-.32-1.89-.06-.41-.12-.82-.18-1.22-.18-1.22-.32-2.46-.44-3.7-.04-.42-.08-.83-.11-1.25-.03-.42-.06-.83-.09-1.25-.03-.34-.04-.69-.06-1.03-.03-.49-.05-.98-.06-1.48,0-.26-.02-.51-.02-.76-.02-.59-.03-1.18-.03-1.78s0-1.17.03-1.75c0-.25,0-.5.02-.75.02-.6.04-1.2.07-1.8.03-.56.07-1.13.11-1.69.03-.5.08-1,.13-1.5.03-.33.06-.66.09-.99.08-.71.16-1.42.26-2.13.06-.44.12-.89.19-1.33.12-.8.26-1.61.4-2.4.06-.36.13-.71.21-1.06.11-.59.23-1.18.36-1.76.17-.79.36-1.58.56-2.36.1-.39.2-.78.31-1.17.21-.78.43-1.55.66-2.32.11-.38.23-.77.35-1.14.24-.77.5-1.52.76-2.27.13-.38.26-.75.4-1.13.17-.46.35-.93.53-1.39.36-.92.73-1.85,1.13-2.75.21-.45.4-.91.61-1.36.17-.36.33-.72.5-1.08.49-1.03.99-2.04,1.53-3.04.02-.04.03-.09.06-.13.78,1.27,1.59,2.51,2.44,3.73,1.4,2.04,2.91,4.01,4.5,5.9.96-.99,2.13-1.33,3.44-1.35-2.2-2.55-4.25-5.24-6.09-8.07-.81-1.22-1.57-2.45-2.3-3.73,0,0,0,0,0,0,.27-.46.56-.91.84-1.37.25-.41.5-.81.77-1.21,1.21-1.87,2.5-3.69,3.87-5.45.32-.4.62-.81.95-1.2.32-.39.64-.79.97-1.19.39-.46.79-.93,1.19-1.38.4-.45.81-.91,1.22-1.36,1.62-1.78,3.33-3.49,5.13-5.11,0,0,.03-.02.04-.03.86-.79,1.75-1.56,2.65-2.31.5-.41,1.01-.83,1.52-1.23.48-.38.96-.75,1.44-1.12,1-.75,2.02-1.48,3.05-2.19.4-.27.8-.54,1.2-.8.11-.08.22-.15.34-.23.3-.19.6-.38.91-.57.32-.21.63-.4.96-.6.15-.09.32-.19.47-.28.32-.2.63-.38.95-.56.44-.26.88-.5,1.32-.75.53-.3,1.07-.6,1.61-.88.51-.27,1.04-.55,1.56-.8.45-.23.91-.45,1.37-.66.36-.19.73-.36,1.09-.51.44-.21.9-.41,1.35-.61.43-.2.86-.38,1.3-.56.5-.21,1.02-.42,1.52-.62.85-.32,1.7-.64,2.55-.94.38-.14.76-.26,1.14-.39.59-.2,1.18-.39,1.78-.57-.35,1.44-.66,2.9-.92,4.36-2.83,15.47-1,31.45,5.08,46.17-6.51.71-13.67.49-21.64-.06-2.64-.19-5.48-.64-8.13-1.14-.16.92-.45,1.96-.95,3.02-.23.5-.84,1.75-2,3.02-.72.79-1.65,1.59-2.83,2.2-.3.16-.62.32-.97.45-2.45.99-4.61.74-5.66.62-1.74-.22-3.22-.78-4.4-1.41.09,3.05.7,6.12,1.19,8.13.38,1.51.85,3.01,1.43,4.45.07.19.14.37.21.55,1.61,1.48,2.71,2.61,3.23,3.14,4,4.03,11.46,9.58,19.28,12.26,3.5,1.2,9.45,2.66,17.5,1.79-.24.08-7.35,1.45-15.55-.2-8.48-1.71-14.29-5.56-17.3-7.59-1.27-.86-2.47-1.74-3.6-2.65,1.13,1.72,2.38,3.34,3.78,4.87,1.97,2.18,4.09,4.32,6.62,5.87,2.58,1.58,5.46,2.62,8.19,3.91,2.1.99,4.14,2.16,6.09,3.46-12.46,3.74-25.58,4.42-38.27,1.77-1.43-.29-2.83-.63-4.24-1.01h0ZM41.29,151.36c-.52-.32-1.03-.66-1.54-.99-.51-.33-1.02-.67-1.52-1.03-.5-.35-1-.7-1.49-1.06-.5-.36-.98-.72-1.47-1.09-.48-.37-.96-.74-1.44-1.12-.48-.38-.95-.77-1.41-1.16-.45-.38-.91-.76-1.35-1.15-.48-.42-.96-.85-1.43-1.28-.88-.81-1.75-1.64-2.6-2.49-.84-.85-1.67-1.72-2.47-2.6-.83-.91-1.63-1.85-2.43-2.8-.38-.47-.77-.94-1.14-1.42-.76-.95-1.5-1.92-2.2-2.91-.36-.5-.71-1-1.05-1.5-.34-.5-.68-1.01-1.02-1.52-.33-.5-.66-1.03-.98-1.54-.32-.52-.63-1.04-.95-1.57-.31-.53-.62-1.06-.91-1.6-.91-1.6-1.73-3.24-2.51-4.9-.26-.56-.51-1.12-.77-1.68-.75-1.68-1.44-3.41-2.07-5.16-.21-.58-.41-1.17-.61-1.76-.2-.59-.38-1.18-.57-1.78h0c1.44.35,2.88.66,4.33.92,4.96.91,9.96,1.35,14.97,1.31,8.66-.07,17.32-1.52,25.64-4.3,1.56,1.25,3.04,2.59,4.43,4.01,3.62,3.7,6.78,8.05,8.77,12.84.94,2.23,1.51,4.55,1.97,7.63-5.61,8.04-12.67,14.97-20.91,20.37-1.22.8-2.47,1.57-3.74,2.31-.53-.32-1.05-.63-1.56-.96ZM68.68,158.22c-.15,1.26-.37,2.52-.63,3.79-.48-.09-.96-.2-1.44-.3-1.43-.31-2.84-.65-4.24-1.05-.47-.13-.93-.26-1.4-.4-.46-.14-.92-.27-1.38-.42-.91-.29-1.83-.6-2.73-.92-.45-.16-.91-.32-1.35-.5-.59-.22-1.18-.45-1.76-.7-.25-.1-.5-.21-.74-.31-.06-.02-.12-.04-.17-.08-.62-.25-1.24-.52-1.85-.79-.04-.02-.08-.03-.11-.05-.21-.09-.42-.19-.62-.28-.51-.24-1.03-.48-1.54-.73-.05-.03-.11-.06-.16-.09-.73-.36-1.44-.73-2.16-1.1,1.26-.78,2.51-1.58,3.73-2.43,6.89-4.75,12.94-10.55,18.02-17.15.15,1.45.31,3.04.48,4.81.62,6.49.9,12.48.07,18.69ZM87.95,74.01c-.65.39-1.42.79-2.31,1.09-.53.18-1.1.32-1.72.43-.64.1-1.26.14-1.87.13-1.53-.03-2.95-.4-4.2-.91-3-1.23-5.05-3.31-5.46-3.74.35-.51.87-1.2,1.58-1.93.91-.96,2.13-2,3.72-2.91,2.54-1.45,4.94-1.91,6.45-2.06.21-.03.4-.04.57-.05.52.46,1.53,1.44,2.33,2.97.26.49.5,1.03.68,1.63.76,2.42.42,4.47.21,5.36ZM139.4,103.16c-.15,1.42-.34,2.84-.55,4.26-1.57,11.01-4.58,21.98-11.05,30.54-5.15,6.03-11.76,8.87-18.48,7.88-1.15-.16-2.32-.44-3.47-.85-2.04-.71-4.08-1.78-6.08-3.22-8.78-6.08-14.01-17.64-7.63-27.35,1.75-2.61,3.97-4.72,6.36-6.63.93-.75,1.88-1.48,2.85-2.19,4.46-3.33,9.05-6.49,11.91-11.48.53-.8,1.02-1.63,1.45-2.48.56-1.03,1.05-2.09,1.48-3.19,1.61-4,2.49-8.32,2.73-12.64.2,4.38-.4,8.83-1.8,13.05-.36,1.11-.78,2.2-1.25,3.28-.41.93-.86,1.84-1.35,2.73-1.61,2.91-3.73,5.6-6.19,7.87-1.91,1.79-3.99,3.37-6.02,4.98-.95.75-1.9,1.52-2.8,2.32-1.95,1.69-3.73,3.55-5.14,5.77-5.3,8.42-.44,18.33,7.14,23.5,1.38,1.02,2.88,1.87,4.43,2.51,1.14.47,2.3.82,3.49,1.05,2.99.56,6.09.27,9.05-1.18,11.12-4.84,16.33-20.94,19.28-35.31.27-1.36.53-2.7.77-4.02.78-4.29,1.38-8.3,1.91-11.64-.25,4.01-.56,8.19-1.03,12.41ZM151.39,126.04c-.31.5-.63,1-.95,1.49-.32.49-.65.98-.98,1.46-.33.49-.68.97-1.02,1.44-.8-1.24-1.44-2.57-1.95-3.97-1.38-3.73-1.85-7.97-2.19-12.3-.03-.35-.05-.71-.08-1.07,2.08,2.44,4.02,5,5.78,7.7.81,1.22,1.57,2.45,2.3,3.73,0,0,0,0,0,0-.3.5-.61,1.01-.92,1.51ZM163.5,86.2c-.02.61-.04,1.2-.07,1.8-.03.59-.07,1.18-.12,1.77-.03.47-.08.95-.12,1.42-.03.33-.06.67-.09.99-.08.67-.15,1.33-.24,2-.07.56-.15,1.12-.24,1.67,0,.08-.03.15-.03.24-.09.55-.17,1.09-.27,1.63,0,.07-.03.15-.03.21-.09.5-.18.98-.28,1.47-.11.56-.23,1.14-.36,1.7-.15.7-.32,1.4-.5,2.1,0,0,0,.03,0,.04-.16.65-.34,1.3-.52,1.94-.06.21-.12.44-.19.66-.16.56-.32,1.1-.5,1.66-.26.83-.53,1.64-.81,2.45-.28.82-.58,1.62-.89,2.43-.28.74-.58,1.48-.89,2.2-.22.53-.45,1.05-.68,1.58-.17.38-.34.76-.52,1.14-.14.3-.27.59-.42.88-.2.42-.4.83-.62,1.25-.2.4-.41.8-.62,1.2-.06.12-.12.25-.19.37-.78-1.26-1.58-2.51-2.43-3.73-2.43-3.51-5.13-6.82-8.07-9.88-.55-7.15-1.14-14.84-1.01-20.92.18-10.51-4.05-18.59-10.51-24.52,8.18-.96,16.46-.62,24.56,1.08,1.42.29,2.84.63,4.25,1.01h0c.2.79.38,1.57.56,2.38.17.79.33,1.59.49,2.39.08.38.15.77.21,1.15,0,.02,0,.03,0,.05.09.5.17,1.01.25,1.51.09.51.15,1.03.22,1.55.09.66.16,1.32.24,1.97.03.28.06.56.09.85.04.5.09,1,.13,1.5.03.41.06.83.09,1.25.03.34.04.69.06,1.03.03.49.05.98.06,1.48,0,.26.02.5.02.76.02.59.03,1.18.03,1.77s0,1.17-.03,1.75c0,.25,0,.5-.02.75Z"/>
    <path class="st0" d="M85.67,69.35c0,1.82-1.44,3.32-3.24,3.42-.06,0-.13,0-.2,0-1.89,0-3.43-1.54-3.43-3.43s1.54-3.43,3.43-3.43c.5,0,.98.11,1.41.31,1.2.53,2.03,1.73,2.03,3.13Z"/>
  </g>
</svg>