<?xml version="1.0" encoding="UTF-8"?>
<svg id="Warstwa_1" xmlns="http://www.w3.org/2000/svg" version="1.1" viewBox="0 0 159.54 158.31">
  <!-- Generator: Adobe Illustrator 30.5.1, SVG Export Plug-In . SVG Version: 2.1.4 Build 3)  -->
  <path d="M63.94,53.47c-6.87-16.24-8.35-34.12-3.8-51.02,6.28-1.59,12.86-2.45,19.63-2.45,13.47,0,26.14,3.36,37.27,9.26-13.9,8.51-24.77,21.08-31.56,36-3.42.26-5.79.88-9.3,2.06-5,1.79-7.69,4.6-12.24,6.15ZM157.1,60.26c-9.45-2.55-19.2-3.21-28.8-2.09,6.45,5.94,10.69,14.02,10.52,24.54-.14,6.08.46,13.77,1.01,20.94,3.95,4.13,7.47,8.68,10.48,13.61,5.9-11.15,9.24-23.85,9.24-37.35,0-6.79-.85-13.37-2.44-19.66ZM89.41,45.12c.49,0,1,0,1.54,0,11-.03,23.97,3.09,33.64,10.03,10.42-1.65,21.08-1.29,31.43,1.22-5.87-19.08-18.67-35.1-35.46-45.13-13.6,7.84-24.32,19.69-31.15,33.88ZM2.45,99.6c-1.59-6.3-2.45-12.88-2.45-19.67,0-13.49,3.35-26.19,9.24-37.34,2.07,3.4,4.39,6.61,6.92,9.64.96-.98,2.12-1.34,3.43-1.35-3.15-3.64-5.96-7.59-8.38-11.81C21.22,22.24,37.21,9.41,56.26,3.53c-4.06,16.81-2.49,34.45,4.15,50.57-6.51.71-13.65.49-21.62-.06-2.64-.19-5.47-.64-8.12-1.14-.16.92-.45,1.95-.95,3.02-.41.89-2.02,4.18-5.78,5.69-2.45.99-4.61.74-5.66.61-1.74-.22-3.22-.78-4.4-1.41.09,3.06.7,6.12,1.19,8.14.37,1.51.85,3.01,1.42,4.46.07.18.14.36.22.54,1.61,1.48,2.7,2.62,3.22,3.15,4,4.04,11.45,9.59,19.27,12.27,3.5,1.2,9.44,2.67,17.48,1.79-.24.07-7.34,1.45-15.54-.2-8.46-1.71-14.28-5.57-17.28-7.59-1.27-.86-2.47-1.74-3.59-2.66,1.12,1.72,2.38,3.35,3.77,4.88,1.97,2.18,4.09,4.33,6.61,5.87,2.58,1.58,5.46,2.63,8.19,3.92,2.1,1,4.13,2.16,6.08,3.46-13.84,4.16-28.49,4.53-42.46.76ZM63.6,125.92c-.46-3.08-1.04-5.41-1.97-7.64-1.99-4.8-5.14-9.15-8.76-12.85-1.39-1.42-2.88-2.75-4.44-4.01-8.32,2.78-16.95,4.24-25.6,4.3-6.46.05-12.94-.7-19.29-2.24,5.86,19.08,18.65,35.1,35.44,45.13,9.84-5.68,18.18-13.45,24.63-22.69ZM64.23,130.99c-5.97,7.77-13.29,14.44-21.73,19.6,6.71,3.56,13.97,6.2,21.64,7.72,0,0,0,0,0,0,1.56-7.6,1.3-14.69.56-22.5-.17-1.78-.32-3.37-.47-4.82ZM114.52,137.98c-5.72,2.82-12.01,1.25-16.95-2.38-7.57-5.18-12.42-15.09-7.13-23.52,3.48-5.5,9.24-8.65,13.95-13.08,2.46-2.28,4.58-4.96,6.18-7.88,3.21-5.86,4.7-12.55,4.39-19.08-.38,6.46-2.13,12.91-5.66,18.32-5.05,8.82-15.47,11.91-21.1,20.31-6.37,9.73-1.14,21.29,7.62,27.38,9.66,7.04,20.4,5.09,28-3.81,9.78-12.97,11.64-31.5,12.62-47.26-2.38,15.24-6.34,44.22-21.93,51ZM83.8,64.87c.76,2.42.42,4.47.22,5.36-1.03.63-2.38,1.25-4.02,1.51-6.12.97-10.87-3.85-11.52-4.53.81-1.17,2.48-3.24,5.29-4.85,2.89-1.65,5.59-2.01,7.02-2.11.69.6,2.22,2.11,3.01,4.61ZM81.74,65.57c0-1.9-1.54-3.44-3.43-3.44s-3.43,1.54-3.43,3.44,1.54,3.44,3.43,3.44,3.43-1.54,3.43-3.44ZM148.3,120.89c-.73-1.27-1.49-2.51-2.3-3.73-1.76-2.7-3.69-5.27-5.77-7.71.03.36.05.72.08,1.07.33,4.33.8,8.57,2.19,12.31.5,1.4,1.14,2.74,1.95,3.98.34-.48.68-.96,1.02-1.45.33-.48.66-.97.98-1.46.32-.49.64-.99.95-1.49.32-.5.62-1.01.92-1.51,0,0,0,0,0,0Z"/>
</svg>